<svg id="color-shape" class="bg-shape" xmlns="http://www.w3.org/2000/svg" viewBox="0 0 199.99 100" preserveAspectRatio="xMinYMin meet">
    <defs>
        <linearGradient id="linear-gradient" x1="101.74" y1="41.84" x2="185.06" y2="41.84" gradientUnits="userSpaceOnUse">
            <stop offset="0" stop-color="#fff" stop-opacity="0"></stop>
            <stop offset="0.06" stop-color="#fff" stop-opacity="0.28"></stop>
            <stop offset="0.14" stop-color="#fff" stop-opacity="0.65"></stop>
            <stop offset="0.17" stop-color="#fff" stop-opacity="0.8"></stop>
            <stop offset="0.22" stop-color="#fff" stop-opacity="0.85"></stop>
            <stop offset="0.31" stop-color="#fff" stop-opacity="0.92"></stop>
            <stop offset="0.42" stop-color="#fff" stop-opacity="0.97"></stop>
            <stop offset="0.57" stop-color="#fff" stop-opacity="0.99"></stop>
            <stop offset="1" stop-color="#fff"></stop>
        </linearGradient>
    </defs>
    <g>
        <g>
            <path d="M151.93,36.63,53.47,96.82q-8.67,5.3-17.52,1.77T23.6,84.89L1,19.28C.63,18.07,0,14.8,0,14.8V0H200V7.24L162.61,30.09Z" fill="#162e66"></path>
            <path d="M143.4,41.84l5.36-30.37A13.72,13.72,0,0,1,153.3,3.4,12,12,0,0,1,161.47,0H200V7.24Z" fill="#fff" opacity="0.2" style="mix-blend-mode: overlay"></path>
            <path d="M101.74,67.3s.78-8.66.88-9.29l5-30.17a13.72,13.72,0,0,1,4.55-8.07,12,12,0,0,1,8.17-3.4h64.69Z" opacity="0.3" fill="url(#linear-gradient)" style="mix-blend-mode: overlay"></path>
        </g>
    </g>
</svg>