<?xml version="1.0" encoding="iso-8859-1"?>
<!-- Generator: Adobe Illustrator 19.0.0, SVG Export Plug-In . SVG Version: 6.00 Build 0)  -->
<svg version="1.1" id="Capa_1" xmlns="http://www.w3.org/2000/svg" xmlns:xlink="http://www.w3.org/1999/xlink" x="0px" y="0px"
	 viewBox="0 0 513.067 513.067" style="enable-background:new 0 0 513.067 513.067;" xml:space="preserve">
<path style="fill:#344A5E;" d="M156.303,411.733v-38.4h-13.867v38.4c-3.2,1.067-6.4,2.133-8.533,5.333
	c-4.267,4.267-7.467,9.6-7.467,16c0,6.4,2.133,11.733,6.4,17.067c4.267,4.267,9.6,7.467,16,7.467c1.067,0,1.067,0,2.133,0
	c5.333,0,10.667-2.133,14.933-6.4c4.267-4.267,7.467-9.6,7.467-16C174.436,424.533,166.97,414.933,156.303,411.733z M157.37,441.6
	c-2.133,1.067-4.267,2.133-6.4,2.133c-3.2,0-5.333-1.067-7.467-3.2c-2.133-2.133-3.2-4.267-3.2-7.467c0-2.133,1.067-4.267,2.133-6.4
	c1.067-1.067,3.2-2.133,5.333-2.133c0,0,0,0,1.067,0c5.333,0,10.667,5.333,10.667,10.667
	C160.57,437.333,159.503,439.467,157.37,441.6z"/>
<polygon style="fill:#F3F3F3;" points="286.436,372.267 13.37,354.133 11.236,23.467 284.303,41.6 "/>
<g>
	<polygon style="fill:#ADB3BA;" points="46.436,334.933 41.103,329.6 67.77,304 96.57,323.2 147.77,306.133 166.97,316.8 
		196.836,307.2 198.97,313.6 166.97,324.267 147.77,313.6 95.503,330.667 69.903,311.467 	"/>
	<polygon style="fill:#ADB3BA;" points="198.97,323.2 212.836,306.133 190.436,300.8 	"/>
</g>
<polygon style="fill:#F3705A;" points="188.303,265.6 163.77,263.467 163.77,182.4 188.303,183.467 "/>
<g>
	<path style="fill:#415A6B;" d="M297.103,30.933c0,6.4-5.333,10.667-11.733,10.667h-1.067L11.236,23.467
		c-6.4,0-10.667-6.4-10.667-12.8S5.903,0,12.303,0h1.067l273.067,18.133C292.836,18.133,297.103,24.533,297.103,30.933z"/>
	<path style="fill:#415A6B;" d="M297.103,385.067c0,6.4-5.333,10.667-11.733,10.667h-1.067L11.236,378.667
		c-6.4,0-11.733-6.4-10.667-12.8c0-6.4,5.333-10.667,11.733-10.667h1.067l273.067,18.133
		C292.836,373.333,297.103,378.667,297.103,385.067z"/>
	<path style="fill:#415A6B;" d="M62.436,80c3.2-3.2,6.4-4.267,11.733-4.267c0-8.533,0-17.067,0-24.533
		c-10.667-1.067-21.333,3.2-28.8,9.6C50.703,67.2,57.103,73.6,62.436,80z"/>
</g>
<path style="fill:#FFD15C;" d="M90.17,92.8c8.533,1.067,17.067,1.067,24.533,2.133c0-22.4-18.133-41.6-40.533-43.733
	c0,6.4,0,14.933,0,24.533C82.703,76.8,90.17,84.267,90.17,92.8z"/>
<path style="fill:#F3705A;" d="M113.636,94.933c0,22.4-18.133,39.467-40.533,37.333c-10.667-1.067-21.333-6.4-28.8-13.867
	c-7.467-7.467-11.733-18.133-11.733-29.867S36.836,67.2,44.303,60.8c5.333,5.333,11.733,12.8,17.067,18.133
	c-3.2,3.2-4.267,6.4-4.267,10.667c0,8.533,7.467,17.067,16,17.067s16-6.4,16-14.933L113.636,94.933z"/>
<polygon style="fill:#66C6B9;" points="40.036,227.2 40.036,256 63.503,257.067 63.503,229.333 "/>
<polygon style="fill:#FFD15C;" points="105.103,260.267 81.636,258.133 81.636,177.067 105.103,178.133 "/>
<polygon style="fill:#55C0EB;" points="122.17,214.4 122.17,261.333 146.703,262.4 146.703,215.467 "/>
<rect x="230.97" y="448" style="fill:#66C6B9;" width="99.2" height="64"/>
<path style="fill:#CED6E0;" d="M172.303,402.133c0,0-19.2-2.133-22.4-3.2c-4.267-1.067-4.267-5.333-4.267-5.333
	s5.333-26.667,22.4-32c0,0,1.067,17.067,1.067,23.467S172.303,402.133,172.303,402.133z"/>
<path style="fill:#FFD15C;" d="M139.236,320c0,0-4.267,4.267,1.067,9.6c3.2,3.2,3.2,3.2,4.267,3.2c0,0,1.067,3.2,2.133,4.267
	c0,0-6.4-6.4-11.733-7.467l-2.133,1.067l1.067,23.467l-5.333,1.067c0,0,0,3.2,2.133,6.4c2.133,4.267,10.667,10.667,17.067,13.867
	c6.4,3.2,13.867,10.667,13.867,10.667l11.733-20.267c0,0-8.533-5.333-9.6-7.467c-1.067-2.133-1.067-4.267-2.133-9.6
	c-2.133-4.267-3.2-10.667-3.2-10.667l-10.667-10.667c0,0-2.133-2.133-4.267-2.133L139.236,320z"/>
<g>
	<path style="fill:#F7B64C;" d="M133.903,333.867L133.903,333.867L133.903,333.867z"/>
	<path style="fill:#F7B64C;" d="M147.77,349.867l1.067-1.067c0-1.067,0-1.067,0-2.133c0-1.067,0-1.067,0-2.133v-1.067V342.4
		l-1.067-1.067c0,0,0,0-1.067,0h-1.067l-1.067-1.067c-2.133-1.067-3.2-2.133-5.333-3.2c-1.067-1.067-2.133-1.067-2.133-2.133
		l-2.133-1.067l0,0l0,0l0,0c0,0,0,0,1.067,0c0,0,0,0,1.067,0l0,0l0,0l0,0l0,0l0,0l0,0l0,0l0,0l0,0l0,0l0,0l0,0l0,0l0,0l0,0l0,0l0,0
		c0,0,0,0-1.067,0c0,0,0,0-1.067,0c0,0,0,0-1.067,0l0,0l0,0l0,0l0,0l0,0l0,0l0,0v1.067l2.133,2.133
		c1.067,1.067,2.133,1.067,2.133,2.133c2.133,1.067,3.2,2.133,5.333,3.2l1.067,1.067h1.067c0,0,0,0,1.067,0l1.067,1.067
		c0,0,0,0,0,1.067c0,0,0,0,0,1.067v1.067v1.067C146.703,347.733,146.703,348.8,147.77,349.867c-1.067-1.067-2.133,0-2.133,0h-1.067
		v1.067V352l0,0l0,0c0,0,0,0,0,1.067l0,0l0,0l0,0l0,0l0,0l0,0l0,0l0,0l0,0l0,0l0,0h-1.067v1.067c0,0,0,0,1.067,1.067l0,0l0,0l0,0
		l0,0l0,0l0,0l0,0c0,0,0,0-1.067,0l0,0l0,0l0,0l0,0l0,0l0,0l0,0l0,0l0,0l0,0l0,0c-1.067,0-3.2-1.067-4.267-1.067
		s-3.2-1.067-4.267-1.067l0,0l0,0h-2.133h2.133c1.067,0,2.133,1.067,4.267,1.067c1.067,0,2.133,1.067,4.267,1.067l0,0l0,0l0,0l0,0
		l0,0l0,0l0,0l0,0c0,0,0,0,1.067,0c0,0,0,0,1.067,0c0,0,0,0,1.067,0c0,0,1.067,0,1.067-1.067l0,0l0,0c0,0,0,0,0-1.067l0,0l0,0
		c0,0,0,0,0-1.067c0,0,0,0,0-1.067l0,0l0,0l0,0l0,0l0,0l0,0l0,0l0,0l0,0l0,0l0,0V349.867L147.77,349.867
		C146.703,350.933,146.703,350.933,147.77,349.867L147.77,349.867C146.703,349.867,146.703,349.867,147.77,349.867
		C146.703,349.867,146.703,349.867,147.77,349.867z"/>
</g>
<path style="fill:#F3705A;" d="M143.503,356.267l-3.2,1.067c-1.067,0-2.133,0-2.133-1.067l-16-64c0-1.067,0-2.133,1.067-2.133
	l3.2-1.067c1.067,0,2.133,0,2.133,1.067l16,64C145.636,355.2,144.57,356.267,143.503,356.267z"/>
<path style="fill:#66C6B9;" d="M235.236,295.467c0,0-8.533,0-9.6,10.667c-2.133,10.667,0,46.933-1.067,54.4
	c-1.067,7.467-2.133,17.067-2.133,20.267s-1.067,10.667-1.067,10.667s-1.067,1.067-3.2-1.067c-2.133-2.133-3.2-3.2-8.533-3.2
	c-5.333-1.067-11.733-4.267-16-7.467c-5.333-3.2-24.533-17.067-24.533-17.067c1.067,6.4-9.6,30.933-16,34.133
	c-6.4,4.267-7.467-3.2-7.467-3.2s-2.133,5.333,3.2,8.533s52.267,24.533,58.667,26.667c6.4,2.133,29.867,8.533,29.867,8.533
	L235.236,295.467z"/>
<path style="fill:#FFD15C;" d="M261.903,253.867l10.667,23.467l-9.6,30.933l38.4,2.133l-2.133-36.267c0,0,7.467,1.067,10.667-7.467
	c3.2-8.533,5.333-25.6,4.267-36.267c-2.133-10.667-3.2-16-3.2-16s4.267-20.267-9.6-27.733c-13.867-7.467-54.4,8.533-56.533,20.267
	C244.836,218.667,261.903,253.867,261.903,253.867z"/>
<path style="fill:#F7B64C;" d="M299.236,274.133c0,0-19.2,1.067-32-12.8c0,0,8.533,16,33.067,23.467L299.236,274.133z"/>
<path style="fill:#CED6E0;" d="M294.97,279.467c0,0-12.8,7.467-16,13.867s-3.2,6.4-3.2,6.4s-2.133-4.267-6.4-8.533
	s-11.733,1.067-11.733,1.067l-13.867,153.6l57.6-4.267l27.733-151.467L294.97,279.467z"/>
<path style="fill:#4ABAA5;" d="M229.903,416c0,10.667-5.333,64-8.533,96h26.667l4.267-54.4v-21.333
	c-2.133-23.467,11.733-156.8,11.733-156.8s-36.267,11.733-37.333,22.4c-1.067,10.667,4.267,61.867,4.267,67.2
	C232.036,374.4,230.97,400,229.903,416z"/>
<path style="fill:#66C6B9;" d="M268.303,277.333c0,0-14.933,11.733-23.467,26.667l3.2,5.333l-8.533,4.267
	c0,0,1.067,69.333,8.533,100.267c7.467,30.933,6.4,42.667,6.4,42.667s2.133-69.333,2.133-93.867
	C259.77,318.933,268.303,277.333,268.303,277.333z"/>
<path style="fill:#415A6B;" d="M260.836,242.133l3.2-2.133c0,0-7.467-8.533-4.267-16c3.2-7.467,5.333-7.467,4.267-13.867
	c-1.067-6.4-3.2-12.8,4.267-12.8s18.133,1.067,27.733-3.2c8.533-4.267,12.8,3.2,13.867,7.467s2.133,12.8,2.133,12.8
	s3.2-5.333,1.067-18.133c-2.133-12.8-16-22.4-24.533-23.467c-8.533-2.133-32,3.2-41.6,18.133c-9.6,14.933-3.2,33.067-1.067,37.333
	c2.133,3.2,17.067,26.667,17.067,26.667l-6.4-17.067L260.836,242.133z"/>
<ellipse transform="matrix(-0.5783 -0.8158 0.8158 -0.5783 204.1088 585.2844)" style="fill:#FFD15C;" cx="253.319" cy="239.891" rx="11.733" ry="6.4"/>
<g>
	<path style="fill:#E8EAE9;" d="M321.637,267.733l-12.8,41.6l-8.533-18.133l-5.333-10.667l4.267-5.333l0,0
		c0,0,7.467,1.067,10.667-7.467c1.067-3.2,2.133-6.4,3.2-10.667L321.637,267.733z"/>
	<path style="fill:#E8EAE9;" d="M272.57,278.4c0,0-2.133,13.867,3.2,22.4c0,0-6.4-8.533-9.6-5.333c-3.2,3.2-6.4,9.6-6.4,9.6
		c2.133-12.8,5.333-24.533,9.6-33.067L272.57,278.4z"/>
</g>
<path style="fill:#4ABAA5;" d="M283.236,512h84.267c-3.2-37.333-12.8-145.067-12.8-172.8c0-33.067,18.133-54.4,18.133-54.4
	l-44.8-11.733l-53.333,161.067c0,0,2.133,33.067,3.2,51.2C278.97,493.867,280.036,503.467,283.236,512z"/>
<g>
	<path style="fill:#66C6B9;" d="M317.37,261.333c0,0,1.067,4.267-1.067,8.533s-16,36.267-24.533,75.733s-17.067,89.6-17.067,89.6
		s17.067-32,23.467-48c6.4-14.933,33.067-71.467,33.067-71.467l-9.6-6.4l9.6-6.4c0,0-2.133-18.133-1.067-27.733
		c0,0,0-2.133-2.133-4.267C324.836,267.733,318.436,260.267,317.37,261.333z"/>
	<path style="fill:#66C6B9;" d="M344.036,512h29.867c4.267-58.667,11.733-171.733,13.867-195.2c2.133-30.933-14.933-32-14.933-32
		s-18.133,20.267-18.133,54.4c0,10.667,1.067,33.067,3.2,58.667C355.77,435.2,348.303,483.2,344.036,512z"/>
</g>
<g>
	<path style="fill:#FFD15C;" d="M130.703,358.4h2.133c0,0,6.4,2.133,8.533,2.133s5.333-1.067,3.2-4.267c0,0,3.2-1.067,1.067-6.4
		c0,0,3.2-2.133,2.133-5.333c0-1.067-1.067-2.133-2.133-2.133c-2.133-1.067-12.8-8.533-12.8-8.533s1.067,0,0-1.067
		c0,0,4.267,0,4.267-3.2s-2.133-3.2-4.267-4.267c-1.067,0-3.2,0-4.267,1.067c-1.067,1.067-2.133,4.267-1.067,6.4
		c1.067,2.133,1.067,2.133,1.067,2.133s-2.133,4.267,1.067,7.467c0,0-4.267,4.267,0,8.533
		C130.703,349.867,126.436,355.2,130.703,358.4z"/>
	<path style="fill:#FFD15C;" d="M331.236,198.4l-3.2,9.6c0,0-3.2,13.867-1.067,19.2c2.133,5.333,1.067,5.333,1.067,7.467
		s-5.333,12.8-5.333,12.8s-1.067,4.267,2.133,5.333c3.2,1.067,6.4,1.067,6.4,2.133c1.067,1.067,0,5.333,3.2,6.4
		c0,0-2.133,1.067,0,4.267c2.133,3.2,3.2,4.267,2.133,9.6c-1.067,4.267,7.467,12.8,23.467,8.533
		c16-4.267-17.067,46.933-17.067,46.933l78.933,8.533l-7.467-70.4c0,0-3.2-4.267-5.333-11.733
		c-2.133-7.467-24.533-67.2-45.867-72.533C341.903,179.2,331.236,198.4,331.236,198.4z"/>
</g>
<path style="fill:#F7B64C;" d="M386.703,257.067c-5.333,14.933-22.4,23.467-28.8,27.733c1.067,0,2.133,0,3.2-1.067
	c5.333-1.067,5.333,4.267,2.133,12.8C382.436,281.6,386.703,257.067,386.703,257.067z"/>
<path style="fill:#CED6E0;" d="M422.97,512H319.503l26.667-195.2l16-10.667c1.067,5.333,3.2,9.6,6.4,13.867l1.067,2.133
	C378.17,315.733,384.57,304,384.57,304l26.667,8.533C412.303,311.467,459.236,473.6,422.97,512z"/>
<path style="fill:#344A5E;" d="M243.77,493.867c0,0-3.2,1.067-5.333,1.067s-4.267-3.2-4.267-4.267c0-2.133-5.333-10.667,0-40.533
	c0,0,6.4-1.067,14.933,3.2C258.703,457.6,251.236,487.467,243.77,493.867z"/>
<path style="fill:#CED6E0;" d="M241.636,483.2h-3.2c0,0-6.4,1.067-4.267-33.067L248.036,464L241.636,483.2z"/>
<path style="fill:#FFD15C;" d="M255.503,476.8h-23.467c-2.133,2.133-12.8,5.333-17.067,5.333s-9.6-1.067-13.867-1.067
	s-9.6-1.067-12.8,0c-3.2,0-4.267,3.2-8.533,2.133s-16-5.333-16-5.333l-5.333-2.133c-1.067-3.2,2.133-3.2,4.267-4.267l22.4-8.533
	c3.2-1.067,13.867-7.467,16-8.533c2.133-2.133,4.267-4.267,4.267-4.267s-1.067,0-2.133-1.067c-2.133-1.067-8.533-1.067-12.8-2.133
	c-4.267-1.067-10.667-5.333-7.467-7.467c3.2-3.2,5.333-3.2,10.667-2.133s12.8,2.133,16,2.133s4.267,1.067,6.4,3.2
	c2.133,2.133,6.4,2.133,10.667,4.267c4.267,2.133,5.333,4.267,8.533,4.267c3.2,0,8.533-1.067,8.533-1.067
	C252.303,450.133,255.503,476.8,255.503,476.8z"/>
<path style="fill:#F3F3F3;" d="M234.17,451.2c0,0,8.533,20.267,4.267,33.067l23.467-1.067L253.37,448L234.17,451.2z"/>
<path style="fill:#415A6B;" d="M331.236,315.733c0,0-9.6,4.267-12.8,11.733s-3.2,33.067-3.2,41.6c0,8.533-3.2,16-3.2,18.133
	s-2.133,20.267-2.133,24.533c-1.067,5.333-1.067,7.467-1.067,10.667c0,2.133,2.133,3.2-1.067,5.333
	c-3.2,2.133-14.933,9.6-18.133,10.667s-7.467,5.333-21.333,6.4c-13.867,1.067-33.067,5.333-33.067,5.333s11.733,1.067,13.867,16
	c2.133,13.867,0,21.333-5.333,26.667s-8.533-2.133-8.533-2.133s0,6.4,8.533,5.333c7.467-2.133,20.267-5.333,27.733-7.467
	c7.467-2.133,16-4.267,23.467-6.4c6.4-2.133,22.4-6.4,22.4-6.4L331.236,315.733z"/>
<path style="fill:#344A5E;" d="M312.036,512h7.467l10.667-100.267l22.4-94.933l-3.2-10.667c0,0-23.467,10.667-26.667,17.067
	c-3.2,6.4-3.2,13.867-3.2,13.867s1.067,38.4,0,55.467C318.436,404.267,314.17,474.667,312.036,512z"/>
<path style="fill:#415A6B;" d="M320.57,512c11.733-83.2,24.533-162.133,39.467-214.4l-21.333,13.867l8.533,5.333l-11.733,8.533
	c0,0-6.4,60.8-9.6,94.933c-2.133,21.333-5.333,65.067-6.4,92.8h1.067V512z"/>
<path style="fill:#344A5E;" d="M401.636,512h83.2c-2.133-18.133-5.333-42.667-5.333-56.533c0-22.4-18.133-60.8-22.4-71.467
	c-4.267-10.667-4.267-38.4,1.067-56.533c5.333-18.133,18.133-25.6,18.133-25.6l-41.6-10.667c0,0-35.2,35.2-46.933,77.867
	c-11.733,42.667,0,68.267,0,68.267L401.636,512z"/>
<path style="fill:#415A6B;" d="M422.97,198.4c4.267,18.133-5.333,30.933-8.533,41.6c-3.2,11.733-3.2,18.133-3.2,18.133
	c-18.133-2.133-18.133-13.867-22.4-22.4c-4.267-8.533-8.533-11.733-16-9.6c-8.533,3.2-10.667,11.733-10.667,11.733l-7.467-1.067
	c1.067-4.267-2.133-13.867-5.333-17.067c-3.2-3.2,0-7.467,2.133-12.8c1.067-3.2,0-6.4-2.133-8.533c-1.067-2.133-4.267-3.2-6.4-2.133
	c-4.267,2.133-11.733,5.333-14.933,11.733c0,0-6.4-8.533,0-19.2c6.4-10.667,18.133-21.333,51.2-20.267
	C412.303,169.6,422.97,198.4,422.97,198.4z"/>
<path style="fill:#F3F3F3;" d="M415.503,269.867c0,0-1.067,10.667-11.733,19.2C393.103,297.6,384.57,304,384.57,304l18.133,16
	l22.4-37.333L415.503,269.867z"/>
<g>
	<path style="fill:#415A6B;" d="M419.77,275.2c0,0-1.067,2.133-5.333,10.667c-4.267,8.533-12.8,22.4-23.467,50.133
		c-9.6,27.733-11.733,50.133-11.733,68.267s7.467,35.2,7.467,35.2s-6.4-20.267-2.133-39.467c4.267-19.2,51.2-93.867,51.2-93.867
		L428.303,304l8.533-5.333c0,0,1.067-5.333-2.133-8.533C431.503,286.933,419.77,275.2,419.77,275.2z"/>
	<path style="fill:#415A6B;" d="M464.57,512h44.8c6.4-10.667,2.133-138.667-2.133-146.133c-4.267-7.467-3.2-22.4-8.533-43.733
		c-5.333-22.4-22.4-19.2-22.4-19.2s-12.8,7.467-18.133,25.6c-5.333,18.133-5.333,45.867-1.067,56.533
		C459.236,390.4,464.57,512,464.57,512z"/>
</g>
<path style="fill:#EBEAE8;" d="M365.37,288c0,0,3.2,12.8,3.2,17.067s0,13.867,0,13.867s-2.133-1.067-5.333-3.2
	c-3.2-2.133-5.333-3.2-5.333-3.2l-3.2,7.467l1.067-11.733c0-5.333,2.133-10.667,5.333-14.933
	C362.17,291.2,363.236,289.067,365.37,288z"/>
<g>
</g>
<g>
</g>
<g>
</g>
<g>
</g>
<g>
</g>
<g>
</g>
<g>
</g>
<g>
</g>
<g>
</g>
<g>
</g>
<g>
</g>
<g>
</g>
<g>
</g>
<g>
</g>
<g>
</g>
</svg>
