<?xml version="1.0" encoding="utf-8"?>
<!-- Generator: Adobe Illustrator 21.0.0, SVG Export Plug-In . SVG Version: 6.00 Build 0)  -->
<svg version="1.1" id="Layer_1" xmlns="http://www.w3.org/2000/svg" xmlns:xlink="http://www.w3.org/1999/xlink" x="0px" y="0px"
	 viewBox="0 0 689 687" style="enable-background:new 0 0 689 687;" xml:space="preserve">
<style type="text/css">
	.st0{fill:#162E66;}
	.st1{opacity:0.4;}
	.st2{fill:#B8E1FF;}
	.st3{fill:#E3F4FF;}
	.st4{fill:#A4DCFF;}
	.st5{fill:#77CFF2;}
	.st6{fill:#FFFFFF;}
	.st7{fill:#7A32C6;}
	.st8{fill:none;}
	.st9{fill:#60BCEA;}
	.st10{fill:#E2E2E2;}
	.st11{fill:#EFEFEF;}
	.st12{fill:#4BB3DB;}
	.st13{fill:#107F99;}
	.st14{fill:#279FC4;}
	.st15{fill:url(#SVGID_1_);}
	.st16{fill:url(#SVGID_2_);}
	.st17{fill:url(#SVGID_3_);}
	.st18{fill:url(#SVGID_4_);}
	.st19{fill:#FF7694;}
	.st20{fill:#FF5A85;}
	.st21{fill:#FF9FB8;}
	.st22{fill:#49A3DB;}
	.st23{fill:#2F96C9;}
	.st24{fill:#7DD6F9;}
	.st25{fill:#B26ABF;}
	.st26{fill:#CC75DB;}
	.st27{fill:#DA8CE5;}
	.st28{fill:#4CC194;}
	.st29{fill:#33AA79;}
	.st30{fill:#58E0A9;}
	.st31{fill:#A7FCDF;}
	.st32{fill:#81EAC2;}
	.st33{fill:#CAFFEB;}
	.st34{fill:#FCFCFC;}
	.st35{font-family:'ArialMT';}
	.st36{font-size:1.6947px;}
	.st37{fill:#25A57A;}
	.st38{fill:#9CD1D5;}
	.st39{fill:url(#SVGID_5_);}
	.st40{fill:#FFC952;}
	.st41{fill:#FFEA50;}
	.st42{fill:#59BFC1;}
	.st43{fill:#71E7EA;}
	.st44{fill:#FB3972;}
	.st45{fill:#FF6492;}
	.st46{opacity:0.8;fill:#B8E1FF;enable-background:new    ;}
	.st47{fill:#5424A0;}
	.st48{fill:#6426B5;}
	.st49{fill:#8D4BE2;}
	.st50{fill:url(#SVGID_6_);}
	.st51{fill:url(#SVGID_7_);}
	.st52{fill:url(#SVGID_8_);}
	.st53{fill:url(#SVGID_9_);}
	.st54{font-size:2.9555px;}
	.st55{fill:#F5A856;}
	.st56{fill:#FF1F85;}
	.st57{font-size:5.9231px;}
	.st58{font-size:3.4551px;}
	.st59{font-size:3.1202px;}
	.st60{fill:#BCBCBC;}
	.st61{fill:#109B4B;}
	.st62{fill:#2030C4;}
	.st63{fill:url(#SVGID_10_);}
	.st64{fill:#5D4EE6;}
	.st65{font-size:34.7701px;}
	.st66{fill:#EAEAEA;}
	.st67{fill:#313CE3;}
	.st68{fill:url(#SVGID_11_);}
	.st69{font-size:4.6659px;}
	.st70{fill:url(#SVGID_12_);}
	.st71{fill:url(#SVGID_13_);}
	.st72{fill:none;stroke:#B8E1FF;stroke-miterlimit:10;}
	.st73{opacity:0.4;fill:url(#SVGID_14_);enable-background:new    ;}
	.st74{fill:#2D2D2D;}
	.st75{fill:url(#SVGID_15_);}
	.st76{fill:#220296;}
	.st77{fill:#2807A0;}
	.st78{fill:#E8E8E8;}
	.st79{fill:url(#SVGID_16_);}
	.st80{fill:url(#SVGID_17_);}
	.st81{fill:#E8621F;}
	.st82{fill:url(#SVGID_18_);}
	.st83{fill:url(#SVGID_19_);}
	.st84{fill:url(#SVGID_20_);}
	.st85{fill:#FEC7A9;}
	.st86{fill:url(#SVGID_21_);}
	.st87{fill:#F9BB9D;}
	.st88{fill:url(#SVGID_22_);}
	.st89{fill:url(#SVGID_23_);}
	.st90{fill:#220689;}
	.st91{fill:url(#SVGID_24_);}
	.st92{fill:#1F0382;}
	.st93{fill:#BF2BB5;}
	.st94{fill:url(#SVGID_25_);}
	.st95{fill:#F2E941;}
	.st96{fill:#6B79FC;}
	.st97{fill:#F438B1;}
	.st98{fill:url(#SVGID_26_);}
	.st99{fill:url(#SVGID_27_);}
	.st100{opacity:0.4;fill:url(#SVGID_28_);enable-background:new    ;}
	.st101{fill:#E8A318;}
	.st102{fill:#FFDD15;}
	.st103{fill:url(#SVGID_29_);}
	.st104{fill:#D8D8D8;}
</style>
<g>
	<ellipse class="st0" cx="344.5" cy="436" rx="324.3" ry="219"/>
	<g>
		<g>
			<g class="st1">
				<polygon class="st2" points="623.1,326.9 599.6,358.9 600.7,358.9 624.2,326.9 598.2,299.2 624.4,276.5 604.2,260.8 
					618.7,238.5 618.8,238.3 608.8,219.8 608,220.2 617.8,238.2 603,261 623,276.5 596.9,299.1 				"/>
			</g>
			<g>
				<polygon class="st3" points="600.7,257.9 595.6,265.6 604.8,266.1 609.8,258.4 				"/>
				<polygon class="st4" points="597.1,250.8 592.1,258.5 595.6,265.6 600.7,257.9 				"/>
				<polygon class="st5" points="597.1,250.8 606.3,251.4 609.8,258.4 600.7,257.9 				"/>
			</g>
			<g>
				<polygon class="st3" points="607.6,215.5 602.6,223.2 611.7,223.7 616.8,216 				"/>
				<polygon class="st4" points="604,208.4 599,216.1 602.6,223.2 607.6,215.5 				"/>
				<polygon class="st5" points="604,208.4 613.2,208.9 616.8,216 607.6,215.5 				"/>
			</g>
			<g>
				<polygon class="st3" points="619.2,239.6 610,239.9 614.9,247.7 624.1,247.4 				"/>
				<polygon class="st4" points="622.9,232.6 613.8,232.9 610,239.9 619.2,239.6 				"/>
				<polygon class="st5" points="622.9,232.6 627.8,240.4 624.1,247.4 619.2,239.6 				"/>
			</g>
			<g>
				<polygon class="st3" points="598.9,298.5 589.8,298.8 594.6,306.6 603.8,306.3 				"/>
				<polygon class="st4" points="602.7,291.5 593.5,291.8 589.8,298.8 599,298.5 				"/>
				<polygon class="st5" points="602.7,291.5 607.5,299.3 603.8,306.3 598.9,298.5 				"/>
			</g>
			<g>
				<polygon class="st3" points="623.3,326.8 614.1,327.1 619,334.9 628.2,334.6 				"/>
				<polygon class="st4" points="627.1,319.9 617.9,320.2 614.1,327.1 623.3,326.8 				"/>
				<polygon class="st5" points="627,319.9 631.9,327.7 628.2,334.6 623.3,326.8 				"/>
			</g>
			<g>
				<polygon class="st3" points="623.9,277.8 617.5,284.5 626.5,286.7 632.8,280 				"/>
				<polygon class="st4" points="621.7,270.3 615.3,276.9 617.5,284.5 623.9,277.8 				"/>
				<polygon class="st5" points="621.7,270.3 630.6,272.5 632.8,280 623.9,277.8 				"/>
			</g>
		</g>
		<g>
			<g class="st1">
				<polygon class="st2" points="363,160.7 339.5,192.6 340.6,192.6 364.2,160.6 338.1,132.9 364.3,110.2 344.1,94.6 358.6,72.2 
					358.8,72 348.7,53.5 348,53.9 357.8,72 342.9,94.8 362.9,110.3 336.9,132.9 				"/>
			</g>
			<g>
				<polygon class="st3" points="340.6,91.6 335.6,99.3 344.7,99.8 349.8,92.1 				"/>
				<polygon class="st4" points="337,84.6 332,92.3 335.6,99.3 340.6,91.6 				"/>
				<polygon class="st5" points="337,84.6 346.2,85.1 349.8,92.1 340.6,91.6 				"/>
			</g>
			<g>
				<polygon class="st3" points="347.5,49.2 342.5,56.9 351.7,57.4 356.7,49.7 				"/>
				<polygon class="st4" points="344,42.2 338.9,49.9 342.5,56.9 347.5,49.2 				"/>
				<polygon class="st5" points="344,42.2 353.1,42.7 356.7,49.7 347.5,49.2 				"/>
			</g>
			<g>
				<polygon class="st3" points="359.1,73.3 350,73.6 354.8,81.4 364,81.1 				"/>
				<polygon class="st4" points="362.9,66.4 353.7,66.7 350,73.6 359.2,73.3 				"/>
				<polygon class="st5" points="362.9,66.4 367.7,74.2 364,81.1 359.1,73.3 				"/>
			</g>
			<g>
				<polygon class="st3" points="338.9,132.2 329.7,132.6 334.5,140.4 343.7,140.1 				"/>
				<polygon class="st4" points="342.6,125.3 333.4,125.6 329.7,132.6 338.9,132.3 				"/>
				<polygon class="st5" points="342.6,125.3 347.4,133.1 343.7,140.1 338.9,132.2 				"/>
			</g>
			<g>
				<polygon class="st3" points="363.3,160.6 354.1,160.9 358.9,168.7 368.1,168.4 				"/>
				<polygon class="st4" points="367,153.6 357.8,153.9 354.1,160.9 363.3,160.6 				"/>
				<polygon class="st5" points="367,153.6 371.8,161.4 368.1,168.4 363.3,160.6 				"/>
			</g>
			<g>
				<polygon class="st3" points="363.8,111.6 357.5,118.2 366.4,120.4 372.7,113.8 				"/>
				<polygon class="st4" points="361.6,104 355.3,110.6 357.5,118.2 363.8,111.6 				"/>
				<polygon class="st5" points="361.6,104 370.5,106.2 372.7,113.8 363.8,111.6 				"/>
			</g>
		</g>
		<g>
			<g>
				<g>
					<g>
						<polygon class="st3" points="398.5,155.9 401,157.4 398.7,158.5 						"/>
						<polygon class="st5" points="321.2,253.5 318.7,252 320.9,250.5 						"/>
						<g>
							<g>
								<path class="st6" d="M398.9,204.6c0,0.9-0.7,2-1.6,2.6L320,251.8c-0.9,0.5-1.6,0.2-1.6-0.7v-47.9c0-0.9,0.7-2,1.6-2.6
									l77.3-44.6c0.9-0.5,1.6-0.2,1.6,0.7V204.6z"/>
								<path class="st5" d="M318.3,203.2v47.9c0,0.9,0.7,1.2,1.6,0.7l41.6-24l-42.8-26C318.5,202.2,318.3,202.7,318.3,203.2z"/>
								<path class="st3" d="M397.2,156l-77.3,44.6c-0.4,0.3-0.8,0.7-1.1,1.1l42.8,26l35.7-20.6c0.9-0.5,1.6-1.7,1.6-2.6v-47.9
									C398.9,155.8,398.1,155.5,397.2,156z"/>
								<path class="st4" d="M401.3,206.2c0,0.9-0.7,2-1.6,2.6l-77.3,44.6c-0.9,0.5-1.6,0.2-1.6-0.7v-47.9c0-0.9,0.7-2,1.6-2.6
									l77.3-44.6c0.9-0.5,1.6-0.2,1.6,0.7L401.3,206.2L401.3,206.2z"/>
								<polygon class="st7" points="398.6,203.7 323.5,247.1 323.5,207.2 398.6,163.8 								"/>
								<polygon class="st3" points="397.2,164.6 397.2,202.9 323.5,245.5 323.5,247.1 398.6,203.7 398.6,163.8 								"/>
								<line class="st8" x1="398.6" y1="163.8" x2="398.6" y2="203.7"/>
								<path class="st6" d="M362.4,182c0,0.7-0.6,1.7-1.3,2.1c-0.7,0.4-1.3,0.2-1.3-0.6c0-0.7,0.6-1.7,1.3-2.1
									C361.8,181,362.4,181.3,362.4,182z"/>
							</g>
						</g>
					</g>
					<g>
						<polygon class="st9" points="443.1,234.3 445.5,235.7 445.5,232.9 						"/>
						<polygon class="st10" points="322.3,256.7 322.3,254 326.1,254 						"/>
						<g>
							<path class="st11" d="M364.4,281.4c0.8,0.4,2.1,0.4,3-0.1l77.3-44.6c0.9-0.5,1-1.3,0.2-1.8l-41.5-24c-0.8-0.4-2.1-0.4-3,0.1
								l-77.3,44.6c-0.9,0.5-1,1.3-0.2,1.8L364.4,281.4z"/>
							<path class="st9" d="M445,234.9l-41.5-24c-0.8-0.4-2.1-0.4-3,0.1l-34.7,20v50.6c0.6,0,1.2-0.1,1.7-0.4l77.3-44.6
								C445.6,236.1,445.7,235.4,445,234.9z"/>
							<path class="st5" d="M323.1,255.7c-0.9,0.5-1,1.3-0.2,1.8l41.5,24c0.4,0.2,0.9,0.3,1.4,0.3v-50.6L323.1,255.7z"/>
							<path class="st3" d="M364.4,278.6c0.8,0.4,2.1,0.4,3-0.1l77.3-44.6c0.9-0.5,1-1.3,0.2-1.8l-41.5-24c-0.8-0.4-2.1-0.4-3,0.1
								l-77.3,44.6c-0.9,0.5-1,1.3-0.2,1.8L364.4,278.6z"/>
							<g>
								<path class="st12" d="M413.1,246.5l1.6,0.9c0.5,0.3,0.4,0.8-0.1,1.1l-21.8,12.6c-0.6,0.3-1.4,0.4-1.9,0.1l-1.6-0.9
									L413.1,246.5z"/>
								<path class="st12" d="M388.6,259.9l-8.5-4.9c-0.5-0.3-0.4-0.8,0.1-1.1l21.8-12.6c0.6-0.3,1.4-0.4,1.9-0.1l8.5,4.9
									L388.6,259.9z"/>
								<g>
									<polygon class="st12" points="401.5,219.9 407.7,216.3 403.2,213.7 397,217.3 									"/>
									<polygon class="st12" points="403.1,225.7 413.5,219.6 409.1,217.1 398.7,223.1 									"/>
									<polygon class="st12" points="395,230.3 401.6,226.5 397.1,224 390.6,227.7 									"/>
									<polygon class="st12" points="386.9,235 393.4,231.2 389,228.7 382.5,232.4 									"/>
									<polygon class="st12" points="378.8,239.7 385.3,235.9 380.8,233.4 374.3,237.1 									"/>
									<polygon class="st12" points="370.6,244.4 377.1,240.6 372.7,238.1 366.2,241.8 									"/>
									<polygon class="st12" points="362.5,249.1 369,245.3 364.6,242.8 358,246.5 									"/>
									<polygon class="st12" points="354.3,253.8 360.9,250 356.4,247.5 349.9,251.2 									"/>
									<polygon class="st12" points="342.8,260.5 352.7,254.7 348.3,252.2 338.3,257.9 									"/>
									<polygon class="st12" points="404.7,231.4 419.3,223 414.8,220.4 400.3,228.8 									"/>
									<polygon class="st12" points="396.6,236.1 403.2,232.3 398.7,229.7 392.2,233.5 									"/>
									<polygon class="st12" points="388.5,240.8 395,237 390.6,234.4 384,238.2 									"/>
									<polygon class="st12" points="380.3,245.5 386.9,241.7 382.4,239.1 375.9,242.9 									"/>
									<polygon class="st12" points="372.2,250.2 378.7,246.4 374.3,243.8 367.8,247.6 									"/>
									<polygon class="st12" points="364.1,254.9 370.6,251.1 366.1,248.5 359.6,252.3 									"/>
									<polygon class="st12" points="348.5,263.8 362.4,255.8 358,253.2 344.1,261.3 									"/>
									<polygon class="st12" points="378,253.5 409,235.6 404.5,233.1 373.6,251 									"/>
									<polygon class="st12" points="393.4,224.5 399.6,220.9 395.2,218.4 389,222 									"/>
									<polygon class="st12" points="418.9,229.9 425.1,226.3 420.7,223.8 414.4,227.4 									"/>
									<polygon class="st12" points="410.8,234.6 417,231 412.6,228.4 406.4,232 									"/>
									<polygon class="st12" points="385.3,229.2 391.5,225.6 387.1,223 380.9,226.6 									"/>
									<polygon class="st12" points="377.3,233.8 383.5,230.2 379,227.7 372.8,231.3 									"/>
									<polygon class="st12" points="369.2,238.5 375.4,234.9 371,232.3 364.8,235.9 									"/>
									<polygon class="st12" points="361.1,243.2 367.3,239.6 362.9,237 356.7,240.6 									"/>
									<polygon class="st12" points="353.1,247.8 359.3,244.2 354.8,241.7 348.6,245.2 									"/>
									<polygon class="st12" points="345,252.5 351.2,248.9 346.8,246.3 340.6,249.9 									"/>
									<polygon class="st12" points="336.9,257.1 343.1,253.5 338.7,251 332.5,254.6 									"/>
									<polygon class="st12" points="362.1,262.7 368.3,259.1 363.9,256.5 357.7,260.1 									"/>
									<polygon class="st12" points="354.3,267.2 360.6,263.6 356.1,261 349.9,264.6 									"/>
								</g>
							</g>
						</g>
						<g>
							<polygon class="st13" points="357.8,275.6 362.5,278.3 362.5,279.8 357.8,277.1 							"/>
							<polygon class="st14" points="359.1,276.3 362.5,278.3 362.5,279.8 357.8,277.1 							"/>
						</g>
						<g>
							<polygon class="st13" points="324.2,256.1 328.8,258.8 328.8,260.3 324.2,257.6 							"/>
							<polygon class="st14" points="325.5,256.9 328.8,258.8 328.8,260.3 324.2,257.6 							"/>
						</g>
						<g>
							<polygon class="st13" points="329.6,259.2 334.3,261.9 334.3,263.5 329.6,260.8 							"/>
							<polygon class="st14" points="330.9,260 334.3,261.9 334.3,263.5 329.6,260.8 							"/>
						</g>
					</g>
				</g>
			</g>
			<g>
				
					<linearGradient id="SVGID_1_" gradientUnits="userSpaceOnUse" x1="485.7973" y1="493.6645" x2="485.7973" y2="512.0121" gradientTransform="matrix(-1 0 0 -1 873.9473 688)">
					<stop  offset="0" style="stop-color:#FFFFFF"/>
					<stop  offset="1" style="stop-color:#FFFFFF;stop-opacity:0"/>
				</linearGradient>
				<rect x="385.7" y="176" class="st15" width="4.9" height="18.3"/>
				
					<linearGradient id="SVGID_2_" gradientUnits="userSpaceOnUse" x1="491.3973" y1="491.3" x2="491.3973" y2="509.1" gradientTransform="matrix(-1 0 0 -1 873.9473 688)">
					<stop  offset="0" style="stop-color:#FFFFFF"/>
					<stop  offset="1" style="stop-color:#FFFFFF;stop-opacity:0"/>
				</linearGradient>
				<rect x="380.1" y="178.9" class="st16" width="4.9" height="17.8"/>
				
					<linearGradient id="SVGID_3_" gradientUnits="userSpaceOnUse" x1="496.9973" y1="488.931" x2="496.9973" y2="505.731" gradientTransform="matrix(-1 0 0 -1 873.9473 688)">
					<stop  offset="0" style="stop-color:#FFFFFF"/>
					<stop  offset="1" style="stop-color:#FFFFFF;stop-opacity:0"/>
				</linearGradient>
				<rect x="374.5" y="182.3" class="st17" width="4.9" height="16.8"/>
				
					<linearGradient id="SVGID_4_" gradientUnits="userSpaceOnUse" x1="502.6473" y1="486.5658" x2="502.6473" y2="502.7658" gradientTransform="matrix(-1 0 0 -1 873.9473 688)">
					<stop  offset="0" style="stop-color:#FFFFFF"/>
					<stop  offset="1" style="stop-color:#FFFFFF;stop-opacity:0"/>
				</linearGradient>
				<polygon class="st18" points="368.9,185.2 373.7,185.7 373.7,201.4 368.9,201.4 				"/>
				<g>
					<g>
						<g>
							<g>
								<polygon class="st19" points="388.2,201.7 390.6,200.3 390.6,192.4 388.2,193.8 								"/>
								<polygon class="st20" points="385.7,200.3 388.2,201.7 388.2,193.8 385.7,192.4 								"/>
							</g>
							<polygon class="st21" points="388.2,193.8 390.6,192.4 388.2,191 385.7,192.4 							"/>
						</g>
						<g>
							<g>
								<g>
									<polygon class="st22" points="382.5,204.9 385,203.5 385,191.6 382.5,193 									"/>
									<polygon class="st23" points="380.1,203.5 382.5,204.9 382.5,193 380.1,191.6 									"/>
								</g>
								<polygon class="st24" points="382.5,193 385,191.6 382.5,190.2 380.1,191.6 								"/>
							</g>
						</g>
						<g>
							<g>
								<polygon class="st25" points="376.9,208.2 379.4,206.8 379.4,198.8 376.9,200.2 								"/>
								<polygon class="st26" points="374.5,206.8 376.9,208.2 376.9,200.2 374.5,198.8 								"/>
							</g>
							<polygon class="st27" points="376.9,200.2 379.4,198.8 376.9,197.4 374.5,198.8 							"/>
						</g>
						<g>
							<g>
								<polygon class="st28" points="376.9,208.2 379.4,206.8 379.4,198.9 376.9,200.3 								"/>
								<polygon class="st29" points="374.5,206.8 376.9,208.2 376.9,200.3 374.5,198.9 								"/>
							</g>
							<polygon class="st30" points="376.9,200.3 379.4,198.9 376.9,197.5 374.5,198.9 							"/>
						</g>
						<g>
							<g>
								<polygon class="st31" points="371.3,211.4 373.7,210 373.7,195.2 371.3,196.6 								"/>
								<polygon class="st32" points="368.9,210 371.3,211.4 371.3,196.6 368.9,195.2 								"/>
							</g>
							<polygon class="st33" points="371.3,196.6 373.7,195.2 371.3,193.8 368.9,195.2 							"/>
						</g>
					</g>
					<text transform="matrix(-1.0137 0.5853 0.866 0.5 393.6219 201.6154)" class="st34 st35 st36">15%</text>
					<text transform="matrix(-1.0137 0.5853 0.866 0.5 387.9213 204.8921)" class="st34 st35 st36">25%</text>
					<text transform="matrix(-1.0137 0.5853 0.866 0.5 382.2233 208.1704)" class="st34 st35 st36">15%</text>
					<text transform="matrix(-1.0137 0.5853 0.866 0.5 376.5224 211.4484)" class="st34 st35 st36">45%</text>
				</g>
			</g>
		</g>
		<g>
			<g>
				<g>
					<g>
						<g>
							<path class="st37" d="M118,434.7v-5.2h-2.3v5.2H88.6l-20.8-12c-3.5,2-5.9,4.4-7.3,6.9l-1.4-1.3v6.3c0,4.4,2.9,8.7,8.6,12
								s13.3,5,20.8,5c7.5,0,15-1.7,20.8-5C115,443.3,117.8,439,118,434.7L118,434.7L118,434.7C118,434.7,118,434.7,118,434.7
								L118,434.7z"/>
							<path class="st38" d="M109.4,422.7c-11.5-6.6-30.1-6.6-41.5,0l20.8,12L109.4,422.7z"/>
						</g>
						
							<linearGradient id="SVGID_5_" gradientUnits="userSpaceOnUse" x1="59.275" y1="259.675" x2="118.0343" y2="259.675" gradientTransform="matrix(1 0 0 -1 0 688)">
							<stop  offset="0" style="stop-color:#4CC194"/>
							<stop  offset="0.2836" style="stop-color:#4CD08B"/>
							<stop  offset="0.6803" style="stop-color:#4CE083"/>
							<stop  offset="1" style="stop-color:#4CE580"/>
						</linearGradient>
						<path class="st39" d="M109.4,416.3c-11.5-6.6-30.1-6.6-41.5,0c-11.5,6.6-11.5,17.4,0,24c5.7,3.3,13.3,5,20.8,5
							c7.5,0,15-1.7,20.8-5c5.7-3.3,8.6-7.7,8.6-12C118,424,115.1,419.6,109.4,416.3z"/>
					</g>
				</g>
				<g>
					<g>
						<g>
							<path class="st40" d="M114.8,426.5v-4.7h-2v4.7H88.6l-18.5-10.7c-3.1,1.8-5.3,3.9-6.5,6.2l-1.2-1.2v5.7
								c0,3.9,2.5,7.8,7.7,10.7c5.1,3,11.8,4.4,18.5,4.4s13.4-1.5,18.5-4.4s7.6-6.7,7.7-10.6l0,0L114.8,426.5
								C114.8,426.5,114.8,426.5,114.8,426.5L114.8,426.5z"/>
							<path class="st38" d="M107.1,415.8c-10.2-5.9-26.8-5.9-37.1,0l18.5,10.7L107.1,415.8z"/>
						</g>
						<path class="st41" d="M107.1,410.1c-10.2-5.9-26.8-5.9-37.1,0c-10.2,5.9-10.2,15.5,0,21.4c5.1,3,11.8,4.4,18.5,4.4
							s13.4-1.5,18.5-4.4c5.1-3,7.7-6.8,7.7-10.7C114.8,416.9,112.3,413,107.1,410.1z"/>
					</g>
				</g>
				<g>
					<g>
						<g>
							<path class="st42" d="M109.8,420.2v-5.4l-1.6,1.7v1.6l-19.5,2.2l-15-8.6c-2.5,1.4-4.2,0.9-5.2,2.8l-1,0.4v5.5
								c0,3.1,2.1,6.3,6.2,8.7c4.1,2.4,9.6,3.6,15,3.6s10.8-1.2,15-3.6C107.7,426.5,109.7,423.4,109.8,420.2L109.8,420.2
								L109.8,420.2L109.8,420.2L109.8,420.2z"/>
							<path class="st38" d="M103.6,411.6c-8.3-4.8-21.7-4.8-30,0l15,8.6L103.6,411.6z"/>
						</g>
						<path class="st43" d="M103.6,406.1c-8.3-4.8-21.7-4.8-30,0s-8.3,12.5,0,17.3c4.1,2.4,9.6,3.6,15,3.6s10.8-1.2,15-3.6
							c4.1-2.4,6.2-5.5,6.2-8.6C109.8,411.6,107.7,408.4,103.6,406.1z"/>
					</g>
				</g>
				<g>
					<g>
						<g>
							<path class="st44" d="M105.8,413.8v-5l-1.3,2v1.2L89,413.8l-12-6.9c-2,1.2-3.4,0.7-4.2,2.2l-0.8-0.3v5c0,2.5,1.6,5,4.9,6.9
								s7.6,2.9,11.9,2.9s8.6-1,11.9-2.9C104.2,418.8,105.8,416.4,105.8,413.8L105.8,413.8L105.8,413.8L105.8,413.8L105.8,413.8z"/>
							<path class="st38" d="M100.9,406.9c-6.6-3.8-17.3-3.8-23.9,0l11.9,6.9L100.9,406.9z"/>
						</g>
						<path class="st45" d="M100.9,401.9c-6.6-3.8-17.3-3.8-23.9,0c-6.6,3.8-6.6,10,0,13.8c3.3,1.9,7.6,2.9,11.9,2.9s8.6-1,11.9-2.9
							s4.9-4.4,4.9-6.9S104.2,403.8,100.9,401.9z"/>
					</g>
				</g>
			</g>
		</g>
		<polygon class="st46" points="431.5,144.2 431.5,318.2 531.4,260.5 531.4,86.5 		"/>
		<g>
			<g>
				<polygon class="st47" points="617.9,378.4 532.7,329.3 532.7,317 634.4,356.6 634.4,368.8 				"/>
				<polygon class="st48" points="617.9,378.4 532.7,329.3 532.7,317 617.9,366.2 				"/>
				<polygon class="st49" points="617.9,366.2 532.7,317 549.3,307.5 634.4,356.6 				"/>
			</g>
			<g>
				<polygon class="st47" points="594.7,391.4 509.6,342.3 509.6,330.1 611.3,369.7 611.3,381.9 				"/>
				<polygon class="st48" points="594.7,391.4 509.6,342.3 509.6,330.1 594.7,379.2 				"/>
				<polygon class="st49" points="594.7,379.2 509.6,330.1 526.1,320.5 611.3,369.7 				"/>
			</g>
			<g>
				<polygon class="st47" points="571.6,404.5 486.4,355.3 486.4,343.1 588.2,382.7 588.2,394.9 				"/>
				<polygon class="st48" points="571.6,404.5 486.4,355.3 486.4,343.1 571.6,392.2 				"/>
				<polygon class="st49" points="571.6,392.2 486.4,343.1 503,333.5 588.2,382.7 				"/>
			</g>
			<g>
				<polygon class="st47" points="548.5,417.5 463.3,368.3 463.3,356.1 565,395.7 565,407.9 				"/>
				<polygon class="st48" points="548.5,417.5 463.3,368.3 463.3,356.1 548.5,405.3 				"/>
				<polygon class="st49" points="548.5,405.3 463.3,356.1 479.9,346.6 565,395.7 				"/>
			</g>
			<g>
				<polygon class="st47" points="525.3,430.5 440.2,381.4 440.2,369.2 541.9,408.7 541.9,421 				"/>
				<polygon class="st48" points="525.3,430.5 440.2,381.4 440.2,369.2 525.3,418.3 				"/>
				<polygon class="st49" points="525.3,418.3 440.2,369.2 456.7,359.6 541.9,408.7 				"/>
			</g>
		</g>
		<g>
			<g>
				<polygon class="st3" points="171.5,298.7 148.8,285.6 171.5,272.5 194.2,285.6 				"/>
				<polygon class="st4" points="171.5,311.7 148.8,298.6 148.8,285.6 171.5,298.7 				"/>
				<polygon class="st5" points="171.5,311.7 194.2,298.6 194.2,285.6 171.5,298.7 				"/>
			</g>
			<g>
				<polygon class="st3" points="144.3,314.6 121.6,301.5 144.3,288.4 167,301.5 				"/>
				<polygon class="st4" points="144.4,327.6 121.6,314.5 121.6,301.5 144.4,314.6 				"/>
				<polygon class="st5" points="144.3,327.6 167,314.5 167,301.5 144.3,314.6 				"/>
			</g>
			<g>
				<polygon class="st3" points="117.1,330.4 94.4,317.3 117.1,304.2 139.8,317.3 				"/>
				<polygon class="st4" points="117.2,343.4 94.4,330.3 94.4,317.3 117.2,330.4 				"/>
				<polygon class="st5" points="117.1,343.4 139.9,330.3 139.9,317.3 117.1,330.4 				"/>
			</g>
		</g>
		<g>
			<g>
				<polygon class="st3" points="77.3,355.1 100,342 77.3,328.9 54.6,342 				"/>
				<polygon class="st4" points="77.3,368.1 100,355 100,342 77.3,355.1 				"/>
				<polygon class="st5" points="77.3,368.1 54.6,355 54.6,342 77.3,355.1 				"/>
			</g>
			<g>
				<polygon class="st3" points="104.5,370.9 127.2,357.8 104.5,344.7 81.8,357.8 				"/>
				<polygon class="st4" points="104.5,383.9 127.2,370.8 127.2,357.8 104.5,370.9 				"/>
				<polygon class="st5" points="104.5,383.9 81.8,370.8 81.8,357.8 104.5,370.9 				"/>
			</g>
			<g>
				<polygon class="st3" points="131.7,386.8 154.4,373.7 131.7,360.5 109,373.7 				"/>
				<polygon class="st4" points="131.6,399.8 154.4,386.7 154.4,373.7 131.6,386.8 				"/>
				<polygon class="st5" points="131.7,399.8 108.9,386.7 108.9,373.7 131.7,386.8 				"/>
			</g>
		</g>
		<g>
			<g>
				<g>
					<g>
						<polygon class="st3" points="204.3,206.3 200,208.9 204.1,210.8 						"/>
						<polygon class="st5" points="339.1,376.6 343.5,373.9 339.7,371.3 						"/>
						<g>
							<g>
								<path class="st6" d="M203.7,291.3c0,1.6,1.3,3.6,2.8,4.5l134.9,77.9c1.6,0.9,2.8,0.4,2.8-1.2v-83.6c0-1.6-1.3-3.6-2.8-4.5
									l-134.9-77.9c-1.6-0.9-2.8-0.4-2.8,1.2V291.3z"/>
								<path class="st5" d="M344.2,288.8v83.6c0,1.6-1.3,2.1-2.8,1.2l-72.6-41.9l74.6-45.4C343.9,287.1,344.2,288,344.2,288.8z"/>
								<path class="st3" d="M206.5,206.5l134.9,77.9c0.8,0.4,1.5,1.1,2,1.9l-74.6,45.4l-62.2-35.9c-1.6-0.9-2.8-2.9-2.8-4.5v-83.6
									C203.7,206.1,205,205.6,206.5,206.5z"/>
								<path class="st4" d="M199.4,294c0,1.6,1.3,3.6,2.8,4.5l134.9,77.9c1.6,0.9,2.8,0.4,2.8-1.2v-83.6c0-1.6-1.3-3.6-2.8-4.5
									l-134.9-77.9c-1.6-0.9-2.8-0.4-2.8,1.2L199.4,294L199.4,294z"/>
								<polygon class="st7" points="204.1,289.7 335.2,365.4 335.2,295.7 204.1,220.1 								"/>
								<polygon class="st3" points="206.6,221.5 206.6,288.3 335.2,362.5 335.2,365.4 204.1,289.7 204.1,220.1 								"/>
								<line class="st8" x1="204.1" y1="220.1" x2="204.1" y2="289.7"/>
								<path class="st6" d="M267.3,251.9c0,1.3,1,2.9,2.3,3.6s2.3,0.3,2.3-1s-1-2.9-2.3-3.6C268.4,250.2,267.3,250.6,267.3,251.9z"
									/>
							</g>
						</g>
					</g>
					<g>
						<polygon class="st9" points="126.5,343 122.4,345.4 122.4,340.6 						"/>
						<polygon class="st10" points="337.2,382.1 337.2,377.3 330.6,377.5 						"/>
						<g>
							<path class="st11" d="M263.8,425.2c-1.4,0.8-3.7,0.7-5.3-0.2l-134.9-77.9c-1.6-0.9-1.7-2.3-0.4-3.1l72.4-41.8
								c1.4-0.8,3.7-0.7,5.3,0.2l134.9,77.9c1.6,0.9,1.7,2.3,0.4,3.1L263.8,425.2z"/>
							<path class="st9" d="M123.3,344.1l72.4-41.8c1.4-0.8,3.7-0.7,5.3,0.2l60.5,34.9v88.3c-1,0-2.1-0.3-2.9-0.7l-134.9-77.9
								C122.1,346.3,122,344.9,123.3,344.1z"/>
							<path class="st5" d="M335.9,380.4c1.6,0.9,1.7,2.3,0.4,3.1l-72.4,41.8c-0.6,0.4-1.5,0.5-2.4,0.5v-88.3L335.9,380.4z"/>
							<path class="st3" d="M263.8,420.4c-1.4,0.8-3.7,0.7-5.3-0.2l-134.9-77.9c-1.6-0.9-1.7-2.3-0.4-3.1l72.4-41.8
								c1.4-0.8,3.7-0.7,5.3,0.2l134.9,77.9c1.6,0.9,1.7,2.3,0.4,3.1L263.8,420.4z"/>
							<g>
								<path class="st12" d="M178.9,364.3L176,366c-0.8,0.5-0.7,1.3,0.2,1.9l38.1,22c1,0.6,2.4,0.6,3.2,0.1l2.8-1.6L178.9,364.3z"
									/>
								<path class="st12" d="M221.6,387.6l14.9-8.6c0.8-0.5,0.7-1.3-0.2-1.9l-38.1-22c-1-0.6-2.4-0.6-3.2-0.1l-14.9,8.6
									L221.6,387.6z"/>
								<g>
									<polygon class="st12" points="199.2,317.9 188.3,311.6 196.1,307.1 206.9,313.4 									"/>
									<polygon class="st12" points="196.3,328 178.2,317.5 185.9,313 204.1,323.5 									"/>
									<polygon class="st12" points="210.4,336.1 199,329.5 206.7,325 218.1,331.6 									"/>
									<polygon class="st12" points="224.6,344.3 213.2,337.7 220.9,333.2 232.3,339.8 									"/>
									<polygon class="st12" points="238.8,352.5 227.4,345.9 235.1,341.4 246.5,348 									"/>
									<polygon class="st12" points="253,360.7 241.6,354.1 249.3,349.6 260.7,356.2 									"/>
									<polygon class="st12" points="267.2,368.9 255.8,362.3 263.5,357.8 274.9,364.4 									"/>
									<polygon class="st12" points="281.4,377.1 270,370.5 277.7,366 289.1,372.6 									"/>
									<polygon class="st12" points="301.5,388.7 284.2,378.7 291.9,374.2 309.3,384.3 									"/>
									<polygon class="st12" points="193.5,338 168.1,323.3 175.8,318.8 201.3,333.5 									"/>
									<polygon class="st12" points="207.6,346.1 196.2,339.6 204,335.1 215.4,341.7 									"/>
									<polygon class="st12" points="221.8,354.3 210.4,347.8 218.2,343.3 229.6,349.9 									"/>
									<polygon class="st12" points="236,362.5 224.6,355.9 232.4,351.5 243.8,358.1 									"/>
									<polygon class="st12" points="250.2,370.7 238.8,364.1 246.6,359.7 258,366.3 									"/>
									<polygon class="st12" points="264.4,378.9 253,372.3 260.8,367.9 272.2,374.4 									"/>
									<polygon class="st12" points="291.5,394.5 267.2,380.5 275,376.1 299.2,390.1 									"/>
									<polygon class="st12" points="240.1,376.6 186.1,345.4 193.8,340.9 247.8,372.1 									"/>
									<polygon class="st12" points="213.2,326 202.4,319.7 210.1,315.3 221,321.5 									"/>
									<polygon class="st12" points="168.8,335.4 158,329.2 165.7,324.7 176.5,330.9 									"/>
									<polygon class="st12" points="182.9,343.5 172,337.3 179.8,332.8 190.6,339.1 									"/>
									<polygon class="st12" points="227.3,334.1 216.5,327.9 224.2,323.4 235.1,329.6 									"/>
									<polygon class="st12" points="241.4,342.2 230.5,336 238.3,331.5 249.1,337.8 									"/>
									<polygon class="st12" points="255.4,350.4 244.6,344.1 252.4,339.6 263.2,345.9 									"/>
									<polygon class="st12" points="269.5,358.5 258.7,352.2 266.4,347.8 277.3,354 									"/>
									<polygon class="st12" points="283.6,366.6 272.7,360.4 280.5,355.9 291.3,362.1 									"/>
									<polygon class="st12" points="297.6,374.7 286.8,368.5 294.6,364 305.4,370.3 									"/>
									<polygon class="st12" points="311.7,382.9 300.9,376.6 308.6,372.1 319.5,378.4 									"/>
									<polygon class="st12" points="267.8,392.6 256.9,386.3 264.7,381.8 275.5,388.1 									"/>
									<polygon class="st12" points="281.3,400.4 270.5,394.1 278.2,389.7 289.1,395.9 									"/>
								</g>
							</g>
						</g>
						<g>
							<polygon class="st13" points="275.2,415 267.1,419.7 267.1,422.4 275.2,417.7 							"/>
							<polygon class="st14" points="273,416.3 267.1,419.7 267.1,422.4 275.2,417.7 							"/>
						</g>
						<g>
							<polygon class="st13" points="333.9,381.1 325.8,385.8 325.8,388.5 333.9,383.8 							"/>
							<polygon class="st14" points="331.7,382.4 325.8,385.8 325.8,388.5 333.9,383.8 							"/>
						</g>
						<g>
							<polygon class="st13" points="324.5,386.5 316.4,391.2 316.4,393.9 324.5,389.2 							"/>
							<polygon class="st14" points="322.2,387.8 316.4,391.2 316.4,393.9 324.5,389.2 							"/>
						</g>
					</g>
				</g>
			</g>
			<g>
				
					<linearGradient id="SVGID_6_" gradientUnits="userSpaceOnUse" x1="222.35" y1="414.6421" x2="222.35" y2="446.6421" gradientTransform="matrix(1 0 0 -1 0 688)">
					<stop  offset="0" style="stop-color:#FFFFFF"/>
					<stop  offset="1" style="stop-color:#FFFFFF;stop-opacity:0"/>
				</linearGradient>
				<rect x="218.1" y="241.4" class="st50" width="8.5" height="32"/>
				
					<linearGradient id="SVGID_7_" gradientUnits="userSpaceOnUse" x1="232.15" y1="410.5" x2="232.15" y2="441.5" gradientTransform="matrix(1 0 0 -1 0 688)">
					<stop  offset="0" style="stop-color:#FFFFFF"/>
					<stop  offset="1" style="stop-color:#FFFFFF;stop-opacity:0"/>
				</linearGradient>
				<rect x="227.9" y="246.5" class="st51" width="8.5" height="31"/>
				
					<linearGradient id="SVGID_8_" gradientUnits="userSpaceOnUse" x1="241.95" y1="406.4" x2="241.95" y2="435.7" gradientTransform="matrix(1 0 0 -1 0 688)">
					<stop  offset="0" style="stop-color:#FFFFFF"/>
					<stop  offset="1" style="stop-color:#FFFFFF;stop-opacity:0"/>
				</linearGradient>
				<rect x="237.7" y="252.3" class="st52" width="8.5" height="29.3"/>
				
					<linearGradient id="SVGID_9_" gradientUnits="userSpaceOnUse" x1="251.75" y1="402.2621" x2="251.75" y2="430.5418" gradientTransform="matrix(1 0 0 -1 0 688)">
					<stop  offset="0" style="stop-color:#FFFFFF"/>
					<stop  offset="1" style="stop-color:#FFFFFF;stop-opacity:0"/>
				</linearGradient>
				<polygon class="st53" points="256,257.5 247.5,258.4 247.5,285.7 256,285.7 				"/>
				<g>
					<g>
						<g>
							<g>
								<polygon class="st19" points="222.4,286.2 218.1,283.7 218.1,270 222.4,272.5 								"/>
								<polygon class="st20" points="226.6,283.7 222.4,286.2 222.4,272.5 226.6,270 								"/>
							</g>
							<polygon class="st21" points="222.4,272.5 218.1,270 222.4,267.6 226.6,270 							"/>
						</g>
						<g>
							<g>
								<g>
									<polygon class="st22" points="232.2,291.9 227.9,289.4 227.9,268.7 232.2,271.1 									"/>
									<polygon class="st23" points="236.4,289.4 232.2,291.9 232.2,271.1 236.4,268.7 									"/>
								</g>
								<polygon class="st24" points="232.2,271.1 227.9,268.7 232.2,266.2 236.4,268.7 								"/>
							</g>
						</g>
						<g>
							<g>
								<polygon class="st25" points="242,297.5 237.7,295 237.7,281.2 242,283.7 								"/>
								<polygon class="st26" points="246.2,295 242,297.5 242,283.7 246.2,281.2 								"/>
							</g>
							<polygon class="st27" points="242,283.7 237.7,281.2 242,278.8 246.2,281.2 							"/>
						</g>
						<g>
							<g>
								<polygon class="st28" points="242,297.5 237.7,295.1 237.7,281.3 242,283.7 								"/>
								<polygon class="st29" points="246.2,295.1 242,297.5 242,283.7 246.2,281.3 								"/>
							</g>
							<polygon class="st30" points="242,283.7 237.7,281.3 242,278.8 246.2,281.3 							"/>
						</g>
						<g>
							<g>
								<polygon class="st31" points="251.8,303.2 247.5,300.7 247.5,274.9 251.8,277.4 								"/>
								<polygon class="st32" points="256,300.7 251.8,303.2 251.8,277.4 256,274.9 								"/>
							</g>
							<polygon class="st33" points="251.8,277.4 247.5,274.9 251.8,272.5 256,274.9 							"/>
						</g>
					</g>
					<text transform="matrix(1.0137 0.5853 -0.866 0.5 212.9872 286.0194)" class="st34 st35 st54">15%</text>
					<text transform="matrix(1.0137 0.5853 -0.866 0.5 222.9269 291.736)" class="st34 st35 st54">25%</text>
					<text transform="matrix(1.0137 0.5853 -0.866 0.5 232.8644 297.4519)" class="st34 st35 st54">15%</text>
					<text transform="matrix(1.0137 0.5853 -0.866 0.5 242.8075 303.1704)" class="st34 st35 st54">45%</text>
				</g>
			</g>
		</g>
		<g>
			<g>
				<g>
					<g>
						<g>
							<path class="st20" d="M507.8,172.2C507.8,172.3,507.8,172.3,507.8,172.2c0,16.8-11.8,37.3-26.3,45.7s-26.3,1.6-26.3-15.2
								c0-16.7,11.7-37,26.1-45.4v-1.4c-15.1,8.9-27.3,30.1-27.3,47.6s12.4,24.7,27.6,15.9s27.6-30.2,27.6-47.7v-0.1L507.8,172.2z"
								/>
						</g>
					</g>
					<g>
						<path class="st32" d="M504.2,174.3L504.2,174.3c0,14.6-10.2,32.3-22.8,39.5c-12.6,7.2-22.8,1.4-22.8-13.1
							c0-14.4,10.1-31.9,22.5-39.3V160c-13.1,7.7-23.7,26.2-23.7,41.4c0,15.3,10.8,21.5,24,13.9s24-26.3,24-41.6v-0.1L504.2,174.3z"
							/>
					</g>
					<g>
						<path class="st55" d="M501,176.2L501,176.2c0,12.5-8.7,27.6-19.5,33.8c-10.7,6.2-19.5,1.2-19.5-11.3
							c0-12.3,8.6-27.3,19.2-33.6v-1.4c-11.3,6.7-20.4,22.6-20.4,35.7c0,13.2,9.3,18.6,20.7,12c11.4-6.6,20.7-22.7,20.7-35.9v-0.1
							L501,176.2z"/>
					</g>
					<path class="st55" d="M499,177.4c0,11.2-7.8,24.7-17.5,30.3s-17.5,1.1-17.5-10.1c0-11.2,7.8-24.7,17.5-30.3
						C491.1,161.7,499,166.2,499,177.4z"/>
					<path class="st56" d="M481.5,169.6c8.5-4.9,15.5-0.9,15.5,8.9c0,9.9-6.9,21.9-15.5,26.8c-8.5,4.9-15.5,0.9-15.5-8.9
						C466,186.6,472.9,174.6,481.5,169.6z"/>
				</g>
				<text transform="matrix(0.866 -0.5 0 1 474.4203 190.3145)" class="st6 st35 st57">Lorem</text>
				<text transform="matrix(0.866 -0.5 0 1 474.6801 197.2644)" class="st6 st35 st57">ipsum</text>
				<text transform="matrix(0.866 -0.5 0 1 483.0273 156.0093)" class="st6 st35 st58">75%</text>
				<text transform="matrix(0.866 -0.5 0 1 483.0273 160.2417)" class="st6 st35 st58">50%</text>
				<text transform="matrix(0.866 -0.5 0 1 483.0273 164.4819)" class="st6 st35 st58">25%</text>
			</g>
			<g>
				<text transform="matrix(0.866 -0.5 0 1 473.0832 236.9204)" class="st6 st35 st59">Lorem ipsum dolor sit amet,</text>
				<text transform="matrix(0.866 -0.5 0 1 473.0832 240.6206)" class="st6 st35 st59">consectetur adipiscing elit.</text>
			</g>
			<g>
				<text transform="matrix(0.866 -0.5 0 1 473.0832 247.3735)" class="st6 st35 st59">Lorem ipsum dolor sit amet,</text>
				<text transform="matrix(0.866 -0.5 0 1 473.0832 251.0735)" class="st6 st35 st59">consectetur adipiscing elit.</text>
			</g>
			<g>
				<text transform="matrix(0.866 -0.5 0 1 473.0832 257.8267)" class="st6 st35 st59">Lorem ipsum dolor sit amet,</text>
				<text transform="matrix(0.866 -0.5 0 1 473.0832 261.5266)" class="st6 st35 st59">consectetur adipiscing elit.</text>
			</g>
			<polygon class="st20" points="471.2,241.7 465.8,244.8 465.8,239 471.2,235.9 			"/>
			<polygon class="st32" points="471.2,251.8 465.8,255 465.8,249.1 471.2,246 			"/>
			<polygon class="st55" points="471.2,261.9 465.8,265.1 465.8,259.3 471.2,256.1 			"/>
		</g>
		<g>
			<g>
				<path class="st44" d="M173.4,435.5c-29.1,0.5-57.9,7.1-80.1,19.9c-1.2,0.7-2.3,1.4-3.4,2c-21.7,13.6-32,31-31.2,48.2
					c0.8,16.8,12.3,33.4,34.5,46.3l80.1-46.3v-70.1H173.4z"/>
				<path class="st60" d="M173.4,495.6L173.4,495.6L173.4,495.6z"/>
				<path class="st60" d="M173.4,495.6L173.4,495.6L173.4,495.6z"/>
				<path class="st61" d="M310.6,505.7c0.9-18.1-10.6-36.4-34.5-50.3l-87,40.1v10.1l83.5,48.2c1.2-0.6,2.4-1.3,3.5-1.9
					C298.3,539.1,309.8,522.5,310.6,505.7z"/>
				<path class="st62" d="M173.4,505.7l87-50.3v-10.1c-23.6-12.9-56.7-10.3-87-9.8V505.7L173.4,505.7z"/>
				<path class="st40" d="M173.4,505.7l-80.1,36.1V552c22.2,12.8,51,19.5,80.1,19.9c29.9,0.5,60-5.5,83.5-18v-10.1L173.4,505.7z"/>
				
					<linearGradient id="SVGID_10_" gradientUnits="userSpaceOnUse" x1="354.1491" y1="206.5062" x2="450.7463" y2="206.5062" gradientTransform="matrix(0.866 0.5 1 -0.5774 -280.628 412.5956)">
					<stop  offset="0" style="stop-color:#4CC194"/>
					<stop  offset="0.2836" style="stop-color:#4CD08B"/>
					<stop  offset="0.6803" style="stop-color:#4CE083"/>
					<stop  offset="1" style="stop-color:#4CE580"/>
				</linearGradient>
				<path class="st63" d="M310.6,495.6c0.9-18.1-10.6-36.4-34.5-50.3l-87,50.3l83.5,48.2c1.2-0.6,2.4-1.3,3.5-1.9
					C298.3,529,309.8,512.4,310.6,495.6z"/>
				<path class="st64" d="M173.4,495.6l87-50.3c-24-13.8-55.6-20.5-87-19.9V495.6L173.4,495.6z"/>
				<path class="st41" d="M173.4,495.6l-80.1,46.3c22.2,12.8,51,19.5,80.1,19.9c29.9,0.5,60-5.5,83.5-18L173.4,495.6z"/>
				<path class="st45" d="M173.4,425.4c-29.1,0.5-57.9,7.1-80.1,19.9c-1.2,0.7-2.3,1.4-3.4,2c-21.7,13.6-32,31-31.2,48.2
					c0.8,16.8,12.3,33.4,34.5,46.3l80.1-46.3v-70.1H173.4z"/>
			</g>
			<text transform="matrix(0.866 0.5 -0.866 0.5 235.608 495.6968)" class="st6 st35 st65">A</text>
			<text transform="matrix(0.866 0.5 -0.866 0.5 156.6725 534.6344)" class="st6 st35 st65">B</text>
			<text transform="matrix(0.866 0.5 -0.866 0.5 107.0153 481.337)" class="st6 st35 st65">C</text>
			<text transform="matrix(0.866 0.5 -0.866 0.5 184.3043 453.521)" class="st6 st35 st65">D</text>
			<path class="st66" d="M217.9,466.8c-8.6,4.9-22.5,4.9-31,0c-8.6-4.9-8.6-13,0-17.9s22.5-4.9,31,0S226.4,461.8,217.9,466.8z"/>
		</g>
		<g>
			<polygon class="st46" points="153.6,215.5 303,301.7 303,196.6 153.6,110.3 			"/>
			<g>
				<g>
					<g>
						<g>
							<polygon class="st6" points="234.8,239.1 173.1,203.4 173.1,202.6 234.8,238.3 							"/>
						</g>
						<g>
							<polygon class="st6" points="234.8,216.8 173.1,181.2 173.1,180.4 234.8,216 							"/>
						</g>
						<g>
							<polygon class="st6" points="234.8,194.6 173.1,158.9 173.1,158.1 234.8,193.8 							"/>
						</g>
						<g>
							<polygon class="st6" points="234.8,172.3 173.1,136.7 173.1,135.9 234.8,171.5 							"/>
						</g>
					</g>
					<g>
						<g>
							<polygon class="st6" points="234.8,250 173.1,214.3 173.1,213.5 234.8,249.2 							"/>
						</g>
						<g>
							<polygon class="st6" points="234.8,227.7 173.1,192 173.1,191.3 234.8,226.9 							"/>
						</g>
						<g>
							<polygon class="st6" points="234.8,205.4 173.1,169.8 173.1,169 234.8,204.6 							"/>
						</g>
						<g>
							<polygon class="st6" points="234.8,183.2 173.1,147.5 173.1,146.7 234.8,182.4 							"/>
						</g>
					</g>
				</g>
				<g>
					<g>
						<polygon class="st3" points="184.3,220 176.3,215.4 176.3,161.7 184.3,166.3 						"/>
						<polygon class="st45" points="184.3,220 176.3,215.4 176.3,169.3 184.3,173.9 						"/>
					</g>
					<g>
						<polygon class="st3" points="200,229.1 192,224.4 192,150.9 200,155.5 						"/>
						<polygon class="st67" points="200,229.1 192,224.4 192,172.1 200,176.8 						"/>
					</g>
					<g>
						<polygon class="st3" points="215.8,238.1 207.7,233.5 207.7,166.6 215.8,171.2 						"/>
						
							<linearGradient id="SVGID_11_" gradientUnits="userSpaceOnUse" x1="211.75" y1="449.9" x2="211.75" y2="513.6" gradientTransform="matrix(1 0 0 -1 0 688)">
							<stop  offset="0" style="stop-color:#4CC194"/>
							<stop  offset="0.2836" style="stop-color:#4CD08B"/>
							<stop  offset="0.6803" style="stop-color:#4CE083"/>
							<stop  offset="1" style="stop-color:#4CE580"/>
						</linearGradient>
						<polygon class="st68" points="215.8,238.1 207.7,233.5 207.7,174.4 215.8,179.1 						"/>
					</g>
					<g>
						<polygon class="st3" points="231.5,247.2 223.5,242.6 223.5,179.3 231.5,183.9 						"/>
						<polygon class="st41" points="231.5,247.2 223.5,242.6 223.5,188.9 231.5,193.5 						"/>
					</g>
				</g>
			</g>
			<g>
				<g>
					<polygon class="st56" points="255.9,224.2 244.6,217.7 244.6,211.4 255.9,217.9 					"/>
					<text transform="matrix(0.866 0.5 0 1 257.5938 223.606)" class="st6 st35 st69">Lorem ipsum</text>
				</g>
				<g>
					
						<linearGradient id="SVGID_12_" gradientUnits="userSpaceOnUse" x1="244.6338" y1="457.65" x2="255.8895" y2="457.65" gradientTransform="matrix(1 0 0 -1 0 688)">
						<stop  offset="0" style="stop-color:#4CC194"/>
						<stop  offset="0.2836" style="stop-color:#4CD08B"/>
						<stop  offset="0.6803" style="stop-color:#4CE083"/>
						<stop  offset="1" style="stop-color:#4CE580"/>
					</linearGradient>
					<polygon class="st70" points="255.9,236.7 244.6,230.2 244.6,224 255.9,230.5 					"/>
					<text transform="matrix(0.866 0.5 0 1 257.5938 236.1021)" class="st6 st35 st69">Lorem ipsum</text>
				</g>
				<g>
					
						<linearGradient id="SVGID_13_" gradientUnits="userSpaceOnUse" x1="244.6338" y1="445.15" x2="255.891" y2="445.15" gradientTransform="matrix(1 0 0 -1 0 688)">
						<stop  offset="0" style="stop-color:#4CC194"/>
						<stop  offset="0.2836" style="stop-color:#4CD08B"/>
						<stop  offset="0.6803" style="stop-color:#4CE083"/>
						<stop  offset="1" style="stop-color:#4CE580"/>
					</linearGradient>
					<polygon class="st71" points="255.9,249.2 244.6,242.7 244.6,236.5 255.9,243 					"/>
					<text transform="matrix(0.866 0.5 0 1 257.5938 248.5957)" class="st6 st35 st69">Lorem ipsum</text>
				</g>
				<g>
					<polygon class="st41" points="255.9,261.8 244.6,255.3 244.6,249 255.9,255.5 					"/>
					<text transform="matrix(0.866 0.5 0 1 257.5938 261.0894)" class="st6 st35 st69">Lorem ipsum</text>
				</g>
			</g>
		</g>
		<polyline class="st72" points="333.9,459 365.8,350.4 392.6,376.8 424.1,389.7 437.3,277.5 		"/>
		<path class="st2" d="M337.9,456.7c0,2.6-1.8,5.7-4,7s-4,0.2-4-2.3c0-2.6,1.8-5.7,4-7C336.1,453,337.9,454.1,337.9,456.7z"/>
		
			<linearGradient id="SVGID_14_" gradientUnits="userSpaceOnUse" x1="486.45" y1="261.6" x2="486.45" y2="669.7" gradientTransform="matrix(1 0 0 -1 0 688)">
			<stop  offset="0" style="stop-color:#45FFFA"/>
			<stop  offset="0.1642" style="stop-color:#6CFFFB;stop-opacity:0.8358"/>
			<stop  offset="0.4552" style="stop-color:#AAFFFD;stop-opacity:0.5448"/>
			<stop  offset="0.7017" style="stop-color:#D8FFFE;stop-opacity:0.2983"/>
			<stop  offset="0.8908" style="stop-color:#F4FFFF;stop-opacity:0.1092"/>
			<stop  offset="1" style="stop-color:#FFFFFF;stop-opacity:0"/>
		</linearGradient>
		<polygon class="st73" points="595.7,18.3 377.2,18.3 377.2,342.9 440.2,426.4 508.3,384.8 595.7,334 		"/>
		<g>
			<g>
				<path class="st74" d="M204.8,458.4c0,0-0.5,3.9-0.2,4.8s2.4,0.7,3.2,0.5c2.6-0.7,8.7-3.8,8.5-6.3c-0.1-1-1.6-0.9-4.1,0.2
					c-2.5,1.2-3.9,1-4.2,0.2C207.7,457.1,204.8,458.4,204.8,458.4z"/>
				<path class="st74" d="M181,456.5c0,0-0.5,3.9-0.2,4.8s2.4,0.7,3.2,0.5c2.5-0.7,8.7-3.8,8.5-6.3c-0.1-1-1.6-0.9-4.1,0.2
					c-2.5,1.2-3.9,1-4.2,0.2C183.9,455.2,181,456.5,181,456.5z"/>
				<g>
					
						<linearGradient id="SVGID_15_" gradientUnits="userSpaceOnUse" x1="172.0935" y1="318.6613" x2="167.9516" y2="352.8636" gradientTransform="matrix(1 0 0 -1 0 688)">
						<stop  offset="0" style="stop-color:#BF2BB5"/>
						<stop  offset="1" style="stop-color:#7614A3"/>
					</linearGradient>
					<path class="st75" d="M170.6,336.3c0,0-5.3,9.5-5.9,29.1c1.1,3.8,11.8,1.6,13,0s0-5.1,0-5.1H173l1.4-9.5L170.6,336.3z"/>
					<g>
						<path class="st76" d="M179.9,456.7c0.1-3.4,1.4-37.1,1.4-38.2c-0.1-9.9-8.3-19.1-8.6-21.3c-1.2-7.7,1.7-17.7,1.7-17.7
							l17.6,2.4c0,0,2.5,17.1,0.9,35.9c-0.3,3.5-7.1,35.8-7.4,39.2L179.9,456.7z"/>
						<path class="st77" d="M197.4,420.7c-1.5-3.5-8.8-14.9-10.3-18.2c-7.1-13.4-5.4-21.4-5.4-21.4l22.1-0.9c0,0,3.9,27.3,5.6,34.3
							c0.3,1.1-0.6,43.1-0.3,44l-4.5,0.4L197.4,420.7z"/>
						
							<rect x="193.2" y="332" transform="matrix(0.4919 -0.8707 0.8707 0.4919 -193.1768 355.8271)" class="st78" width="30.1" height="22.9"/>
						
							<linearGradient id="SVGID_16_" gradientUnits="userSpaceOnUse" x1="619.9738" y1="344.7" x2="653.7233" y2="344.7" gradientTransform="matrix(-1 0 0 -1 845.1738 688)">
							<stop  offset="0" style="stop-color:#FFFFFF"/>
							<stop  offset="0.7168" style="stop-color:#F0F0F0"/>
							<stop  offset="1" style="stop-color:#E8E8E8"/>
						</linearGradient>
						<polygon class="st79" points="225.2,336 210.8,361.5 191.5,350.6 205.9,325.1 						"/>
						
							<linearGradient id="SVGID_17_" gradientUnits="userSpaceOnUse" x1="646.6641" y1="360.967" x2="663.7813" y2="360.967" gradientTransform="matrix(-1 0 0 -1 845.1738 688)">
							<stop  offset="0" style="stop-color:#FFE2C4"/>
							<stop  offset="1" style="stop-color:#FFB870"/>
						</linearGradient>
						<path class="st80" d="M192.5,316.3c0,0,3.5-0.1,5,3.9c0.2,0.6,0.3,1.2,0.1,1.8c-0.3,1.1,0.1,2.8,0.6,4.1
							c0.9,2.3-0.8,6.4-2.4,8.4c-1.9,0.7-3.3-0.8-3.3-0.8l-1.2,4.2l-9.4-2.4c0,0,1.1-3.4,0-8.6s-0.7-7.8,2.7-9.5
							C188,315.6,192.5,316.3,192.5,316.3"/>
						<path class="st81" d="M196.1,309.9c0,0-2.5,1.7-10.1,2.2s-7.9,5.8-6.9,8.5c-2.3,0.8,2.6,9.1,2.6,12.3c4.3,1.5,7.7-0.5,7.7-0.5
							s1.6-2.5,0.6-5.4s0.8-5.6,2-4.9c0.2,0.2,0.6,4.7,0.8,4.7c0.1,0,0.5,0,0.6,0c0.3-0.1-0.1-1.2,0.3-3.2c0.2-0.9,1.4-2.9,1.3-3.4
							c-0.1-0.7-0.9-2.8-0.9-2.8l1.6-0.3c0,0,1.8,0.2,1.8-1.5C197.4,312.7,196.1,309.9,196.1,309.9"/>
						
							<linearGradient id="SVGID_18_" gradientUnits="userSpaceOnUse" x1="638.3837" y1="323.4451" x2="676.5938" y2="323.4451" gradientTransform="matrix(-1 0 0 -1 845.1738 688)">
							<stop  offset="0" style="stop-color:#BF2BB5"/>
							<stop  offset="1" style="stop-color:#7614A3"/>
						</linearGradient>
						<path class="st82" d="M204.5,345.5c0,0-4.2-4.9-12.9-8.2c-4.1-1.5-8.7-2.1-8.7-2.1s-7.9-0.8-11.8,0.8
							c-2.2,0.9-3.8,11.7-1,18.8c2.9,7.1,4.7,15.4,2.6,19.4c-2.2,4-3.5,15.6-3.5,15.6s3.3,2.1,9.6,3.3c0,0,2-10.4,2.3-10.4
							c0.1,0,1.1,11.1,1.1,11.1c6.6,0.8,15.2,0.3,24.7-4.5c-0.9-5.3-4.7-15.4-5.7-20.3C200.1,364.1,204.5,345.5,204.5,345.5"/>
						
							<linearGradient id="SVGID_19_" gradientUnits="userSpaceOnUse" x1="625.0901" y1="333.7216" x2="632.4155" y2="333.7216" gradientTransform="matrix(-1 0 0 -1 845.1738 688)">
							<stop  offset="0" style="stop-color:#FFE2C4"/>
							<stop  offset="1" style="stop-color:#FFB870"/>
						</linearGradient>
						<path class="st83" d="M213.6,358.3c0,0-0.3-2.7,0-4.3c0.3-1.7-0.3-2.6-0.8-3.2c-0.4-0.6,0.3-2.2,1.6-0.8
							c1.3,1.4,1.5,3.1,1.5,3.1l3.3-5.9c0,0,2.8,6-1.9,13.8C214.3,362.6,213.6,358.3,213.6,358.3z"/>
						
							<linearGradient id="SVGID_20_" gradientUnits="userSpaceOnUse" x1="635.6255" y1="306.506" x2="640.5261" y2="346.9725" gradientTransform="matrix(-1 0 0 -1 845.1738 688)">
							<stop  offset="0" style="stop-color:#BF2BB5"/>
							<stop  offset="1" style="stop-color:#7614A3"/>
						</linearGradient>
						<path class="st84" d="M206.4,354.7c1.1-3.3,0.3-7-2.2-9.4c-0.5-0.5-1.1-0.9-1.8-1.3c-4.1-2-6.9,1.4-7.1,8.9
							c-0.2,7.4,0.6,18.3,4.9,25.2c2.6,4,13.1,2.2,18.5-16.9c-1.4-1.9-6.2-3.2-6.2-3.2s-4.8,12.3-6.7,10.6
							C203.4,366.5,204.9,359.1,206.4,354.7"/>
					</g>
				</g>
			</g>
		</g>
		<g>
			<path class="st85" d="M587.2,312.4c0,0-1.6-2.1-2.2-4c-0.6-1.9-1.4-3.4-2.7-4.3s-4.7-2.9-5.1-3c-0.4-0.1-1.4,0.4-0.3,1.2
				c1.1,0.8,2.8,1.9,2.9,2.6c0.1,0.5-2,3.5-0.6,5.4s0.7,0.4,4.6,4.8C587.3,317.4,587.2,312.4,587.2,312.4z"/>
			<path class="st6" d="M586.5,310.4c-2,0.2-4.2,1.6-4.9,3.2c0.6,0.6,1.4,1.6,2.4,2.7c3.8,2.7,3.9-3.8,3.9-3.8
				S587.2,311.6,586.5,310.4z"/>
			<g>
				
					<linearGradient id="SVGID_21_" gradientUnits="userSpaceOnUse" x1="582.2123" y1="361.5437" x2="621.2493" y2="361.5437" gradientTransform="matrix(1 0 0 -1 0 688)">
					<stop  offset="0" style="stop-color:#BF2BB5"/>
					<stop  offset="1" style="stop-color:#7614A3"/>
				</linearGradient>
				<path class="st86" d="M621.2,333.4c0,0-16.2-4.6-20.2-7.2c-3.9-2.6-13.5-14.5-13.5-14.5s-4.4-0.2-5.4,4.1
					c4.5,8.6,12,14.3,15.4,17.3c3.5,2.9,15.8,7.7,19.8,8.1C621.5,341.6,621.2,333.4,621.2,333.4z"/>
				<g>
					<path class="st85" d="M580.6,364.9c0,0-1.7-0.6-3.7,0.7c-2,1.3-3.8,0.9-5.1,0.7c-1.3-0.2-3.1,2.4-0.6,3.6
						c2.4,1.3,5.7,1.2,7.3,0.8c0.8-0.2,2.5-1.1,3-1.2C582.1,369.3,580.6,364.9,580.6,364.9z"/>
					<polygon class="st45" points="562.8,374.1 555,356.5 580.5,345.2 589.7,362.5 					"/>
					<path class="st87" d="M618.4,395.4c0,0,2.2,7.5,1.1,13.4c-1.1,5.9-3.1,10.3-3.5,14.2c-0.4,3.8,1.1,7.7,0.7,9.8
						c-0.4,2.1-9.6,4.2-9.6,4.2s2.6-1.7,3.5-5.3c0.9-3.6,1.3-4.1,1.3-5.8c0-1.7-0.5-20.1-0.6-27.1
						C611.2,391.8,618.4,395.4,618.4,395.4z"/>
					<path class="st85" d="M602.9,397.6c0,0,0.1,5,0.7,7c0.6,2.1,1.9,19,1.3,24.2c-0.6,5.2-4.7,12.3-6.3,13.5
						c-1.6,1.3-0.5,1.7,2.1,1.3c2.5-0.3,3.5-4.2,4.6-5.7s5.1-3.4,5.1-3.4s-0.6-2.5-1-3.5s0.9-9.1,2.1-13c1.2-3.9,1.1-9.7,0.6-11.7
						s1.2-8.8,1.2-8.8h-10.4V397.6z"/>
					
						<linearGradient id="SVGID_22_" gradientUnits="userSpaceOnUse" x1="603.5716" y1="251.485" x2="617.4474" y2="251.485" gradientTransform="matrix(1 0 0 -1 0 688)">
						<stop  offset="0" style="stop-color:#BF2BB5"/>
						<stop  offset="1" style="stop-color:#7614A3"/>
					</linearGradient>
					<path class="st88" d="M615,442.7h1c0,0,1-6.5,1.3-7.6c0.3-1.2,0.6-3.9-1.4-4.6s-3.2,0.9-3.9,2.3c-0.7,1.5-3.8,5.9-5.8,6.7
						c-1.8,0.9-2.3,1.7-2.3,1.7s-0.8,0.7,1.3,0.7s5.3,0.1,6.5-0.4s1.2-1.6,1.3-2.7c0-1,0.8-2.2,1.3-2.4
						C614.6,439.7,615,442.7,615,442.7z"/>
					
						<linearGradient id="SVGID_23_" gradientUnits="userSpaceOnUse" x1="594.6687" y1="248.4011" x2="611.4066" y2="248.4011" gradientTransform="matrix(1 0 0 -1 0 688)">
						<stop  offset="0" style="stop-color:#BF2BB5"/>
						<stop  offset="1" style="stop-color:#7614A3"/>
					</linearGradient>
					<path class="st89" d="M611.4,436.8c0,0-0.2-3.4-2.7-3.3s-3.7,2.7-4.5,4.7c-0.7,2.1-1,4.2-3.4,4.5c-2.3,0.3-2.5-0.2-2.5-0.2
						s-2.4,0.1-3.7,1c0.8,1.6,4.2,1.7,6.9,1.7s3.1-0.2,3.6-1.4c0.5-1.2,1.4-5,3-5c0.4,3.2,0.8,6.9,0.8,6.9h0.8c0,0,1.1-4.8,1.3-6.6
						C611.4,437.3,611.5,437.5,611.4,436.8z"/>
					<path class="st90" d="M599.7,377.2l1.1,20.8c0,0,1.9,3,9,2.5c7.1-0.4,11.3-3.7,11.3-3.7s0.2-4.3,0.9-8c0.6-3.7,2.3-9.9,2.3-9.9
						L599.7,377.2z"/>
					
						<linearGradient id="SVGID_24_" gradientUnits="userSpaceOnUse" x1="598.6659" y1="332.385" x2="626.8016" y2="332.385" gradientTransform="matrix(1 0 0 -1 0 688)">
						<stop  offset="0" style="stop-color:#BF2BB5"/>
						<stop  offset="1" style="stop-color:#7614A3"/>
					</linearGradient>
					<path class="st91" d="M611.5,329.5c0,0-9,5.3-10.2,10.8c-0.4,1.6-3.2,3.8-1.9,9s3,12.1,3,15s-3.7,10.7-3.7,14.8
						c8.6,6.1,21.8,5.4,28.1,0c-0.1-11.4-2.2-14.9-4.9-20.1s0.3-9.7,1.7-14.5c1.4-4.9,3.9-11.3,0.6-14.7
						C621,326.4,614.5,328.1,611.5,329.5z"/>
					<g>
						<path class="st85" d="M606.7,309.4c0,0,0.1,1.5-1,4.2s-1.7,6-0.9,8.6s1.7,3.7,4.1,3.8c1.2,0.3,1.9,1.5,2,3.5
							c3.5,1.4,7.5-0.8,7.5-1.3c-0.5-2.3-0.6-3.4,0.3-5.1c0.9-1.7,1.8-8.9-1.4-11.7C614.2,308.6,606.7,309.4,606.7,309.4z"/>
						<path class="st92" d="M606.9,314.6c0,0-5.2-3.2-2.4-6.9c2.7-3.7,6.3-4.3,9.6-4.5s9.3,0.8,11,6.1c2,2.3,3.4,9.7,4,15.3
							c0.6,5.6-5.2,11.3-13.4,11.3s-9.4-5.6-9.4-5.6s4.4,0.8,5.3-3.8c0.8-4.5-0.8-10.1-1.3-11.3C609,315.8,607.3,314.9,606.9,314.6z
							"/>
					</g>
					<path class="st85" d="M578,368c0,0-2.9-0.8-3.2-2.1c-0.3-1,1.2-0.4,2,0.1s2.7-1,4.1,0.4C580.6,368.2,578,368,578,368z"/>
					<g>
						<path class="st6" d="M583,363.9l-2.6,0.4c0,0-1.2,1.5-0.4,3.7s1.4,2.5,1.4,2.5l2.8-0.7L583,363.9z"/>
						<path class="st93" d="M603.9,336.3c-3,0.6-4.4,7-3.5,11.3c0.8,4,1.3,8.3-2,10.9c-3.9,0.9-14.4,4.3-16.7,5.4
							c-1,3.2,0.9,5.6,2.4,6.6c4.9-1.4,15.9-4.2,18.1-5.3c0.9-0.4,5.2-2.6,6.4-10.1c0.9-4.1,1.6-10.7,0.4-14.1
							C608.5,339.5,606.9,335.7,603.9,336.3z"/>
					</g>
				</g>
			</g>
		</g>
		<g>
			<g>
				<g class="st1">
					<g>
						<g>
							<g>
								<polygon class="st34" points="473.8,399.6 591.5,331.7 591.5,330.7 473.8,398.7 								"/>
							</g>
							<g>
								<polygon class="st34" points="473.8,388.9 591.5,320.9 591.5,319.9 473.8,387.9 								"/>
							</g>
							<g>
								<polygon class="st34" points="473.8,378.1 591.5,310.1 591.5,309.1 473.8,377.1 								"/>
							</g>
							<g>
								<polygon class="st34" points="473.8,367.3 591.5,299.3 591.5,298.3 473.8,366.3 								"/>
							</g>
							<g>
								<polygon class="st34" points="473.8,356.5 591.5,288.5 591.5,287.5 473.8,355.5 								"/>
							</g>
							<g>
								<polygon class="st34" points="473.8,345.7 591.5,277.7 591.5,276.7 473.8,344.7 								"/>
							</g>
							<g>
								<polygon class="st34" points="473.8,334.9 591.5,266.9 591.5,265.9 473.8,333.9 								"/>
							</g>
							<g>
								<polygon class="st34" points="473.8,323.4 591.5,255.4 591.5,254.5 473.8,322.5 								"/>
							</g>
							<g>
								<polygon class="st34" points="473.8,312.6 591.5,244.7 591.5,243.7 473.8,311.7 								"/>
							</g>
							<g>
								<polygon class="st34" points="473.8,301.8 591.5,233.9 591.5,232.9 473.8,300.9 								"/>
							</g>
						</g>
					</g>
				</g>
				<g>
					
						<linearGradient id="SVGID_25_" gradientUnits="userSpaceOnUse" x1="473.1" y1="352.85" x2="589.4" y2="352.85" gradientTransform="matrix(1 0 0 -1 0 688)">
						<stop  offset="0" style="stop-color:#4CC194"/>
						<stop  offset="0.2836" style="stop-color:#4CD08B"/>
						<stop  offset="0.6803" style="stop-color:#4CE083"/>
						<stop  offset="1" style="stop-color:#4CE580"/>
					</linearGradient>
					<polygon class="st94" points="474.5,399.8 491.1,316.9 505.6,335.8 519.1,305.6 532.2,296.9 545.4,274.4 557.7,321.9 
						573.3,292.6 588,333.5 589.4,333 573.5,288.9 558.2,317.8 545.9,270.5 531,295.9 517.9,304.5 505.3,332.9 490.3,313.4 
						473.1,399.5 					"/>
				</g>
				<g>
					<polygon class="st95" points="474.5,399.8 491,323.1 505.6,347.1 519,317.8 532,319.4 545.6,297.4 557.9,321.4 573.3,298 
						588,333.6 589.4,333 573.6,294.8 558,318.4 545.7,294.3 531.2,317.8 518.1,316.2 505.4,343.9 490.4,319.1 473.1,399.5 					"/>
				</g>
				<g>
					<polygon class="st96" points="474.5,399.9 491.2,354.8 505.9,355.6 518.8,325.8 531.6,339.7 545.9,322 558.1,327.4 
						573.3,311.9 588.1,333.7 589.4,332.9 573.5,309.5 557.8,325.6 545.4,320.2 531.6,337.4 518.3,323 505,354 490.2,353.2 
						473.1,399.4 					"/>
				</g>
				<g>
					<polygon class="st97" points="474.4,400 491.2,370.1 506,368.4 519,338.8 531.8,342.5 545.7,329 558,338.9 573.5,323.6 
						588.3,333.9 589.2,332.7 573.3,321.7 557.9,336.9 545.6,327 531.4,340.8 518.1,337 504.9,367 490.2,368.7 473.1,399.3 					"/>
				</g>
			</g>
			<ellipse class="st34" cx="589.1" cy="332.9" rx="1.6" ry="2.2"/>
			<ellipse class="st34" cx="573.5" cy="323.4" rx="1.6" ry="2.2"/>
			<ellipse class="st34" cx="573.5" cy="310.4" rx="1.6" ry="2.2"/>
			<ellipse class="st34" cx="573.5" cy="296.5" rx="1.6" ry="2.2"/>
			<ellipse class="st34" cx="573.5" cy="290.7" rx="1.6" ry="2.2"/>
			<ellipse class="st34" cx="545.8" cy="272.7" rx="1.6" ry="2.2"/>
			<ellipse class="st34" cx="545.2" cy="295.7" rx="1.6" ry="2.2"/>
			<ellipse class="st34" cx="545.8" cy="321.2" rx="1.6" ry="2.2"/>
			<ellipse class="st34" cx="545.8" cy="328.5" rx="1.6" ry="2.2"/>
			<ellipse class="st34" cx="531.7" cy="341.8" rx="1.6" ry="2.2"/>
			<ellipse class="st34" cx="531.7" cy="337.9" rx="1.6" ry="2.2"/>
			<ellipse class="st34" cx="531.7" cy="318.4" rx="1.6" ry="2.2"/>
			<ellipse class="st34" cx="531.7" cy="296.5" rx="1.6" ry="2.2"/>
			<ellipse class="st34" cx="518.5" cy="305.3" rx="1.6" ry="2.2"/>
			<ellipse class="st34" cx="518.5" cy="316.8" rx="1.6" ry="2.2"/>
			<ellipse class="st34" cx="518.5" cy="324.6" rx="1.6" ry="2.2"/>
			<ellipse class="st34" cx="518.5" cy="338.6" rx="1.6" ry="2.2"/>
			<ellipse class="st34" cx="505.3" cy="368.1" rx="1.6" ry="2.2"/>
			<ellipse class="st34" cx="505.3" cy="354.7" rx="1.6" ry="2.2"/>
			<ellipse class="st34" cx="505.3" cy="344.9" rx="1.6" ry="2.2"/>
			<ellipse class="st34" cx="505.3" cy="334.2" rx="1.6" ry="2.2"/>
			<ellipse class="st34" cx="490.7" cy="314.8" rx="1.6" ry="2.2"/>
			<ellipse class="st34" cx="490.7" cy="320.6" rx="1.6" ry="2.2"/>
			<ellipse class="st34" cx="490.7" cy="354.4" rx="1.6" ry="2.2"/>
			<ellipse class="st34" cx="490.7" cy="369.5" rx="1.6" ry="2.2"/>
			<ellipse class="st34" cx="473.8" cy="399.1" rx="1.6" ry="2.2"/>
			<ellipse class="st34" cx="557.7" cy="326" rx="1.6" ry="2.2"/>
			<ellipse class="st34" cx="558.3" cy="320.2" rx="1.6" ry="2.2"/>
			<ellipse class="st34" cx="558.3" cy="337.4" rx="1.6" ry="2.2"/>
		</g>
		<g>
			<g>
				<polygon class="st3" points="466.6,433.2 501.6,413 466.6,392.7 431.5,413 				"/>
				<polygon class="st4" points="466.5,453.3 501.6,433 501.6,413 466.5,433.2 				"/>
				<polygon class="st5" points="466.6,453.3 431.5,433 431.5,413 466.6,433.2 				"/>
			</g>
			<g>
				<polygon class="st3" points="508.5,457.6 543.6,437.4 508.5,417.2 473.5,437.4 				"/>
				<polygon class="st4" points="508.5,477.7 543.6,457.5 543.6,437.4 508.5,457.6 				"/>
				<polygon class="st5" points="508.5,477.7 473.5,457.5 473.5,437.4 508.5,457.6 				"/>
			</g>
			<g>
				<polygon class="st3" points="550.5,482.1 585.6,461.8 550.5,441.6 515.5,461.8 				"/>
				<polygon class="st4" points="550.5,502.2 585.6,481.9 585.6,461.8 550.5,482.1 				"/>
				<polygon class="st5" points="550.5,502.2 515.5,481.9 515.5,461.8 550.5,482.1 				"/>
			</g>
		</g>
		<g>
			<g>
				<g>
					<g>
						<g>
							<path class="st37" d="M540.5,500.9v-5.2h-2.3v5.2h-27.1l-20.8-12c-3.5,2-5.9,4.4-7.3,6.9l-1.4-1.3v6.3c0,4.4,2.9,8.7,8.6,12
								s13.3,5,20.8,5c7.5,0,15-1.7,20.8-5C537.5,509.5,540.3,505.2,540.5,500.9L540.5,500.9L540.5,500.9
								C540.5,500.9,540.5,500.9,540.5,500.9L540.5,500.9z"/>
							<path class="st38" d="M531.9,488.9c-11.5-6.6-30.1-6.6-41.5,0l20.8,12L531.9,488.9z"/>
						</g>
						
							<linearGradient id="SVGID_26_" gradientUnits="userSpaceOnUse" x1="481.7086" y1="193.475" x2="540.4668" y2="193.475" gradientTransform="matrix(1 0 0 -1 0 688)">
							<stop  offset="0" style="stop-color:#4CC194"/>
							<stop  offset="0.2836" style="stop-color:#4CD08B"/>
							<stop  offset="0.6803" style="stop-color:#4CE083"/>
							<stop  offset="1" style="stop-color:#4CE580"/>
						</linearGradient>
						<path class="st98" d="M531.9,482.5c-11.5-6.6-30.1-6.6-41.5,0c-11.5,6.6-11.5,17.4,0,24c5.7,3.3,13.3,5,20.8,5s15-1.7,20.8-5
							c5.7-3.3,8.6-7.7,8.6-12C540.5,490.2,537.6,485.8,531.9,482.5z"/>
					</g>
				</g>
				<g>
					<g>
						<g>
							<path class="st40" d="M537.3,492.6V488h-2v4.7h-24.2L492.6,482c-3.1,1.8-5.3,3.9-6.5,6.2l-1.2-1.2v5.7
								c0,3.9,2.5,7.8,7.7,10.7c5.1,3,11.8,4.4,18.5,4.4s13.4-1.5,18.5-4.4s7.6-6.7,7.7-10.6l0,0V492.6
								C537.3,492.7,537.3,492.7,537.3,492.6L537.3,492.6z"/>
							<path class="st38" d="M529.6,481.9c-10.2-5.9-26.8-5.9-37.1,0l18.5,10.7L529.6,481.9z"/>
						</g>
						<path class="st41" d="M529.6,476.3c-10.2-5.9-26.8-5.9-37.1,0c-10.2,5.9-10.2,15.5,0,21.4c5.1,3,11.8,4.4,18.5,4.4
							c6.7,0,13.4-1.5,18.5-4.4c5.1-3,7.7-6.8,7.7-10.7C537.3,483.1,534.7,479.2,529.6,476.3z"/>
					</g>
				</g>
				<g>
					<g>
						<g>
							<path class="st42" d="M532.3,486.4V481l-1.6,1.7v1.6l-19.5,2.2l-15-8.6c-2.5,1.4-4.2,0.9-5.2,2.8l-1,0.4v5.5
								c0,3.1,2.1,6.3,6.2,8.7c4.1,2.4,9.6,3.6,15,3.6c5.4,0,10.8-1.2,15-3.6C530.2,492.7,532.2,489.6,532.3,486.4L532.3,486.4
								L532.3,486.4L532.3,486.4L532.3,486.4z"/>
							<path class="st38" d="M526.1,477.8c-8.3-4.8-21.7-4.8-30,0l15,8.6L526.1,477.8z"/>
						</g>
						<path class="st43" d="M526.1,472.2c-8.3-4.8-21.7-4.8-30,0s-8.3,12.5,0,17.3c4.1,2.4,9.6,3.6,15,3.6c5.4,0,10.8-1.2,15-3.6
							c4.1-2.4,6.2-5.5,6.2-8.6S530.2,474.6,526.1,472.2z"/>
					</g>
				</g>
				<g>
					<g>
						<g>
							<path class="st44" d="M528.3,480v-5l-1.3,2v1.2l-15.6,1.8l-11.9-6.9c-2,1.2-3.4,0.7-4.2,2.2l-0.8-0.3v4.9
								c0,2.5,1.6,5,4.9,6.9s7.6,2.9,11.9,2.9s8.6-1,11.9-2.9C526.6,485,528.3,482.6,528.3,480L528.3,480L528.3,480L528.3,480
								L528.3,480z"/>
							<path class="st38" d="M523.4,473.1c-6.6-3.8-17.3-3.8-23.9,0l11.9,6.9L523.4,473.1z"/>
						</g>
						<path class="st45" d="M523.4,468.1c-6.6-3.8-17.3-3.8-23.9,0s-6.6,10,0,13.8c3.3,1.9,7.6,2.9,11.9,2.9s8.6-1,11.9-2.9
							c3.3-1.9,4.9-4.4,4.9-6.9C528.3,472.5,526.7,470,523.4,468.1z"/>
					</g>
				</g>
			</g>
		</g>
		<g>
			<g>
				<g>
					<g>
						<g>
							<path class="st37" d="M582.1,523.9v-5.2h-2.3v5.2h-27.1l-20.8-12c-3.5,2-5.9,4.4-7.3,6.9l-1.3-1.3v6.3c0,4.4,2.9,8.7,8.6,12
								c5.7,3.3,13.3,5,20.8,5s15-1.7,20.8-5C579.2,532.5,582,528.2,582.1,523.9L582.1,523.9L582.1,523.9L582.1,523.9L582.1,523.9z"
								/>
							<path class="st38" d="M573.5,511.9c-11.5-6.6-30.1-6.6-41.5,0l20.8,12L573.5,511.9z"/>
						</g>
						
							<linearGradient id="SVGID_27_" gradientUnits="userSpaceOnUse" x1="523.375" y1="170.475" x2="582.1342" y2="170.475" gradientTransform="matrix(1 0 0 -1 0 688)">
							<stop  offset="0" style="stop-color:#4CC194"/>
							<stop  offset="0.2836" style="stop-color:#4CD08B"/>
							<stop  offset="0.6803" style="stop-color:#4CE083"/>
							<stop  offset="1" style="stop-color:#4CE580"/>
						</linearGradient>
						<path class="st99" d="M573.5,505.5c-11.5-6.6-30.1-6.6-41.5,0c-11.5,6.6-11.5,17.4,0,24c5.7,3.3,13.3,5,20.8,5s15-1.7,20.8-5
							c5.7-3.3,8.6-7.7,8.6-12C582.1,513.2,579.3,508.8,573.5,505.5z"/>
					</g>
				</g>
				<g>
					<g>
						<g>
							<path class="st40" d="M579,515.6V511h-2v4.7h-24.2L534.3,505c-3.1,1.8-5.3,3.9-6.5,6.2l-1.2-1.2v5.7c0,3.9,2.5,7.8,7.7,10.7
								c5.1,3,11.8,4.4,18.5,4.4s13.4-1.5,18.5-4.4s7.6-6.7,7.7-10.6l0,0V515.6C579,515.7,579,515.7,579,515.6L579,515.6z"/>
							<path class="st38" d="M571.3,504.9c-10.2-5.9-26.8-5.9-37.1,0l18.5,10.7L571.3,504.9z"/>
						</g>
						<path class="st41" d="M571.3,499.3c-10.2-5.9-26.8-5.9-37.1,0c-10.2,5.9-10.2,15.5,0,21.4c5.1,3,11.8,4.4,18.5,4.4
							s13.4-1.5,18.5-4.4c5.1-3,7.7-6.8,7.7-10.7C579,506.1,576.4,502.2,571.3,499.3z"/>
					</g>
				</g>
				<g>
					<g>
						<g>
							<path class="st42" d="M573.9,509.4V504l-1.6,1.7v1.6l-19.5,2.2l-15-8.6c-2.5,1.4-4.2,0.9-5.2,2.8l-1,0.4v5.5
								c0,3.1,2.1,6.3,6.2,8.7c4.1,2.4,9.6,3.6,15,3.6s10.8-1.2,15-3.6C571.8,515.7,573.9,512.6,573.9,509.4L573.9,509.4
								L573.9,509.4L573.9,509.4L573.9,509.4z"/>
							<path class="st38" d="M567.7,500.8c-8.3-4.8-21.7-4.8-30,0l15,8.6L567.7,500.8z"/>
						</g>
						<path class="st43" d="M567.7,495.2c-8.3-4.8-21.7-4.8-30,0s-8.3,12.5,0,17.3c4.1,2.4,9.6,3.6,15,3.6s10.8-1.2,15-3.6
							c4.1-2.4,6.2-5.5,6.2-8.6S571.9,497.6,567.7,495.2z"/>
					</g>
				</g>
				<g>
					<g>
						<g>
							<path class="st44" d="M570,503v-5l-1.3,2v1.2l-15.6,1.8l-11.9-6.9c-2,1.2-3.4,0.7-4.2,2.2l-0.8-0.3v4.9c0,2.5,1.6,5,4.9,6.9
								c3.3,1.9,7.6,2.9,11.9,2.9c4.3,0,8.6-1,11.9-2.9C568.3,508,570,505.6,570,503L570,503L570,503L570,503L570,503z"/>
							<path class="st38" d="M565,496.1c-6.6-3.8-17.3-3.8-23.9,0L553,503L565,496.1z"/>
						</g>
						<path class="st45" d="M565,491.1c-6.6-3.8-17.3-3.8-23.9,0c-6.6,3.8-6.6,10,0,13.8c3.3,1.9,7.6,2.9,11.9,2.9
							c4.3,0,8.6-1,11.9-2.9c3.3-1.9,4.9-4.4,4.9-6.9C570,495.5,568.3,493,565,491.1z"/>
					</g>
				</g>
			</g>
		</g>
		
			<linearGradient id="SVGID_28_" gradientUnits="userSpaceOnUse" x1="334.95" y1="346.4" x2="334.95" y2="712.9" gradientTransform="matrix(1 0 0 -1 0 688)">
			<stop  offset="0" style="stop-color:#45FFFA"/>
			<stop  offset="0.1642" style="stop-color:#6CFFFB;stop-opacity:0.8358"/>
			<stop  offset="0.4552" style="stop-color:#AAFFFD;stop-opacity:0.5448"/>
			<stop  offset="0.7017" style="stop-color:#D8FFFE;stop-opacity:0.2983"/>
			<stop  offset="0.8908" style="stop-color:#F4FFFF;stop-opacity:0.1092"/>
			<stop  offset="1" style="stop-color:#FFFFFF;stop-opacity:0"/>
		</linearGradient>
		<polygon class="st100" points="444.2,-24.9 225.7,-24.9 225.7,299.7 247.6,330.6 356.8,341.6 444.2,290.8 		"/>
		<g>
			<g>
				<polygon class="st3" points="453,229 457.9,232.1 453.2,234.3 				"/>
				<polygon class="st5" points="296.1,575.8 291,572.6 295.4,569.6 				"/>
				<g>
					<g>
						<path class="st6" d="M453.6,476.5c0,1.8-1.5,4.2-3.3,5.2l-156.9,90.6c-1.8,1.1-3.3,0.4-3.3-1.4V325c0-1.8,1.5-4.1,3.3-5.2
							l156.9-90.6c1.8-1.1,3.3-0.4,3.3,1.4V476.5z"/>
						<path class="st5" d="M290.1,325v245.9c0,1.8,1.5,2.4,3.3,1.4l84.5-48.8l-80-197.7l-6.7-3.7C290.5,323.1,290.1,324.1,290.1,325
							z"/>
						<path class="st3" d="M450.3,229.3l-156.9,90.6c-0.9,0.5-1.7,1.3-2.3,2.2l6.2,3.5l80.5,197.9l72.4-41.8c1.8-1,3.3-3.4,3.3-5.2
							V230.6C453.6,228.8,452.2,228.2,450.3,229.3z"/>
						<path class="st4" d="M458.7,479.6c0,1.8-1.5,4.2-3.3,5.2l-156.9,90.6c-1.8,1.1-3.3,0.4-3.3-1.4V328.2c0-1.8,1.5-4.2,3.3-5.2
							l156.9-90.6c1.8-1.1,3.3-0.4,3.3,1.4V479.6z"/>
						<polygon class="st64" points="453.2,474.7 300.7,562.8 300.7,333.1 453.2,245.1 						"/>
						<polygon class="st3" points="450.3,246.7 450.3,473 300.7,559.4 300.7,562.8 453.2,474.7 453.2,245.1 						"/>
						<line class="st8" x1="453.2" y1="245.1" x2="453.2" y2="474.7"/>
						<path class="st6" d="M379.6,282.1c0,1.5-1.2,3.4-2.7,4.2c-1.5,0.9-2.7,0.3-2.7-1.1c0-1.5,1.2-3.4,2.7-4.2
							C378.4,280.1,379.6,280.6,379.6,282.1z"/>
					</g>
				</g>
			</g>
			<g>
				<g>
					<g>
						<path class="st44" d="M411,471l20.5-83.1c0-6.7-8.3-9.7-14.1-6.4c-5.8,3.3-10.4,11.4-10.4,18.1v69.8L411,471z"/>
						<g>
							<path class="st101" d="M382.2,487.6l20.5-112c0-6.7-8.3-9.7-14-6.4c-5.8,3.3-10.4,11.4-10.4,18.1V486L382.2,487.6z"/>
						</g>
						<path class="st61" d="M353.4,504.3l20.8-149.7c0-6.7-8.6-10-14.4-6.6c-5.8,3.3-10.4,11.4-10.4,18.1v136.6L353.4,504.3z"/>
						<path class="st62" d="M324.6,520.9l20.8-65.4c0-6.7-8.6-9.9-14.4-6.5c-5.8,3.3-10.4,11.4-10.4,18.1v52.2L324.6,520.9z"/>
					</g>
				</g>
				<g>
					<g>
						<path class="st45" d="M431.9,458.9v-69.8c0-6.7-4.7-9.4-10.4-6c-5.8,3.3-10.4,11.4-10.4,18.1V471L431.9,458.9z"/>
						<g>
							<path class="st102" d="M403,475.6V377c0-6.7-4.7-9.4-10.4-6c-5.8,3.3-10.4,11.4-10.4,18.1v98.6L403,475.6z"/>
						</g>
						
							<linearGradient id="SVGID_29_" gradientUnits="userSpaceOnUse" x1="363.8" y1="183.7" x2="363.8" y2="339.8704" gradientTransform="matrix(1 0 0 -1 0 688)">
							<stop  offset="0" style="stop-color:#4CC194"/>
							<stop  offset="0.2836" style="stop-color:#4CD08B"/>
							<stop  offset="0.6803" style="stop-color:#4CE083"/>
							<stop  offset="1" style="stop-color:#4CE580"/>
						</linearGradient>
						<path class="st103" d="M374.2,492.2V355.6c0-6.7-4.7-9.4-10.4-6c-5.8,3.3-10.4,11.4-10.4,18.1v136.6L374.2,492.2z"/>
						<path class="st67" d="M345.4,508.8v-52.2c0-6.7-4.7-9.4-10.4-6c-5.8,3.3-10.4,11.4-10.4,18.1v52.2L345.4,508.8z"/>
					</g>
				</g>
			</g>
		</g>
		<g>
			<polygon class="st104" points="539.4,534.6 544.2,537.5 544.2,531.8 			"/>
			<polygon class="st10" points="294.3,580.2 294.3,574.6 301.9,574.8 			"/>
			<g>
				<path class="st11" d="M379.6,630.4c1.6,0.9,4.3,0.8,6.2-0.3l156.9-90.6c1.8-1.1,2-2.6,0.4-3.6l-84.2-48.6
					c-1.6-0.9-4.3-0.8-6.2,0.3l-156.9,90.6c-1.8,1.1-2,2.6-0.4,3.6L379.6,630.4z"/>
				<path class="st9" d="M543.1,536l-84.2-48.6c-1.6-0.9-4.3-0.8-6.2,0.3l-70.3,40.6V631c1.2,0,2.4-0.3,3.4-0.9l156.9-90.6
					C544.5,538.5,544.7,536.9,543.1,536z"/>
				<path class="st5" d="M295.8,578.2c-1.8,1.1-2,2.6-0.4,3.6l84.2,48.6c0.7,0.4,1.7,0.6,2.8,0.6V528.2L295.8,578.2z"/>
				<path class="st3" d="M379.6,624.7c1.6,0.9,4.3,0.8,6.2-0.3l156.9-90.6c1.8-1.1,2-2.6,0.4-3.6l-84.2-48.6
					c-1.6-0.9-4.3-0.8-6.2,0.3l-156.9,90.6c-1.8,1.1-2,2.6-0.4,3.6L379.6,624.7z"/>
				<g>
					<path class="st12" d="M478.5,559.5l3.3,1.9c1,0.6,0.9,1.5-0.3,2.2l-44.3,25.6c-1.1,0.6-2.8,0.7-3.8,0.2l-3.3-1.9L478.5,559.5z"
						/>
					<path class="st12" d="M428.8,586.6l-17.3-10c-1-0.6-0.8-1.5,0.3-2.2l44.3-25.6c1.1-0.6,2.8-0.7,3.8-0.2l17.3,10L428.8,586.6z"
						/>
					<g>
						<polygon class="st12" points="454.9,505.4 467.5,498.1 458.5,492.9 445.9,500.2 						"/>
						<polygon class="st12" points="458.2,517.2 479.3,505 470.3,499.8 449.2,512 						"/>
						<polygon class="st12" points="441.8,526.6 455.1,519 446.1,513.8 432.8,521.4 						"/>
						<polygon class="st12" points="425.3,536.2 438.6,528.5 429.6,523.3 416.3,531 						"/>
						<polygon class="st12" points="408.8,545.7 422.1,538 413,532.8 399.8,540.5 						"/>
						<polygon class="st12" points="392.3,555.2 405.5,547.6 396.5,542.4 383.3,550 						"/>
						<polygon class="st12" points="375.8,564.8 389,557.1 380,551.9 366.7,559.6 						"/>
						<polygon class="st12" points="359.2,574.3 372.5,566.6 363.5,561.4 350.2,569.1 						"/>
						<polygon class="st12" points="335.8,587.9 356,576.2 347,571 326.7,582.7 						"/>
						<polygon class="st12" points="461.4,528.8 491.1,511.7 482,506.5 452.4,523.6 						"/>
						<polygon class="st12" points="445,538.3 458.3,530.6 449.3,525.4 436,533.1 						"/>
						<polygon class="st12" points="428.5,547.8 441.8,540.2 432.8,535 419.5,542.6 						"/>
						<polygon class="st12" points="412,557.4 425.3,549.7 416.3,544.5 403,552.2 						"/>
						<polygon class="st12" points="395.5,566.9 408.8,559.3 399.7,554.1 386.5,561.7 						"/>
						<polygon class="st12" points="379,576.5 392.2,568.8 383.2,563.6 370,571.2 						"/>
						<polygon class="st12" points="347.5,594.6 375.7,578.3 366.7,573.1 338.5,589.4 						"/>
						<polygon class="st12" points="407.3,573.7 470.1,537.5 461.1,532.2 398.3,568.5 						"/>
						<polygon class="st12" points="438.5,514.9 451.1,507.6 442.1,502.4 429.5,509.7 						"/>
						<polygon class="st12" points="490.2,525.8 502.8,518.6 493.8,513.3 481.2,520.6 						"/>
						<polygon class="st12" points="473.9,535.3 486.5,528 477.5,522.8 464.8,530.1 						"/>
						<polygon class="st12" points="422.1,524.3 434.8,517 425.7,511.8 413.1,519.1 						"/>
						<polygon class="st12" points="405.8,533.8 418.4,526.5 409.4,521.3 396.8,528.6 						"/>
						<polygon class="st12" points="389.4,543.2 402,535.9 393,530.7 380.4,538 						"/>
						<polygon class="st12" points="373,552.7 385.7,545.4 376.6,540.2 364,547.5 						"/>
						<polygon class="st12" points="356.7,562.1 369.3,554.8 360.3,549.6 347.7,556.9 						"/>
						<polygon class="st12" points="340.3,571.6 352.9,564.3 343.9,559.1 331.3,566.4 						"/>
						<polygon class="st12" points="323.9,581 336.5,573.7 327.5,568.5 314.9,575.8 						"/>
						<polygon class="st12" points="390.8,583.3 404,575.6 395,570.4 381.7,578.1 						"/>
						<polygon class="st12" points="375.1,592.3 387.7,585.1 378.6,579.8 366,587.1 						"/>
						<polygon class="st12" points="359.3,601.4 371.9,594.2 362.9,588.9 350.3,596.2 						"/>
					</g>
				</g>
			</g>
			<g>
				<polygon class="st13" points="366.4,618.5 375.8,623.9 375.8,627 366.4,621.6 				"/>
				<polygon class="st14" points="369,620 375.8,623.9 375.8,627 366.4,621.6 				"/>
			</g>
			<g>
				<polygon class="st13" points="298.1,579 307.5,584.4 307.5,587.5 298.1,582.1 				"/>
				<polygon class="st14" points="300.7,580.5 307.5,584.4 307.5,587.5 298.1,582.1 				"/>
			</g>
			<g>
				<polygon class="st13" points="309.1,585.3 318.5,590.7 318.5,593.9 309.1,588.4 				"/>
				<polygon class="st14" points="311.7,586.8 318.5,590.7 318.5,593.9 309.1,588.4 				"/>
			</g>
		</g>
	</g>
</g>
</svg>
