<?xml version="1.0" encoding="utf-8"?>
<!-- Generator: Adobe Illustrator 16.0.0, SVG Export Plug-In . SVG Version: 6.00 Build 0)  -->
<!DOCTYPE svg PUBLIC "-//W3C//DTD SVG 1.1//EN" "http://www.w3.org/Graphics/SVG/1.1/DTD/svg11.dtd">
<svg version="1.1" id="Layer_1" xmlns="http://www.w3.org/2000/svg" xmlns:xlink="http://www.w3.org/1999/xlink" x="0px" y="0px"
	 width="612px" height="792px" viewBox="0 0 612 792" enable-background="new 0 0 612 792" xml:space="preserve">
<title>Business_SVG</title>
<g id="Слой_2">
	<g id="Слой_1-2">
		<g id="Girl_4">
			<ellipse opacity="0.4" fill="#D6D8E5" enable-background="new    " cx="440.921" cy="731.574" rx="104.709" ry="60.426"/>
			<path id="_Контур_33" fill="#FFCEA9" d="M501.348,267.075c9.226,2.768,14.3,12.916,22.603,34.595
				c6.458,19.834,10.147,40.13,9.687,60.888c-2.768,20.296-11.07,36.44-31.366,52.584l-9.687-17.989
				c0,0,19.834-17.528,22.141-37.824c1.384-11.532-12.454-49.817-12.454-51.201S501.348,267.075,501.348,267.075z"/>
			<path fill="#38226D" d="M421.548,737.109c-5.996,1.845-12.915,0.922-18.45-2.307c-5.074,0-34.135-11.532-37.824-1.846
				c-3.229,8.765,8.303,16.606,14.761,17.99c13.838,3.229,23.985,10.147,29.521,11.07c4.151,1.384,8.765,0.923,12.455-1.845
				C425.699,756.482,425.238,742.183,421.548,737.109z"/>
			<path fill="#9C73FF" d="M409.094,759.711c-5.535-1.384-15.684-7.842-29.521-11.531c-5.074-1.384-14.299-6.919-15.222-13.838
				c-1.384,7.841,9.226,14.76,15.222,16.144c13.838,3.229,23.986,10.148,29.521,11.071c4.151,1.384,8.764,0.922,12.454-1.846
				c0.923-0.922,1.384-1.845,1.846-3.229C419.241,760.173,414.168,761.095,409.094,759.711z"/>
			<path fill="#38226D" d="M495.813,698.362c-5.535,1.845-11.532,0.923-16.145-2.307c-4.612,0-34.595-11.07-38.285-1.845
				c-3.229,8.303,8.303,15.683,14.299,17.066c13.377,3.229,23.063,9.688,28.138,11.071c4.151,1.384,8.765,0.922,11.993-1.846
				C499.964,716.813,499.503,702.975,495.813,698.362z"/>
			<path fill="#9C73FF" d="M483.819,720.042c-5.535-1.384-15.222-7.842-28.138-11.07c-5.073-1.384-13.838-6.919-14.761-13.377
				c-1.384,7.38,9.226,14.3,14.761,15.684c13.377,3.229,23.063,9.687,28.138,11.07c4.151,1.384,8.765,0.922,11.993-1.846
				c0.923-0.922,1.384-1.845,1.845-3.229C493.968,720.503,488.432,721.426,483.819,720.042z"/>
			<path id="_Контур_34" fill="#FFCEA9" d="M505.499,624.098c0-11.07-1.845-22.602-5.535-32.75c0,0,3.69-45.204,6.458-74.726
				c4.151-43.82,11.07-47.972,9.226-74.726c-1.846-24.447-15.684-40.592-19.374-57.198l-71.496,5.536c0,0-5.997,20.296-14.3,60.426
				c-8.303,40.131-8.764,88.103-7.842,151.758c0,16.145-2.768,30.444-1.845,71.497c0.461,27.215,2.307,60.888,2.307,60.888
				c10.608,8.764,17.528,2.307,17.528,2.307s18.45-81.184,21.218-99.635c1.846-10.147,0.923-20.757-2.306-30.905
				c0,0,5.535-25.369,9.225-45.665c4.613-24.447,17.067-77.494,17.067-77.494s-1.845,81.184,1.384,97.328
				c3.69,16.145,4.151,29.982,7.38,51.662c3.69,26.293,5.535,64.578,5.535,64.578c11.071,6.919,15.684,1.845,15.684,1.845
				S505.499,647.161,505.499,624.098z"/>
			<path fill="#1351A8" d="M496.273,384.238c7.381,7.841,19.835,30.905,19.835,66.422c0,39.67-5.997,31.828-8.303,75.188
				l-2.768,43.82c0,0-59.504,28.599-102.402,2.307c-3.689-8.303,1.384-100.096,8.765-132.846
				c7.38-32.75,12.454-48.434,12.454-48.434S478.745,404.995,496.273,384.238z"/>
			<path id="_Контур_35" fill="#FFCEA9" d="M497.196,266.614c-15.222-0.922-16.605,1.845-17.989-3.69
				c-0.462-1.845-1.384-15.222-1.384-15.222c1.384-1.845,2.768-3.69,3.689-5.535c10.148-6.458,17.067-17.067,18.451-29.06
				c2.307-21.218-13.377-40.592-34.595-42.898c-20.296-2.306-35.057,11.993-38.747,31.366c-2.307,9.687-4.151,29.06,1.845,44.743
				c3.229,8.764,6.458,15.222,14.761,14.761c2.768-0.461,5.535-0.922,7.842-1.384c0.461,3.69,0.461,7.38,0.461,11.07
				c0,4.152,0.462,5.997-7.38,10.609s11.531,14.299,23.986,13.377c12.454-0.923,26.753-8.303,30.443-16.606
				C502.271,269.381,504.115,267.075,497.196,266.614z"/>
			<path fill="#EDEDED" d="M508.267,333.959c0,0,17.067-3.69,24.909-11.532c0,0-10.148-32.289-16.606-40.131
				c-6.458-7.841-12.915,43.821-12.915,43.821L508.267,333.959z"/>
			<path id="_Контур_36" fill="#F4F4F4" d="M481.975,266.152c2.768,3.69,3.229,7.842-7.842,10.609
				c-7.842,2.307-16.145,1.384-23.986-1.845c-8.764,3.69-16.605,7.841-24.447,12.915c-9.226,30.444-1.845,34.595-5.535,56.275
				c1.384,11.07,3.229,39.208,3.69,45.666c20.757,14.299,62.732,9.687,71.958-5.997c0-5.074,0.461-10.148,1.384-15.222
				c9.687-36.44,17.528-46.127,14.761-73.803c-1.384-15.683-2.768-23.525-11.07-28.138
				C494.89,266.152,488.432,265.691,481.975,266.152z"/>
			<path id="_Контур_37" fill="#FFCEA9" d="M291.931,385.622c4.613,0.922,9.226,2.306,13.838,4.151
				c4.151,2.306,8.764,3.69,13.377,4.613c5.073,0.922,12.915-1.845,26.753-8.303c15.223-7.841,28.599-17.989,40.131-29.982
				c12.916-15.683,24.908-32.289,35.057-50.278c5.996-11.07,13.377-13.377,19.834-11.532c7.842,2.768,8.765,10.148,0,24.909
				c-11.07,18.912-24.908,36.901-40.13,52.584c-11.993,11.993-26.292,22.141-41.976,29.521c-11.07,5.535-23.063,9.687-35.057,11.993
				c-4.151,0.922-7.38,2.768-15.222,5.535s-16.145,3.69-24.447,2.768c-6.919-1.384-9.226-2.768-9.687-4.613
				c-0.461-1.845,0.922-2.768,4.151-2.768c5.074,0.923,10.148,0.462,15.222-0.461c0,0-6.919,0-11.532-0.923
				c-3.69-0.461-7.38-1.384-11.07-2.768c-3.229-1.384-4.613-6.919-1.384-6.457c3.229,0.461,5.535,1.384,11.993,1.845
				c3.229,0.461,6.458,0.461,10.148,0c-4.151-0.461-8.303-1.845-12.454-3.229c-3.229-0.923-6.458-2.768-8.303-5.074
				c-1.384-1.384-0.923-4.613,3.229-3.69c4.612,1.845,9.687,2.768,14.76,3.229c5.074,0,8.764-0.462,8.303-1.384
				c-0.461-0.922-3.69-0.461-7.38-2.768c-3.69-2.306-5.997-6.458-4.613-8.303C286.857,382.393,287.78,383.776,291.931,385.622z"/>
			<path fill="#EDEDED" d="M432.618,336.727c-11.993-1.845-23.063-7.38-31.366-16.145l18.912-26.292c0,0,10.609-13.377,24.909-5.997
				c0,0,10.608,1.384,0,23.525C441.844,320.121,437.692,328.424,432.618,336.727z"/>
			<path fill="#3A2C6D" d="M422.471,190.043c1.384-9.687,10.609-16.145,19.835-14.761c6.457-4.612,14.76-6.458,22.602-5.535
				c17.989,1.845,29.982,13.838,35.518,31.828c2.768,9.226,4.613,18.451,5.535,27.676c5.536,40.592,20.296,72.419,6.458,84.413
				c-13.838,11.993-51.201,19.834-66.884,11.993c-15.684-7.841,12.915-77.032-17.989-115.778
				C420.164,201.114,419.703,194.656,422.471,190.043z"/>
		</g>
		<g id="Men_13">
			<ellipse opacity="0.4" fill="#D6D8E5" enable-background="new    " cx="151.705" cy="583.967" rx="104.708" ry="60.426"/>
			<path fill="#2B2A30" d="M102.35,568.745c7.38,5.997,17.528,0.462,17.989,0.923c8.303,7.842,17.067,15.222,26.292,22.141
				c4.613,3.69,11.532,8.304,10.148,14.761c-2.307,11.993-21.218,8.303-28.599,4.613c-7.38-3.69-13.377-9.687-20.296-13.839
				c-5.074-3.229-9.687-4.612-10.609-10.608C97.275,582.584,100.966,568.745,102.35,568.745z"/>
			<path fill="#BF4B4B" d="M97.737,583.968c0.922,5.996,5.535,7.38,10.609,10.608c6.919,4.151,12.916,10.609,20.296,14.3
				c7.38,3.69,23.525,6.919,28.138-1.845c-2.307,11.531-21.218,7.841-28.599,4.151c-7.38-3.69-13.377-9.687-20.296-13.839
				c-5.074-3.229-9.687-4.612-10.609-10.608C97.737,585.813,97.737,584.89,97.737,583.968z"/>
			<path fill="#2B2A30" d="M164.16,545.682c6.919,5.997,19.834-0.461,20.296,0c7.38,7.381,15.222,14.761,23.524,21.219
				c4.613,3.69,11.532,8.303,10.148,14.761c-2.306,11.993-21.68,8.303-28.599,4.612c-6.919-3.689-13.377-9.687-20.296-13.838
				c-5.074-3.229-9.687-4.612-10.609-10.609C158.163,557.675,162.776,545.682,164.16,545.682z"/>
			<path fill="#BF4B4B" d="M158.625,559.981c0.922,5.996,5.535,7.38,10.609,10.609c6.919,4.151,13.377,10.609,20.296,14.299
				c7.38,3.69,23.525,6.919,28.138-1.845c-2.307,11.531-21.68,7.842-28.599,4.151c-7.38-3.69-13.377-9.687-19.835-13.838
				c-5.074-3.229-9.687-4.613-10.609-10.609C158.625,561.826,158.625,560.904,158.625,559.981z"/>
			<path id="_Контур_38" fill="#FF6492" d="M101.888,305.36c0.461,10.609,3.69,57.659,5.074,82.567
				c1.384,24.908,1.845,55.353,1.845,55.353s-4.151,17.989-6.919,39.208c-2.768,21.218,0,88.103,0,88.103
				c5.535,3.69,12.916,3.69,18.451,0c0,0,11.532-53.508,16.606-77.955c5.074-24.447,6.458-38.285,8.764-53.046
				c3.229-17.989,10.609-102.863,10.609-102.863h2.768l7.842,95.944c-2.307,6.919-4.151,14.3-4.613,21.68
				c-2.306,15.684,2.306,93.638,2.306,93.638c5.997,3.229,13.838,3.229,19.835-0.923c0,0,18.912-103.785,18.912-119.469
				c0-10.608-1.845-148.067-1.845-148.067L101.888,305.36z"/>
			<path id="_Контур_39" fill="#FFCEA9" d="M127.719,96.867c0,0,1.384,23.525,0.461,25.37
				c-0.923,1.845-10.609,8.764-13.838,11.532c-3.229,2.768,16.145,21.218,25.831,25.831c9.687,4.613,39.208-6.919,39.669-21.68
				c0.461-14.76-5.074-26.753-9.687-27.676C165.543,109.321,127.719,96.867,127.719,96.867z"/>
			<path fill="#FFCEA9" d="M191.836,140.688c1.384-10.609-5.536-20.296,1.384-28.599c23.063,22.603,20.296,83.029,25.37,121.775
				c17.067,17.989,52.124,35.979,61.81,40.13c1.845,0.923,3.229,1.845,2.768,3.69c-1.384,6.458-4.151,12.454-8.303,17.528
				c-23.063-9.687-39.208-15.683-68.268-42.898c-2.768-2.768-5.074-5.997-7.38-9.687
				C191.836,218.181,189.529,158.677,191.836,140.688z"/>
			<path id="_Контур_40" fill="#F4F4F4" d="M124.952,126.388c0,0,17.067,25.37,41.053,27.676
				c7.38-7.38,8.303-33.672-2.307-41.976c0,0,9.687-7.841,16.145-6.458c6.919,4.151,12.454,11.07,14.761,18.912
				c5.997,17.528,8.764,35.979,8.303,54.43c-0.461,24.909,0,101.018,0,101.018s-3.229,16.145-24.909,28.137
				c-21.68,11.993-37.363,13.377-52.124,9.687c-11.993-2.768-22.141-6.919-26.292-15.683c0.922-17.528,8.764-63.194,5.996-85.335
				c-2.768-22.141-7.38-38.286-8.764-56.275c-1.384-17.99,2.307-17.528,11.071-23.525
				C113.42,133.307,118.955,129.617,124.952,126.388z"/>
			<path id="_Контур_41" fill="#FFCEA9" d="M180.765,61.81L180.765,61.81c-2.768-18.451-16.145-32.289-34.595-30.905
				c-19.834,0.922-35.518,17.989-34.134,38.285c0.461,11.07,6.458,21.68,15.683,28.138c0.461,2.768,1.845,5.535,2.768,7.841
				c6.458,7.842,26.754,12.455,32.75,11.532c6.919-0.461,12.916-5.535,15.222-11.993C184.456,89.948,182.61,71.036,180.765,61.81z"
				/>
			<path fill="#2B2A30" d="M127.719,96.867L127.719,96.867l1.845-16.145c0,0-13.377-33.673,17.989-27.215
				c20.296,4.151,25.37,5.997,31.367-7.38c5.996-13.377-15.684-25.831-41.515-22.602c-18.451,1.845-32.289,17.528-31.828,36.44
				C106.04,70.113,108.346,90.409,127.719,96.867z"/>
			<path fill="#FFCEA9" d="M91.74,150.835c8.764-2.306,2.306-0.461,8.764-2.306c23.063,22.602,20.296,61.81,25.831,100.096
				c12.916,21.218,60.426,49.817,60.426,49.817c0.461,4.151-0.922,5.074-5.997,13.838c-26.292-10.148-50.74-25.832-70.574-45.666
				c-1.384-0.922-2.768-1.384-3.229-2.768C98.198,238.938,89.434,168.825,91.74,150.835z"/>
			<polygon fill="#F4F4F4" points="303.002,198.346 268.868,316.431 192.758,346.875 220.435,231.558 			"/>
			<path fill="#FFCEA9" d="M174.308,299.364c0.922-4.152,4.151-3.229,7.38-1.845c3.69,1.384,7.38,1.845,11.07,0.922
				c2.768-1.384,5.535-3.229,7.842-5.535c1.384-0.922,3.229-1.384,5.074-1.384c0,0.922-1.845,6.919-1.845,6.919s16.606,0,18.451,0
				c1.384-0.461,2.768,0.922,3.229,2.307c0,0.922,0,1.845-0.461,2.306h1.384c3.229-0.922,4.612,4.613,1.384,5.074l-2.768,0.461
				c2.306,0.922,2.768,4.613,0,5.074h-0.923c-0.461,0-0.922,0-1.384,0h-0.461c0.461,1.384-0.461,3.229-2.306,3.69c0,0,0,0-0.461,0
				c-8.303,0.922-19.834,4.151-27.215-2.306c-5.074-0.461-10.148-1.845-14.76-4.152
				C173.385,308.589,173.385,303.977,174.308,299.364z"/>
			<path fill="#FFCEA9" d="M257.336,289.677h1.384c-1.384-0.922-1.384-2.768-0.461-3.69c0.461-0.923,1.384-1.384,2.306-1.384
				c1.845,0,18.912-3.69,18.912-3.69l2.306-6.919c0-0.461,2.768,1.384,3.229,1.384c2.768,1.845,5.074,5.074,5.074,8.764
				c0,5.074-1.384,9.687-5.074,13.377c-3.229,3.229-6.919,4.613-11.532,5.074c-2.306,0-4.151,0-5.997,0.461
				c-1.845,0-3.229-1.384-3.229-2.768l0,0h-0.461c-0.461,0-0.923,0-1.384,0h-0.923c-2.768,0-3.229-3.69-1.384-5.074h-2.768
				C253.646,294.751,254.107,289.677,257.336,289.677z"/>
			<path fill="#EDEDED" d="M201.522,155.909c4.613,0,9.226-2.307,12.454-5.535c-0.461-8.764-11.993-41.976-34.134-44.282
				c5.997,4.151,10.609,10.148,13.838,17.067C196.91,133.768,199.677,144.839,201.522,155.909z"/>
			<path fill="#EDEDED" d="M87.589,199.729c0,0,22.141,7.842,38.285-5.074c1.845-2.768-9.225-41.053-9.225-41.053
				s-9.226-19.373-23.986-11.531C77.441,149.451,87.589,199.729,87.589,199.729z"/>
		</g>
	</g>
</g>
</svg>
