<svg height="512" viewBox="0 0 64 64" width="512" xmlns="http://www.w3.org/2000/svg"><g id="Flat"><g id="Color"><g><path d="m27 35h20v26h-20z" fill="#93999a"/><path d="m41 56a6.947 6.947 0 0 1 -4.4-1.562 2.019 2.019 0 0 1 -.539-2.438 8.931 8.931 0 0 0 .939-4.023 3.047 3.047 0 0 1 3.088-2.977h.912a7.959 7.959 0 0 0 6-2.726v-7.274h-20v26h20v-5z" fill="#656b76"/><path d="m39 51h8v8h-8z" fill="#57b7eb"/><path d="m32.725 15.017a15 15 0 0 0 -15.725 14.983l-6 12h6v4a9 9 0 0 0 18 0 3 3 0 0 1 3-3h1a8 8 0 0 0 8-8v-4.576a15.279 15.279 0 0 0 -14.275-15.407z" fill="#d0d8da"/><g><circle cx="43" cy="16" fill="#57b7eb" r="13"/><g fill="#fcbc04"><path d="m38 10v4c0 1.105 2.239 2 5 2s5-.895 5-2v-4z"/><path d="m43 16c-2.761 0-5-.895-5-2v4c0 1.105 2.239 2 5 2s5-.895 5-2v-4c0 1.105-2.239 2-5 2z"/><path d="m43 20c-2.761 0-5-.895-5-2v4c0 1.105 2.239 2 5 2s5-.895 5-2v-4c0 1.105-2.239 2-5 2z"/></g><ellipse cx="43" cy="10" fill="#f9e109" rx="5" ry="2"/><path d="m43 14c-.4 0-.794-.02-1.168-.057a2.013 2.013 0 0 1 -1.832-2v-.356c-1.208-.365-2-.939-2-1.591v4c0 1.105 2.239 2 5 2s5-.895 5-2v-1.996c0 1.105-2.239 2-5 2z" fill="#e59730"/><path d="m43 18c-.4 0-.794-.02-1.168-.057a2.013 2.013 0 0 1 -1.832-2v-.356c-1.208-.365-2-.939-2-1.591v4c0 1.105 2.239 2 5 2s5-.895 5-2v-1.996c0 1.105-2.239 2-5 2z" fill="#e59730"/><path d="m43 22c-.4 0-.794-.02-1.168-.057a2.013 2.013 0 0 1 -1.832-2v-.356c-1.208-.365-2-.939-2-1.591v4c0 1.105 2.239 2 5 2s5-.895 5-2v-1.996c0 1.105-2.239 2-5 2z" fill="#e59730"/></g><path d="m39 55.685v3.315h8v-3h-6a6.921 6.921 0 0 1 -2-.315z" fill="#4891d3"/><path d="m36 40a12 12 0 0 1 -12-12v-10.689a14.988 14.988 0 0 0 -7 12.689l-6 12h6v4a9 9 0 0 0 18 0 3 3 0 0 1 3-3h1a7.984 7.984 0 0 0 6.24-3z" fill="#93999a"/><circle cx="25" cy="32" fill="#57b7eb" r="3"/><path d="m24.059 29.165a2.992 2.992 0 1 0 2.046 5.619 11.927 11.927 0 0 1 -2.046-5.619z" fill="#4891d3"/><path d="m25 29a2.986 2.986 0 0 0 -2.554 1.446 2.965 2.965 0 0 1 1.554-.446 3 3 0 0 1 3 3 2.965 2.965 0 0 1 -.446 1.554 2.992 2.992 0 0 0 -1.554-5.554z" fill="#4891d3"/><path d="m11 42h6v-2z" fill="#656b76"/><path d="m17 45h4a1 1 0 0 1 0 2h-4z" fill="#57b7eb"/><g fill="#93999a"><path d="m54 37h-14a1 1 0 0 1 0-2h14a1 1 0 0 1 0 2z"/><path d="m56 35a1 1 0 0 1 -1-1v-16a1 1 0 0 1 2 0v16a1 1 0 0 1 -1 1z"/><path d="m10.55 26.055a1 1 0 0 1 -.973-.776l-2.1-9.109a1 1 0 1 1 1.949-.449l2.1 9.109a1 1 0 0 1 -.75 1.2.968.968 0 0 1 -.226.025z"/><path d="m9.614 13.827a1 1 0 0 1 -.589-1.808l7.775-5.655a1 1 0 0 1 1.177 1.617l-7.777 5.655a1 1 0 0 1 -.586.191z"/><path d="m28.525 15.659a1 1 0 0 1 -.672-.26l-8.053-7.318a1 1 0 0 1 1.347-1.481l8.053 7.319a1 1 0 0 1 -.673 1.74z"/></g><circle cx="43" cy="55" fill="#d0d8da" r="1"/><circle cx="56" cy="36" fill="#fcbc04" r="3"/><path d="m56 33a3 3 0 0 0 -2.73 1.77 2.989 2.989 0 0 1 3.96 3.96 3 3 0 0 0 -1.23-5.73z" fill="#f9e109"/><circle cx="56" cy="16" fill="#fcbc04" r="3"/><path d="m56 13a3 3 0 0 0 -2.73 1.77 2.989 2.989 0 0 1 3.96 3.96 3 3 0 0 0 -1.23-5.73z" fill="#f9e109"/><circle cx="38" cy="36" fill="#fcbc04" r="3"/><path d="m38 33a3 3 0 0 0 -2.73 1.77 2.989 2.989 0 0 1 3.96 3.96 3 3 0 0 0 -1.23-5.73z" fill="#f9e109"/><circle cx="30" cy="16" fill="#fcbc04" r="3"/><path d="m30 13a3 3 0 0 0 -2.73 1.77 2.989 2.989 0 0 1 3.96 3.96 3 3 0 0 0 -1.23-5.73z" fill="#f9e109"/><circle cx="19" cy="6" fill="#fcbc04" r="3"/><path d="m19 3a3 3 0 0 0 -2.73 1.77 2.989 2.989 0 0 1 3.96 3.96 3 3 0 0 0 -1.23-5.73z" fill="#f9e109"/><circle cx="8" cy="14" fill="#fcbc04" r="3"/><path d="m8 11a3 3 0 0 0 -2.73 1.77 2.989 2.989 0 0 1 3.96 3.96 3 3 0 0 0 -1.23-5.73z" fill="#f9e109"/><circle cx="11" cy="27" fill="#fcbc04" r="3"/><path d="m11 24a3 3 0 0 0 -2.73 1.77 2.989 2.989 0 0 1 3.96 3.96 3 3 0 0 0 -1.23-5.73z" fill="#f9e109"/></g></g></g></svg>