<?xml version="1.0" encoding="utf-8"?>
<!-- Generator: Adobe Illustrator 16.0.0, SVG Export Plug-In . SVG Version: 6.00 Build 0)  -->
<!DOCTYPE svg PUBLIC "-//W3C//DTD SVG 1.1//EN" "http://www.w3.org/Graphics/SVG/1.1/DTD/svg11.dtd">
<svg version="1.1" id="Ñëîé_1" xmlns="http://www.w3.org/2000/svg" xmlns:xlink="http://www.w3.org/1999/xlink" x="0px" y="0px"
	 width="168.792px" height="198.13px" viewBox="0 0 168.792 198.13" enable-background="new 0 0 168.792 198.13"
	 xml:space="preserve">
<path fill="#D4ECFF" d="M-518.094,160.567c7.041,4.064,18.458,4.064,25.499,0c7.042-4.066,7.042-10.658,0-14.723
	c-7.042-4.066-18.458-4.066-25.5,0C-525.135,149.909-525.135,156.501-518.094,160.567z"/>
<g>
	
		<rect x="-547.771" y="131.188" transform="matrix(0.2483 0.9687 -0.9687 0.2483 -281.5558 630.291)" fill="#5793CE" width="1.75" height="5.083"/>
	
		<rect x="-550.283" y="133.637" transform="matrix(0.2483 0.9687 -0.9687 0.2483 -281.0717 634.5656)" fill="#5793CE" width="1.75" height="5.083"/>
	
		<rect x="-552.795" y="136.088" transform="matrix(0.2483 0.9687 -0.9687 0.2483 -280.5854 638.8411)" fill="#5793CE" width="1.75" height="5.083"/>
	
		<rect x="-555.307" y="138.538" transform="matrix(0.2483 0.9687 -0.9687 0.2483 -280.1003 643.1165)" fill="#5793CE" width="1.75" height="5.084"/>
</g>
<g>
	<g>
		<g>
			<path fill="#D4ECFF" d="M-486.24,114.858l1.766-15.152c10.504,0.625,20.82,2.541,30.175,5.754l-14.248,12.773
				C-474.078,116.421-480.097,115.296-486.24,114.858z"/>
		</g>
		<g>
			<path fill="#396CAA" d="M-486.24,106.935l1.766-15.152c10.504,0.627,20.82,2.543,30.175,5.754l-14.248,12.773
				C-474.078,108.497-480.097,107.372-486.24,106.935z"/>
		</g>
		<polygon fill="#396CAA" points="-486.24,74.812 -468.899,75.587 -468.547,78.187 -468.547,110.31 -482.04,105.206 
			-486.24,106.935 		"/>
		<polygon fill="#173D7A" points="-454.299,65.413 -454.299,97.536 -468.547,110.31 -468.547,78.187 		"/>
		<g>
			<path fill="#D4ECFF" d="M-486.24,74.812l1.766-15.153c10.504,0.627,20.82,2.543,30.175,5.754l-14.248,12.774
				C-474.078,76.374-480.097,75.251-486.24,74.812z"/>
		</g>
	</g>
	<g>
		<g>
			<path fill="#D4ECFF" d="M-491.617,114.562c-11.572-0.072-23.177,2.264-32.37,7.012l-18.587-10.73
				c14.796-7.953,33.844-11.762,52.723-11.428L-491.617,114.562z"/>
		</g>
		<g>
			<path fill="#396CAA" d="M-491.617,106.726c-11.572-0.072-23.177,2.264-32.37,7.014l-18.587-10.732
				c14.796-7.951,33.844-11.76,52.723-11.428L-491.617,106.726z"/>
		</g>
		<polygon fill="#396CAA" points="-491.617,106.726 -491.617,95.636 -489.852,80.491 -489.852,91.579 		"/>
		<polygon fill="#173D7A" points="-542.574,91.917 -542.574,103.007 -523.987,113.739 -523.987,102.649 		"/>
		<g>
			<path fill="#5793CE" d="M-491.617,95.636c-11.572-0.07-23.177,2.264-32.37,7.014l-18.587-10.732
				c14.796-7.951,33.844-11.76,52.723-11.426L-491.617,95.636z"/>
		</g>
	</g>
	<g>
		<g>
			<path fill="#D4ECFF" d="M-451.408,156.479c11.365-10.641,9.071-24.768-6.908-33.994c-1.798-1.037-3.706-1.973-5.698-2.813
				l14.233-12.76c3.526,1.422,6.897,3.029,10.044,4.846c25.123,14.504,28.419,36.83,9.918,53.398L-451.408,156.479z"/>
		</g>
		<g>
			<path fill="#D3008D" d="M-451.408,148.8c11.365-10.643,9.071-24.77-6.908-33.994c-1.798-1.039-3.706-1.975-5.698-2.813
				l14.233-12.762c3.526,1.422,6.897,3.029,10.044,4.848c25.123,14.504,28.419,36.83,9.918,53.396L-451.408,148.8z"/>
		</g>
		<path fill="#D3008D" d="M-464.015,92.253v19.74l12.606,4.684c0,0,16.372-8.938,16.372-9.145c0-0.209-2.763-19.137-4.785-19.986
			C-441.843,86.696-464.015,92.253-464.015,92.253z"/>
		<polygon fill="#B70083" points="-451.408,148.8 -451.408,129.06 -429.819,137.735 -429.819,157.476 		"/>
		<path fill="#D3008D" d="M-429.819,125.353v32.123c0,0,11.268-9.498,11.775-22.102l-0.027-20.621l-13.112-1.896L-429.819,125.353z"
			/>
		<g>
			<path fill="#FF2C9C" d="M-451.408,129.06c11.365-10.643,9.071-24.77-6.908-33.994c-1.798-1.039-3.706-1.975-5.698-2.813
				l14.233-12.762c3.526,1.422,6.897,3.029,10.044,4.848c25.123,14.504,28.419,36.83,9.918,53.396L-451.408,129.06z"/>
		</g>
	</g>
</g>
<rect x="21.705" y="169.408" transform="matrix(0.8974 -0.4411 0.4411 0.8974 -73.8619 29.1255)" fill="#D4ECFF" width="8" height="7.998"/>
<path fill="#FF2C9C" d="M-480.3,134.931l-4.412-8.975l8.974-4.414l4.412,8.975L-480.3,134.931z M-482.034,126.868l2.646,5.383
	l5.385-2.646l-2.647-5.385L-482.034,126.868z"/>
<rect x="-364.305" y="93.756" transform="matrix(0.8974 -0.4411 0.4411 0.8974 -80.0733 -148.9141)" fill="#D4ECFF" width="8.001" height="8"/>
<path fill="#FF2C9C" d="M-278.437,26.438l-4.412-8.973l8.975-4.412l4.412,8.973L-278.437,26.438z M-280.171,18.377l2.646,5.385
	l5.385-2.648l-2.646-5.385L-280.171,18.377z"/>
<path fill="#FF2C9C" d="M151.741,128.55l-4.412-8.975l8.975-4.412l4.412,8.975L151.741,128.55z M150.007,120.487l2.646,5.385
	l5.385-2.646l-2.646-5.385L150.007,120.487z"/>
<g>
	<path fill="#D4ECFF" d="M27.915,159.116c17.061,9.85,44.721,9.85,61.781,0s17.061-25.82,0.002-35.67
		c-17.061-9.85-44.721-9.85-61.781,0C10.854,133.298,10.854,149.267,27.915,159.116z M44.606,133.083
		c7.844-4.527,20.557-4.527,28.4,0c7.842,4.527,7.842,11.869-0.002,16.396c-7.842,4.527-20.557,4.527-28.398,0
		S36.765,137.61,44.606,133.083z"/>
	<g>
		<g>
			<path fill="#B70083" d="M96.142,117.61l-15.584,0.244c-1.154-1.502-2.791-2.908-4.922-4.139
				c-8.568-4.947-22.045-5.33-31.381-1.154l-9.26-8.709l-14.258,0.223c0.705-0.461,1.428-0.916,2.191-1.357
				c19.814-11.439,51.941-11.439,71.756,0c3.645,2.104,6.611,4.449,8.916,6.945L96.142,117.61z"/>
			<polygon fill="#D3008D" points="20.737,81.444 20.737,104.075 34.995,103.853 34.995,81.224 			"/>
			<polygon fill="#B70083" points="44.255,89.931 44.255,112.562 34.995,103.853 34.995,81.224 			"/>
			<path fill="#B70083" d="M80.558,95.224v22.631l-20.5-16.705l-15.803,11.412V89.931l14.551-7.059c0,0,20.031,6.133,21.072,6.393
				S80.558,95.224,80.558,95.224z"/>
			<polygon fill="#B70083" points="96.142,94.981 96.142,117.61 80.558,117.854 80.558,95.224 			"/>
			<polygon fill="#D3008D" points="103.601,87.034 103.601,109.663 96.142,117.61 96.142,94.981 			"/>
			<path fill="#FF2C9C" d="M96.142,94.981l-15.584,0.242c-1.154-1.5-2.791-2.908-4.922-4.139c-8.568-4.947-22.045-5.33-31.381-1.154
				l-9.26-8.707l-14.258,0.221c0.705-0.461,1.428-0.916,2.191-1.355c19.814-11.442,51.941-11.442,71.756,0
				c3.645,2.104,6.611,4.449,8.916,6.945L96.142,94.981z"/>
		</g>
		<g>
			<path fill="#5793CE" d="M39.562,92.716v20.803l-13.488-3.232c0,0,0.791-12.172,1.078-12.498S39.562,92.716,39.562,92.716z"/>
			<g>
				<path fill="#173D7A" d="M49.771,113.519v22.629l-1.457,1.553l-9.51-5.482c0,0,1.475-17.275,1.646-17.623
					C40.624,114.249,49.771,113.519,49.771,113.519z"/>
				<path fill="#396CAA" d="M31.407,107.675l8.154,7.67c-6.793,5.375-5.99,12.953,2.414,17.805c2.303,1.328,4.959,2.328,7.795,2.998
					l-8.43,8.98l7.469,7.023c-9.484-1.094-18.531-3.76-25.883-8.004c-17.033-9.836-19.408-24.918-7.156-36.229L31.407,107.675z"/>
				<polygon fill="#396CAA" points="48.81,129.522 48.81,152.151 30.317,145.011 8.075,123.792 8.159,99.761 31.688,118.413 				"/>
				<path fill="#D4ECFF" d="M31.407,85.046l8.154,7.67c-6.793,5.373-5.99,12.951,2.414,17.803c2.303,1.33,4.959,2.328,7.795,3
					l-8.43,8.979l7.469,7.025c-9.484-1.096-18.531-3.762-25.883-8.006C5.894,111.683,3.519,96.599,15.771,85.29L31.407,85.046z"/>
			</g>
		</g>
		<g>
			<path fill="#396CAA" d="M48.87,145.011l7.43-7.916c6.896,0.42,14.051-0.895,19.336-3.945c5.459-3.152,7.709-7.455,6.754-11.557
				l17.691-0.275l6.803-7.248c5.951,10.211,1.891,21.941-12.201,30.076c-10.354,5.979-24.07,8.826-37.635,8.557L48.87,145.011z"/>
			<polygon fill="#396CAA" points="57.048,130.073 57.048,152.702 109.532,123.618 109.532,100.978 101.87,104.075 			"/>
			<polygon fill="#173D7A" points="48.87,122.38 48.87,145.011 57.048,152.702 57.048,130.073 			"/>
			<path fill="#5793CE" d="M48.87,122.38l7.43-7.914c6.896,0.418,14.051-0.895,19.336-3.947c5.459-3.152,7.709-7.455,6.754-11.557
				l17.691-0.275l6.803-7.248c5.951,10.213,1.891,21.941-12.201,30.078c-10.354,5.979-24.07,8.826-37.635,8.557L48.87,122.38z"/>
		</g>
	</g>
</g>
<circle fill="#FF2C9C" cx="39.626" cy="51.157" r="5.5"/>
<circle fill="#D4ECFF" cx="-546.896" cy="39.834" r="4.718"/>
<circle fill="#D4ECFF" cx="-464.015" cy="168.942" r="3.787"/>
<g>
	<g>
		<path fill="#5793CE" d="M89.44,30.066L63.208,14.922c-0.52-0.301-0.988-0.311-1.355-0.109c0-0.002,0.002-0.018,0.002-0.018
			l-2.545,1.471c0,0,1.127,0.41,1.789,0.654v19.102c0,1.555,0.943,3.36,2.109,4.034L88.28,54.53v2.242l2.57-1.48l-0.014-0.004
			c0.436-0.266,0.713-0.848,0.713-1.684V34.1C91.55,32.545,90.606,30.74,89.44,30.066z"/>
		<path fill="#D4ECFF" d="M86.849,56.694l-26.23-15.145c-1.166-0.674-2.111-2.479-2.111-4.034V18.01
			c0-1.553,0.945-2.268,2.111-1.594l26.23,15.145c1.166,0.672,2.111,2.479,2.111,4.031v19.506
			C88.96,56.653,88.015,57.366,86.849,56.694z"/>
	</g>
	<g>
		<path fill="#FFFFFF" d="M69.438,34.826c0,1.129-0.793,1.586-1.77,1.021c-0.979-0.564-1.77-1.936-1.77-3.064
			s0.791-1.586,1.77-1.021C68.646,32.326,69.438,33.697,69.438,34.826z"/>
		<path fill="#FFFFFF" d="M74.8,37.922c0,1.129-0.791,1.586-1.77,1.022c-0.977-0.565-1.77-1.936-1.77-3.065s0.793-1.586,1.77-1.021
			C74.009,35.422,74.8,36.793,74.8,37.922z"/>
		<path fill="#FFFFFF" d="M80.163,41.018c0,1.129-0.793,1.586-1.771,1.021c-0.977-0.564-1.77-1.936-1.77-3.064
			c0-1.129,0.793-1.586,1.77-1.022C79.37,38.518,80.163,39.889,80.163,41.018z"/>
	</g>
</g>
<g>
	<polygon fill="#D4ECFF" points="-360.306,168.261 -344.661,159.228 -329.015,168.261 -344.661,177.292 	"/>
	<polygon fill="#D4ECFF" points="-327.097,148.831 -311.452,139.798 -295.808,148.831 -311.452,157.862 	"/>
	<polygon fill="#D4ECFF" points="-293.989,129.866 -278.345,120.833 -262.7,129.866 -278.345,138.897 	"/>
	<g>
		<g>
			<g>
				<polygon fill="#C13D1A" points="-311.452,148.831 -311.452,100.659 -327.097,91.626 -327.097,139.798 				"/>
				<polygon fill="#173D7A" points="-311.452,100.659 -295.808,91.626 -295.808,139.798 -311.452,148.831 				"/>
				<polygon fill="#396CAA" points="-311.452,148.831 -311.452,100.659 -327.097,91.626 -327.097,139.798 				"/>
			</g>
			<g>
				<polygon fill="#173D7A" points="-344.661,168.261 -344.661,141.163 -360.306,132.132 -360.306,159.228 				"/>
				<polygon fill="#396CAA" points="-344.661,141.163 -329.015,132.132 -329.015,159.228 -344.661,168.261 				"/>
				<polygon fill="#D4ECFF" points="-360.306,132.132 -344.661,123.099 -329.015,132.132 -344.661,141.163 				"/>
			</g>
			<g>
				<polygon fill="#D3008D" points="-278.345,129.866 -278.345,63.627 -293.989,54.596 -293.989,120.833 				"/>
				<polygon fill="#D3008D" points="-278.345,63.627 -262.7,54.596 -262.7,120.833 -278.345,129.866 				"/>
				<polygon fill="#FF2C9C" points="-293.989,54.596 -278.345,45.563 -262.7,54.596 -278.345,63.627 				"/>
			</g>
		</g>
		<polygon fill="#5793CE" points="-327.097,91.626 -311.452,82.595 -295.808,91.626 -311.452,100.659 		"/>
	</g>
</g>
<g>
	<g>
		<g>
			<path fill="#5793CE" d="M-326.706,132.376c0,0-3.016-0.787-4.248,1.615c-1.23,2.404-2.58,7.74-1.951,11.016
				c0.627,3.275,3.232,2.484,4.645,1.373c1.41-1.111,4.578-8.787,4.574-10.156s-0.992-3.008-1.51-3.26
				C-325.714,132.714-326.706,132.376-326.706,132.376z"/>
			<path fill="#D4ECFF" d="M-325.177,131.552l0.129,2.883c0.027,0.613-0.279,1.197-0.814,1.5c-0.486,0.275-1.191,0.488-2.146,0.334
				c-2.096-0.336-2.283-0.936-2.434-3.818C-330.591,129.567-325.177,131.552-325.177,131.552z"/>
			<g>
				<path fill="#5793CE" d="M-334.743,127.882c0,0-2.131-2.275-4.455-0.9c-2.322,1.375-6.314,5.166-7.531,8.271
					c-1.219,3.104,1.408,3.826,3.193,3.639c1.787-0.186,8.563-4.984,9.291-6.143c0.729-1.16,0.768-3.074,0.463-3.563
					C-334.085,128.696-334.743,127.882-334.743,127.882z"/>
				<path fill="#D4ECFF" d="M-335.362,126.007l0.127,2.885c0.027,0.613-0.279,1.197-0.814,1.5c-0.486,0.275-1.191,0.486-2.146,0.334
					c-2.096-0.338-2.283-0.938-2.434-3.82C-340.778,124.022-335.362,126.007-335.362,126.007z"/>
				<path fill="#173D7A" d="M-310.53,73.071c-0.824-13.403-14.514,1.973-14.514,1.973l-9.371,9.184l-8.438,9.27
					c-1.648,1.811-2.416,4.254-2.096,6.682l3.412,25.99c0.17,1.285,1.268,2.23,2.563,2.221c0.365-0.002,0.785-0.035,1.264-0.111
					c3.045-0.475,2.82-3.369,2.82-3.369l-0.623-24.309l17.721-10.684C-317.792,89.917-309.706,86.474-310.53,73.071z"/>
			</g>
			<path fill="#173D7A" d="M-300.343,78.179c-0.824-13.405-14.514,1.971-14.514,1.971l-9.371,9.184l-8.438,9.27
				c-1.648,1.811-2.414,4.256-2.096,6.682l3.412,25.992c0.17,1.283,1.268,2.23,2.563,2.219c0.365-0.002,0.785-0.035,1.264-0.109
				c3.045-0.475,2.82-3.369,2.82-3.369l-0.623-24.311l17.721-10.682C-307.604,95.024-299.519,91.581-300.343,78.179z"/>
			<path fill="#5793CE" d="M-308.442,35.154c10.379,4.303,10.172,10.44,10.172,10.44s-2.033,22.492-1.34,37.516
				c0.291,6.279-33.365,6.76-28.346-9.994c5.918-19.756,3.699-35.749,6.471-38.161C-318.716,32.543-311.128,34.041-308.442,35.154z"
				/>
			
				<ellipse transform="matrix(0.9684 0.2494 -0.2494 0.9684 -0.0135 78.6251)" fill="#FFC2B0" cx="-310.287" cy="39.259" rx="5.354" ry="3.94"/>
			<path fill="#FFFFFF" d="M-309.519,43.797c-0.609,0-1.24-0.078-1.875-0.24c-3.123-0.807-5.168-3.389-4.559-5.758
				c0.303-1.176,1.193-2.113,2.51-2.643c1.262-0.508,2.773-0.576,4.262-0.193c1.486,0.383,2.779,1.174,3.639,2.229
				c0.896,1.098,1.223,2.352,0.92,3.528C-305.108,42.606-307.136,43.797-309.519,43.797z M-311.077,35.709
				c-0.709,0-1.389,0.123-1.996,0.367c-1.014,0.408-1.695,1.109-1.918,1.971c-0.473,1.84,1.252,3.879,3.846,4.549
				c2.59,0.666,5.088-0.287,5.563-2.125c0.223-0.863-0.037-1.805-0.729-2.653c-0.727-0.891-1.834-1.564-3.117-1.895
				C-309.981,35.781-310.538,35.709-311.077,35.709z"/>
			<path fill="#FFC2B0" d="M-312.604,34.686c0,0,0.09,0.416-0.09,3.705c-0.057,1.036,3.564,2,4.5,1.065s0.563-1.909,0.787-5.428
				S-312.604,34.686-312.604,34.686z"/>
			<path fill="#EA9C92" d="M-307.407,34.027c0,0-0.893,3.262-5.287,4.514l0.066-2.965L-307.407,34.027z"/>
			<circle fill="#FFC2B0" cx="-312.358" cy="27.736" r="7.989"/>
			<path fill="#EA9C92" d="M-310.524,28.029c0,0-4.398,1.885-7.443,1.906c-3.047,0.021-2.375-2.529-2.375-2.529l9.041-1.307
				L-310.524,28.029z"/>
			<path fill="#FF2C9C" d="M-318.876,28.527c0,0,3.832-1.627,7.193-0.949c0.789,0.16,1.523,0.582,2.031,1.207
				c0.166,0.205,0.377,0.391,0.615,0.445c0.596,0.135,1.572-2.338,2.73-2.395s1.932,0.764,0.982,2.285
				c-0.951,1.52-0.629,3.223-0.193,3.467c0.438,0.244,5.074-3.307,0.984-11.408c-4.09-8.104-14.479-3.738-16.094-2.098
				c0,0-1.703,1.484-3.086,0.164C-323.712,19.246-325.265,30.869-318.876,28.527z"/>
			<path fill="#FFC2B0" d="M-304.093,62.028v6.078c0,0.695-0.293,1.36-0.809,1.831l-12.486,11.383l1.42,2.17l16.488-11.959
				c0.77-0.559,1.266-1.418,1.365-2.363l1.115-10.6L-304.093,62.028z"/>
			<path fill="#5793CE" d="M-299.149,42.555c0,0,3.787,5.695,5.199,20.691c0,0-6.471,2.092-10.143,0.904
				C-307.767,62.963-299.149,42.555-299.149,42.555z"/>
			<path fill="#396CAA" d="M-304.784,49.756c0,0-1.484,7.938-1.568,11.668c-0.023,1.025,0.604,1.951,1.568,2.299l0,0V49.756z"/>
		</g>
		<g>
			<path fill="#5793CE" d="M-308.024,89.224l-2.76-0.365l-17.814-10.285c-0.57-0.33-1.568-0.289-2.229,0.092l-12.623,7.285
				l-1.668-0.219v1.66l0,0c-0.01,0.219,0.115,0.43,0.385,0.586l20.189,11.656c0.57,0.33,1.568,0.287,2.227-0.094l13.748-7.934
				c0.371-0.215,0.557-0.49,0.545-0.75l0,0V89.224z"/>
			<path fill="#396CAA" d="M-321.409,82.724l-1.266-0.73h-13.916l-6.859,3.957l-1.668-0.219v1.66l0,0
				c-0.01,0.219,0.115,0.43,0.385,0.586l20.189,11.656c0.301,0.174,0.723,0.244,1.148,0.215L-321.409,82.724z"/>
			<path fill="#5793CE" d="M-344.378,85.829l-0.74-0.098v1.66l0,0c-0.01,0.219,0.115,0.43,0.385,0.586l0.355,0.205V85.829z"/>
			<path fill="#FFFFFF" d="M-324.341,99.728c0.541,0.205,1.314,0.16,1.893-0.117v-2.826h-1.893V99.728z"/>
			<path fill="#FFFFFF" d="M-324.544,97.974l-20.189-11.656c-0.572-0.33-0.5-0.906,0.16-1.287l13.746-7.934
				c0.66-0.381,1.658-0.422,2.229-0.092l20.189,11.654c0.57,0.33,0.5,0.906-0.16,1.287l-13.748,7.934
				C-322.976,98.261-323.974,98.304-324.544,97.974z"/>
			<path fill="#D4ECFF" d="M-324.886,96.206l-16.787-9.691c-0.475-0.273-0.416-0.754,0.133-1.07l7.367-4.143
				c0.547-0.316,1.377-0.35,1.852-0.076l16.787,9.691c0.475,0.275,0.416,0.754-0.133,1.07l-7.367,4.143
				C-323.581,96.446-324.411,96.481-324.886,96.206z"/>
		</g>
		<path fill="#FFC2B0" d="M-330.046,76.714l-0.209,1.393c-0.178,1.188-0.146,2.396,0.092,3.572l0.248,1.227
			c0.141,0.693,0.688,1.23,1.383,1.357l0,0c0.543,0.098,1.057-0.283,1.117-0.832l0.332-2.977c0,0,0.764,0.998,1.131,0.998
			s-0.412-2.982-1.244-4.67C-328.028,75.093-330.046,76.714-330.046,76.714z"/>
		<path fill="#FFC2B0" d="M-323.202,54.573l-2.166,4.289c-0.514,1.014-0.814,2.121-0.887,3.254l-0.941,14.667l-2.85-0.068
			l-1.293-16.469c-0.041-0.51-0.016-1.021,0.072-1.523l1.479-8.352L-323.202,54.573z"/>
		<g>
			<path fill="#173D7A" d="M-325.229,99.093l-1.691-2.209l-17.803-10.309c-0.57-0.33-1.033-1.215-1.031-1.977l0.016-14.574
				l-1.023-1.336l0.961-0.557h0.002c0.184-0.117,0.428-0.115,0.697,0.041l20.176,11.68c0.57,0.332,1.031,1.217,1.031,1.979
				l-0.018,15.871c0,0.43-0.146,0.727-0.377,0.848l0,0L-325.229,99.093z"/>
			<path fill="#396CAA" d="M-337.54,90.735l-1.264-0.732l-6.943-12.059l0.008-7.92l-1.023-1.336l0.961-0.557h0.002
				c0.184-0.117,0.428-0.115,0.697,0.041l20.176,11.68c0.301,0.176,0.572,0.506,0.76,0.891L-337.54,90.735z"/>
			<path fill="#5793CE" d="M-346.31,69.28l-0.453-0.592l0.961-0.557h0.002c0.184-0.117,0.428-0.115,0.697,0.041l0.355,0.205
				L-346.31,69.28z"/>
			<path fill="#274F89" d="M-324.743,79.981c0.447,0.367,0.795,1.061,0.842,1.701l-1.971,1.137l-0.945-1.641L-324.743,79.981z"/>
			<path fill="#5793CE" d="M-325.888,80.409l-20.176-11.68c-0.57-0.33-1.033,0.018-1.035,0.78l-0.018,15.873
				c0,0.762,0.461,1.646,1.033,1.977l20.174,11.682c0.57,0.33,1.035-0.02,1.035-0.781l0.018-15.871
				C-324.856,81.626-325.317,80.739-325.888,80.409z"/>
		</g>
		<path fill="#FFC2B0" d="M-315.968,83.489l-0.324,0.67c-0.371,0.771-0.957,1.42-1.686,1.869l-2.004,1.234
			c-0.623,0.385-1.414,0.416-2.047,0.049c-0.021-0.014-0.045-0.027-0.068-0.043c-0.637-0.398-0.693-1.313-0.17-1.852l2.094-2.152
			c0,0-1.176,0.9-1.506,0.539c-0.242-0.268,1.141-1.564,2.203-1.607c1.061-0.043,2.088-0.877,2.088-0.877L-315.968,83.489z"/>
		<path fill="#5793CE" d="M-321.278,34.924c0,0-7.678,8.354-10.773,16.016c0,0,2.625,4.73,9.051,6.586
			S-321.278,34.924-321.278,34.924z"/>
		<path fill="#396CAA" d="M-324.446,57.03l1.244-12.02l-2.932,11.262C-325.612,56.543-325.046,56.797-324.446,57.03z"/>
		<path fill="#FFFFFF" d="M-315.528,33.238l-2.063-0.566c0,0,0.984,1.549,2.422,1.943s1.662-0.822,1.662-0.822L-315.528,33.238z"/>
	</g>
	<circle fill="#FFFFFF" cx="-305.659" cy="29.936" r="1.148"/>
</g>
<g>
	<path fill="#D4ECFF" d="M118.72,156.69c7.041,4.064,18.457,4.064,25.5,0c7.041-4.066,7.041-10.658,0-14.723s-18.457-4.064-25.5,0
		C111.679,146.034,111.679,152.624,118.72,156.69z"/>
	<g>
		<path fill="#FF2C9C" d="M139.956,26.35c0,0-0.463,9.557-1.191,15.981c-0.727,6.422-16.195-4.934-16.195-4.934v-7.313
			L139.956,26.35z"/>
		<g>
			<path fill="#173D7A" d="M132.897,142.903c-0.023,0.576-0.236,1.117-0.6,1.564c-1.01,1.238-3.428,3.709-5.844,4.445
				c-1.346,0.41-2.248,0.461-2.836,0.389c-0.59-0.072-0.939-0.695-0.74-1.256c0.535-1.494,2.055-4.582,5.893-6.484
				C132.503,139.71,132.946,141.651,132.897,142.903z"/>
			<path fill="#173D7A" d="M136.397,146.243c-1.186-0.145-2.303,0.658-2.682,1.943c-0.303,1.023-0.619,2.268-0.777,3.41
				c-0.215,1.559,0.541,3.586,1.162,4.922c0.385,0.83,1.352,1.002,1.965,0.371c0.992-1.021,2.254-2.795,2.463-5.344
				c0.074-0.924,0.119-1.684,0.139-2.309C138.72,147.716,137.733,146.405,136.397,146.243L136.397,146.243z"/>
			<path fill="#FFC2B0" d="M139.026,127.021l-0.918,19.826c-0.047,1.008-0.875,1.799-1.883,1.799l0,0c-1,0-1.826-0.781-1.883-1.779
				l-1.234-21.971L139.026,127.021z"/>
			<path fill="#FFC2B0" d="M125.942,124.177l2.164,17.553c0.141,1.125,1.172,1.92,2.297,1.766l0,0
				c1.047-0.143,1.809-1.064,1.756-2.119l-0.928-18.381L125.942,124.177z"/>
			<path fill="#173D7A" d="M142.708,85.228c0,0,0.523,4.344,0,9.146s-2.395,27.268-2.742,32.672c0,0,0.174,1.637-4.422,1.275
				c-4.596-0.359-4.227-2.176-4.227-2.176s-6.455-0.061-6.658-2.682c-0.203-2.623-6.611-31.311-6.611-41.625L142.708,85.228z"/>
			<g>
				<path fill="#FFC2B0" d="M115.661,54.174l-3.162,4.898l-10.871,13.129c0,0,0.373,1.219,1.727,1.539
					c1.057,0.248,10.201-8.475,14.148-12.303c1.049-1.016,1.225-2.635,0.418-3.854L115.661,54.174z"/>
				<path fill="#396CAA" d="M121.831,34.068c0,0-5.025-0.129-6.773,7.131c-1.748,7.26-3.117,16.352-1.596,17.105
					c4.566,2.268,7.455-0.385,7.455-0.385L121.831,34.068z"/>
				<path fill="#5793CE" d="M120.327,34.377c0.857-0.357,1.818-0.404,2.711-0.148c4.279,1.229,20.373,5.952,23.025,8.219
					c3.063,2.619-4.596,17.336-4.486,22.162c0.111,4.825,0.654,10.514,1.08,15.76c0.428,5.246,1.004,8.121-3.287,10.352
					c-4.289,2.23-11.615,2.334-17.1-1.846c-5.482-4.178-4.488-7.037-4.26-10.07s2.096-16.153,1.934-19.877
					c0,0-1.932-1.424-3.363-3.863c-1.432-2.441,1.096-6.93,2.146-9.846c1.049-2.918-0.592-6.254-0.268-8.633
					C118.628,35.359,119.409,34.76,120.327,34.377z"/>
				
					<ellipse transform="matrix(-0.9919 -0.1271 0.1271 -0.9919 256.8658 96.7228)" fill="#FFFFFF" cx="131.518" cy="40.169" rx="6.095" ry="4.839"/>
				
					<ellipse transform="matrix(-0.9919 -0.1271 0.1271 -0.9919 256.8632 96.7285)" fill="#FFC2B0" cx="131.518" cy="40.169" rx="4.357" ry="3.459"/>
				<path fill="#FFC2B0" d="M129.567,33.396c0,0,2.904-2.391,3.477-1.18c0.57,1.211,1.041,6.403,1.041,6.403l-5.77,1.551
					l0.875-5.262C129.19,34.908,128.036,33.93,129.567,33.396z"/>
				<circle fill="#FFC2B0" cx="129.15" cy="27.197" r="8.614"/>
				<path fill="#EA9C92" d="M133.446,33.723c0.051,0.27,0.1,0.561,0.146,0.857c-0.58,2.998-5.064,4.309-5.064,4.309l0.662-3.981
					c0,0-0.543-0.461-0.389-0.922C130.573,33.426,132.808,32.93,133.446,33.723z"/>
				<circle fill="#FFC2B0" cx="129.15" cy="27.197" r="8.614"/>
				<polygon fill="#FFC2B0" points="150.372,63.659 149.409,86.708 146.038,87.056 143.845,66.305 				"/>
				<path fill="#5793CE" d="M139.298,61.731c0.182-0.803,1.658-1.461,1.883-2.508c1.158-5.369,1.436-13.287,1.436-13.287
					l0.941,10.814c-1.086,3.209-2.02,6.152-1.98,7.859c0.064,2.832,0.281,5.963,0.533,9.125v0.01
					C142.11,73.745,138.183,66.653,139.298,61.731z"/>
				<path fill="#5793CE" d="M145.419,41.975c0,0,2.695,1.029,4.219,9.307c1.525,8.275,2.666,16.566-0.053,17.635
					c-2.719,1.069-4.99,1.874-5.789-0.342c-0.799-2.213-1.295-12.881-1.396-16.717C142.3,48.022,142.153,42.733,145.419,41.975z"/>
				<path fill="#FFC2B0" d="M102.435,71.243c0,0-1.459,0.537-2.514,1.686c-0.865,0.943-1.34,1.742-1.719,2.307
					c-0.84,1.252-1.547,3.957-1.035,4.295c0.512,0.336,3.439-4.531,3.91-3.398c0.473,1.133-0.004,2.178,0.602,2.195
					s2.709-4.893,4.363-6.416S102.435,71.243,102.435,71.243z"/>
			</g>
		</g>
		<g>
			<path fill="#173D7A" d="M136.194,118.759l1.793-2.34l18.855-10.918c0.605-0.35,1.094-1.287,1.094-2.094l-0.018-15.438
				l1.086-1.414l-1.02-0.59h-0.002c-0.193-0.125-0.453-0.121-0.738,0.043l-21.369,12.373c-0.605,0.35-1.094,1.287-1.094,2.094
				l0.02,16.813c0,0.453,0.156,0.77,0.398,0.896l0,0L136.194,118.759z"/>
			<path fill="#396CAA" d="M149.233,109.907l1.34-0.775l7.354-12.773l-0.008-8.389l1.086-1.414l-1.02-0.59h-0.002
				c-0.193-0.125-0.453-0.121-0.738,0.043l-21.369,12.373c-0.32,0.184-0.605,0.533-0.805,0.941L149.233,109.907z"/>
			<path fill="#396CAA" d="M158.522,87.183l0.482-0.627l-1.02-0.59h-0.002c-0.193-0.125-0.453-0.121-0.738,0.043l-0.377,0.219
				L158.522,87.183z"/>
			<path fill="#274F89" d="M135.683,98.519c-0.475,0.389-0.844,1.121-0.893,1.799l2.088,1.207l1-1.738L135.683,98.519z"/>
			<path fill="#5793CE" d="M136.894,98.97l21.369-12.371c0.604-0.35,1.096,0.02,1.096,0.826l0.02,16.813
				c0,0.807-0.488,1.744-1.094,2.094l-21.369,12.373c-0.604,0.35-1.096-0.021-1.096-0.828l-0.018-16.811
				C135.8,100.259,136.29,99.321,136.894,98.97z"/>
		</g>
		<path fill="#FFC2B0" d="M149.382,86.515c0,0,0.891,5.381,0.756,7.104c-0.133,1.725-1.057,4.566-1.756,4.506
			s-0.023-6.93-1.252-6.244c-1.23,0.684-1.359,1.857-1.916,1.443c-0.557-0.416,0.971-6.287,0.564-8.834
			C145.37,81.944,149.382,86.515,149.382,86.515z"/>
		<path fill="#EA9C92" d="M125.843,27.949c-4.322,1.535-5.162,0.6-5.203,0.549c-0.041-0.262-0.072-0.525-0.088-0.793
			c-0.057-0.953,0.051-1.877,0.287-2.752l11.211-1.514C132.05,23.439,130.278,26.373,125.843,27.949z"/>
		<path fill="#FF2C9C" d="M120.241,19.125c1.018-0.873,4.693-5.189,11.275-4.172c4.115,0.637,7.582,3.443,8.352,9.846
			c0.518,4.314-1.064,8.563-3.98,11.703c-0.158-0.072-0.322-0.141-0.469-0.236c-1.648-1.084-1.826-1.682-1.826-1.688l-0.363-3.266
			c0.01-0.465,0.357-0.877,0.82-0.906c0.357-0.021,0.793-0.193,1.207-0.734c0.945-1.238,0.508-3.164-1.383-3.238
			c-0.988-0.037-1.371-0.572-1.51-1.074c-0.123-0.436-0.584-0.68-1.01-0.525c-2.15,0.779-7.453,2.457-10.863,1.49
			C116.126,25.088,119.224,19.996,120.241,19.125z"/>
		<path fill="#FFFFFF" d="M125.149,31.84l-2.635-0.723c0,0,1.258,1.979,3.096,2.482c1.836,0.504,2.121-1.051,2.121-1.051
			L125.149,31.84z"/>
		<polygon fill="#396CAA" points="144.901,93.155 147.147,91.87 146.304,93.247 145.169,93.665 		"/>
	</g>
</g>
<g>
	<path fill="#FFC2B0" d="M-522.832,10.152l-0.238-1.382c-0.203-1.178-0.198-2.383,0.015-3.561l0.222-1.227
		c0.125-0.693,0.66-1.24,1.349-1.381l0,0c0.539-0.109,1.058,0.26,1.13,0.803l0.395,2.961c0,0,0.738-1.012,1.104-1.02
		c0.367-0.008-0.347,2.98-1.14,4.679C-520.787,11.725-522.832,10.152-522.832,10.152z"/>
	<path fill="#FFC2B0" d="M-517.3,32.809l-0.494-4.971c-0.532-0.998-0.856-2.096-0.952-3.223l-1.248-14.59l-2.837,0.127l-0.94,16.436
		c-0.029,0.506,0.007,1.016,0.106,1.514l1.649,8.289L-517.3,32.809z"/>
	<path fill="#FFC2B0" d="M-487.285,6.079l0.17-1.395c0.144-1.188,0.08-2.391-0.189-3.555l-0.282-1.215
		c-0.159-0.688-0.719-1.207-1.415-1.314l0,0c-0.543-0.083-1.043,0.312-1.089,0.859l-0.25,2.977c0,0-0.787-0.975-1.153-0.965
		c-0.367,0.012,0.492,2.959,1.368,4.617C-489.25,7.747-487.285,6.079-487.285,6.079z"/>
	<path fill="#FFC2B0" d="M-491.7,28.977l0.25-4.988c0.482-1.023,0.752-2.135,0.793-3.266l0.532-14.634l2.84-0.01l1.744,16.367
		c0.054,0.506,0.043,1.016-0.031,1.52l-1.241,8.357L-491.7,28.977z"/>
	<path fill="#173D7A" d="M-505.995,137.374c0.22,0.551,4.011,5.166,7.801,6.318c1.648,0.502,2.756,0.568,3.482,0.48
		c0.729-0.086,1.179-0.838,0.934-1.529c-0.652-1.836-2.522-5.66-7.273-8.016C-507.479,131.44-505.995,137.374-505.995,137.374z"/>
	<path fill="#173D7A" d="M-507.259,139.147c0,0,1.428,3.352,1.868,6.154c0.269,1.709-0.67,3.928-1.442,5.4
		c-0.479,0.914-1.694,1.119-2.458,0.426c-1.239-1.125-2.816-3.078-3.077-5.883c-0.44-4.725,0-5.549,0-5.549L-507.259,139.147z"/>
	<path fill="#FF2C9C" d="M-516.391,82.04c0,0-0.495,5.961,0,12.553c0.495,6.594,2.265,37.426,2.594,44.842
		c0,0-0.165,2.246,4.183,1.752s3.997-2.988,3.997-2.988s6.105-0.082,6.298-3.68c0.192-3.6,6.253-42.973,6.253-57.129L-516.391,82.04
		z"/>
	<path fill="#B70083" d="M-505.618,138.198c0,0,0.757-0.01,1.745-0.18l0,0l1.195-47.928L-505.618,138.198z"/>
	<path fill="#5793CE" d="M-493.551,23.482c0.902-1.322,5.439-0.459,7.681,0.064c0.75,0.174,1.314,0.809,1.387,1.574
		c1.891,19.959-7.917,27.042-7.917,27.042l-3.783-14.024C-490.624,39.008-494.76,25.252-493.551,23.482z"/>
	<path fill="#5793CE" d="M-524.234,27.943c2.169-0.77,6.581-2.137,7.625-0.924c1.399,1.623-1.17,15.756,4.258,14.268l-5.001,12.842
		c0,0-7.728-4.42-8.084-24.465C-525.45,28.895-524.959,28.201-524.234,27.943z"/>
	<path fill="#5793CE" d="M-506.499,37.621c-10.631,3.51-10.877,9.622-10.877,9.622s0.36,22.502-1.438,37.379
		c-0.751,6.219,32.656,9.178,28.905-7.84c-4.423-20.067-1.039-35.795-3.613-38.397C-496.097,35.785-503.749,36.713-506.499,37.621z"
		/>
	
		<ellipse transform="matrix(-0.9842 0.177 -0.177 -0.9842 -994.5559 172.4019)" fill="#FFC2B0" cx="-504.969" cy="41.835" rx="5.334" ry="3.926"/>
	<path fill="#FFFFFF" d="M-505.548,46.311c-1.027,0-2.012-0.215-2.859-0.631c-1.268-0.623-2.083-1.621-2.297-2.813
		c-0.214-1.189,0.203-2.41,1.174-3.436c0.932-0.984,2.275-1.676,3.78-1.948c1.502-0.27,3.004-0.092,4.221,0.508
		c1.268,0.622,2.084,1.622,2.298,2.813c0.432,2.398-1.791,4.814-4.954,5.383C-504.643,46.27-505.1,46.311-505.548,46.311z
		 M-504.386,38.35c-0.391,0-0.789,0.037-1.19,0.11c-1.299,0.232-2.449,0.82-3.237,1.652c-0.75,0.791-1.075,1.707-0.918,2.582l0,0
		c0.157,0.873,0.782,1.619,1.761,2.1c1.029,0.504,2.311,0.654,3.611,0.42c2.626-0.473,4.49-2.371,4.155-4.234
		c-0.157-0.873-0.783-1.619-1.76-2.1C-502.677,38.53-503.51,38.35-504.386,38.35z"/>
	<path fill="#FFC2B0" d="M-502.329,37.463c0,0-0.12,0.406-0.184,3.69c-0.02,1.031-3.689,1.723-4.55,0.725
		c-0.861-1-0.417-1.939-0.381-5.454C-507.407,32.91-502.329,37.463-502.329,37.463z"/>
	<path fill="#EA9C92" d="M-507.444,36.424c0,0,0.646,3.309,4.92,4.877l0.152-2.952L-507.444,36.424z"/>
	<circle fill="#FFC2B0" cx="-502.06" cy="30.539" r="7.961"/>
	<path fill="#EA9C92" d="M-503.905,30.695c0,0,4.232,2.197,7.257,2.443c3.025,0.246,2.546-2.338,2.546-2.338l-8.888-1.967
		L-503.905,30.695z"/>
	<path fill="#FF2C9C" d="M-495.642,31.805c0,0-3.688-1.898-7.078-1.473c-0.797,0.1-1.556,0.465-2.108,1.049
		c-0.18,0.191-0.403,0.361-0.644,0.396c-0.602,0.09-1.39-2.439-2.537-2.58c-1.147-0.141-1.976,0.617-1.144,2.197
		c0.832,1.582,0.387,3.25-0.065,3.461c-0.453,0.209-4.798-3.66-0.136-11.41c4.662-7.748,14.663-2.646,16.147-0.895
		c0,0,1.582,1.598,3.055,0.389C-490.151,22.939-489.466,34.605-495.642,31.805z"/>
	<path fill="#FFFFFF" d="M-499.316,36.24l2.092-0.412c0,0-1.093,1.467-2.551,1.754c-1.458,0.287-1.59-0.939-1.59-0.939
		L-499.316,36.24z"/>
	<path fill="#396CAA" d="M-523.649,43.37c0.043,0.049,6.464,7.232,9.866,8.268c0,0-3.422,9.434-3.906,17.874
		c0,0.006-0.002,0.012-0.002,0.02c0.242-5.739,0.322-11.28,0.341-15.401C-517.352,54.129-521.264,51.885-523.649,43.37z"/>
	<path fill="#396CAA" d="M-485.128,38.756c-2.111,9.672-7.273,13.406-7.273,13.406c-0.006-0.639-0.011-4.846-0.011-4.846
		C-489.818,45.815-485.182,38.838-485.128,38.756z"/>
	<circle fill="#FFFFFF" cx="-508.714" cy="32.026" r="1.172"/>
</g>
<g>
	<path fill="#396CAA" d="M-323.882,205.417v-7.287h1.697c0.439,0,0.807,0.045,1.104,0.133c0.295,0.088,0.533,0.227,0.711,0.418
		c0.18,0.189,0.305,0.424,0.381,0.699c0.074,0.277,0.111,0.619,0.111,1.023v2.627c0,0.416-0.037,0.77-0.113,1.061
		c-0.076,0.289-0.201,0.535-0.375,0.736c-0.176,0.203-0.408,0.352-0.697,0.447c-0.291,0.096-0.646,0.143-1.068,0.143H-323.882z
		 M-322.554,204.485h0.379c0.131,0,0.246-0.012,0.346-0.035s0.184-0.051,0.25-0.084c0.068-0.031,0.125-0.084,0.17-0.158
		c0.045-0.072,0.08-0.141,0.104-0.201c0.023-0.063,0.041-0.156,0.053-0.279c0.012-0.125,0.02-0.23,0.021-0.318
		c0.004-0.088,0.006-0.219,0.006-0.393v-2.662c0-0.172-0.004-0.313-0.01-0.418s-0.02-0.211-0.043-0.318
		c-0.021-0.105-0.053-0.189-0.096-0.248s-0.098-0.113-0.168-0.16c-0.07-0.049-0.158-0.082-0.266-0.102
		c-0.105-0.018-0.232-0.029-0.381-0.029h-0.365V204.485z"/>
	<path fill="#396CAA" d="M-319.382,205.417l1.482-7.287h1.383l1.479,7.287h-1.236l-0.293-1.691h-1.262l-0.299,1.691H-319.382z
		 M-317.688,202.858h0.975l-0.486-2.992L-317.688,202.858z"/>
	<path fill="#396CAA" d="M-313.866,205.417v-6.307h-1.221v-0.98h3.729v0.98h-1.182v6.307H-313.866z"/>
	<path fill="#396CAA" d="M-311.19,205.417l1.482-7.287h1.383l1.477,7.287h-1.234l-0.295-1.691h-1.26l-0.299,1.691H-311.19z
		 M-309.497,202.858h0.975l-0.488-2.992L-309.497,202.858z"/>
	<path fill="#396CAA" d="M-336.229,216.216v-7.285h2.096c1.242,0,1.863,0.689,1.863,2.068c0,0.68-0.17,1.174-0.51,1.488
		c-0.34,0.316-0.818,0.473-1.436,0.473h-0.688v3.256H-336.229z M-334.903,212.028h0.428c0.375,0,0.629-0.074,0.76-0.221
		c0.133-0.148,0.197-0.42,0.197-0.816c0-0.225-0.008-0.4-0.025-0.523c-0.018-0.121-0.059-0.234-0.123-0.336s-0.162-0.17-0.287-0.209
		c-0.129-0.037-0.301-0.057-0.518-0.057h-0.432V212.028z"/>
	<path fill="#396CAA" d="M-331.562,216.216v-7.285h1.67c0.383,0,0.713,0.031,0.988,0.094s0.514,0.168,0.717,0.316
		c0.205,0.148,0.357,0.35,0.457,0.602c0.102,0.254,0.152,0.564,0.152,0.932c0,0.455-0.068,0.828-0.205,1.121
		c-0.135,0.287-0.359,0.5-0.674,0.631l1.012,3.59h-1.332l-0.869-3.326h-0.59v3.326H-331.562z M-330.235,212.042h0.32
		c0.393,0,0.672-0.084,0.838-0.252c0.164-0.166,0.248-0.451,0.248-0.855c0-0.391-0.072-0.67-0.215-0.836
		c-0.145-0.17-0.408-0.254-0.791-0.254h-0.4V212.042z"/>
	<path fill="#396CAA" d="M-324.589,216.306c-0.75,0-1.287-0.205-1.611-0.613c-0.326-0.406-0.488-1.002-0.488-1.787v-2.689
		c0-0.387,0.035-0.721,0.109-1.008c0.072-0.283,0.191-0.527,0.354-0.738c0.164-0.205,0.381-0.363,0.652-0.467
		c0.273-0.104,0.602-0.154,0.984-0.154c0.748,0,1.285,0.199,1.611,0.6c0.326,0.402,0.49,0.99,0.49,1.768v2.689
		c0,0.381-0.037,0.715-0.113,1.004c-0.074,0.289-0.191,0.539-0.355,0.752c-0.162,0.213-0.381,0.373-0.652,0.48
		C-323.882,216.249-324.208,216.306-324.589,216.306z M-324.921,215.265c0.092,0.037,0.203,0.055,0.332,0.055
		s0.238-0.018,0.33-0.055c0.092-0.039,0.162-0.09,0.217-0.152c0.055-0.059,0.098-0.141,0.129-0.24
		c0.029-0.1,0.051-0.199,0.061-0.299s0.016-0.219,0.016-0.357v-3.309c0-0.176-0.01-0.322-0.025-0.439
		c-0.02-0.117-0.053-0.227-0.104-0.33c-0.053-0.105-0.129-0.184-0.23-0.234c-0.104-0.051-0.234-0.076-0.393-0.076
		s-0.289,0.025-0.393,0.076c-0.105,0.051-0.182,0.129-0.23,0.234c-0.051,0.104-0.084,0.213-0.102,0.33s-0.027,0.264-0.027,0.439
		v3.309c0,0.139,0.006,0.258,0.016,0.357s0.031,0.199,0.063,0.299c0.029,0.1,0.072,0.182,0.125,0.24
		C-325.085,215.175-325.013,215.226-324.921,215.265z"/>
	<path fill="#396CAA" d="M-319.562,216.306c-0.313,0-0.59-0.041-0.83-0.119c-0.24-0.08-0.439-0.189-0.596-0.33
		s-0.283-0.314-0.383-0.523c-0.098-0.207-0.166-0.43-0.205-0.67c-0.041-0.238-0.061-0.508-0.061-0.807v-2.541
		c0-0.316,0.021-0.596,0.063-0.84c0.041-0.246,0.109-0.473,0.207-0.682c0.096-0.209,0.223-0.381,0.379-0.516s0.354-0.24,0.594-0.318
		c0.238-0.074,0.516-0.111,0.832-0.111c0.363,0,0.674,0.047,0.932,0.143c0.258,0.098,0.463,0.24,0.611,0.426
		c0.148,0.189,0.258,0.408,0.326,0.658c0.066,0.25,0.1,0.543,0.1,0.877v0.623h-1.277v-0.619c0-0.363-0.02-0.607-0.059-0.732
		c-0.076-0.248-0.262-0.379-0.559-0.396c-0.021,0-0.047,0-0.07,0c-0.109,0-0.209,0.014-0.291,0.039
		c-0.084,0.025-0.152,0.068-0.205,0.125s-0.096,0.119-0.127,0.182c-0.031,0.066-0.057,0.15-0.072,0.254
		c-0.018,0.104-0.025,0.199-0.031,0.289c-0.004,0.088-0.006,0.197-0.006,0.332v3.086c0,0.428,0.053,0.732,0.16,0.914
		c0.105,0.182,0.297,0.271,0.572,0.271c0.096,0,0.178-0.01,0.25-0.033c0.07-0.021,0.131-0.049,0.18-0.082
		c0.049-0.035,0.09-0.082,0.123-0.146c0.033-0.063,0.059-0.121,0.076-0.176c0.018-0.053,0.031-0.129,0.041-0.227
		c0.008-0.094,0.014-0.178,0.014-0.246c0.002-0.066,0.004-0.158,0.004-0.275v-0.65h1.277v0.598c0,0.271-0.02,0.518-0.057,0.732
		c-0.037,0.219-0.104,0.422-0.195,0.611c-0.092,0.191-0.213,0.35-0.359,0.475c-0.146,0.127-0.334,0.225-0.563,0.297
		S-319.259,216.306-319.562,216.306z"/>
	<path fill="#396CAA" d="M-316.675,216.216v-7.285h3.051v0.936h-1.723v2.092h1.363v0.936h-1.363v2.404h1.744v0.918H-316.675z"/>
	<path fill="#396CAA" d="M-311.001,216.306c-1.283,0-1.957-0.742-2.021-2.225l1.156-0.24c0.029,0.963,0.305,1.443,0.824,1.443
		c0.203,0,0.354-0.061,0.451-0.184s0.146-0.289,0.146-0.498c0-0.199-0.035-0.387-0.109-0.555c-0.072-0.168-0.158-0.307-0.254-0.414
		c-0.098-0.105-0.234-0.238-0.414-0.396l-0.957-0.832c-0.281-0.246-0.49-0.5-0.629-0.766c-0.137-0.266-0.207-0.598-0.207-0.996
		c0-0.564,0.166-1.004,0.5-1.318c0.332-0.313,0.789-0.473,1.367-0.477c0.268-0.004,0.504,0.027,0.709,0.098
		c0.205,0.068,0.373,0.16,0.508,0.277c0.133,0.115,0.244,0.26,0.334,0.432c0.088,0.174,0.154,0.352,0.199,0.539
		c0.043,0.186,0.074,0.393,0.092,0.621l-1.133,0.225c-0.006-0.146-0.016-0.273-0.029-0.383c-0.014-0.107-0.035-0.219-0.068-0.33
		c-0.031-0.111-0.074-0.201-0.125-0.27s-0.119-0.123-0.207-0.166c-0.086-0.039-0.186-0.057-0.301-0.047
		c-0.195,0.012-0.346,0.076-0.449,0.195c-0.105,0.119-0.156,0.277-0.156,0.477c0,0.234,0.045,0.428,0.139,0.578
		c0.092,0.15,0.236,0.313,0.432,0.484l0.949,0.826c0.158,0.145,0.297,0.283,0.414,0.418s0.229,0.289,0.336,0.461
		c0.107,0.174,0.188,0.365,0.244,0.572c0.055,0.209,0.082,0.428,0.082,0.658c0,0.531-0.166,0.963-0.502,1.293
		C-310.017,216.14-310.456,216.306-311.001,216.306z"/>
	<path fill="#396CAA" d="M-306.562,216.306c-1.283,0-1.957-0.742-2.021-2.225l1.154-0.24c0.029,0.963,0.305,1.443,0.826,1.443
		c0.203,0,0.354-0.061,0.451-0.184s0.146-0.289,0.146-0.498c0-0.199-0.035-0.387-0.109-0.555c-0.072-0.168-0.158-0.307-0.254-0.414
		c-0.098-0.105-0.234-0.238-0.414-0.396l-0.957-0.832c-0.281-0.246-0.492-0.5-0.629-0.766c-0.139-0.266-0.207-0.598-0.207-0.996
		c0-0.564,0.166-1.004,0.5-1.318c0.332-0.313,0.787-0.473,1.367-0.477c0.268-0.004,0.504,0.027,0.709,0.098
		c0.205,0.068,0.373,0.16,0.508,0.277c0.133,0.115,0.244,0.26,0.334,0.432c0.088,0.174,0.154,0.352,0.199,0.539
		c0.043,0.186,0.074,0.393,0.092,0.621l-1.133,0.225c-0.006-0.146-0.016-0.273-0.029-0.383c-0.014-0.107-0.035-0.219-0.068-0.33
		c-0.031-0.111-0.074-0.201-0.125-0.27s-0.119-0.123-0.207-0.166c-0.086-0.039-0.186-0.057-0.301-0.047
		c-0.195,0.012-0.346,0.076-0.449,0.195c-0.105,0.119-0.156,0.277-0.156,0.477c0,0.234,0.045,0.428,0.139,0.578
		c0.092,0.15,0.236,0.313,0.432,0.484l0.949,0.826c0.158,0.145,0.297,0.283,0.414,0.418s0.229,0.289,0.336,0.461
		c0.107,0.174,0.188,0.365,0.244,0.572c0.055,0.209,0.082,0.428,0.082,0.658c0,0.531-0.166,0.963-0.502,1.293
		C-305.577,216.14-306.017,216.306-306.562,216.306z"/>
	<path fill="#396CAA" d="M-303.923,216.216v-7.285h1.311v7.285H-303.923z"/>
	<path fill="#396CAA" d="M-301.491,216.216v-7.285h0.914l1.785,4.127v-4.127h1.098v7.285h-0.869l-1.803-4.338v4.338H-301.491z"/>
	<path fill="#396CAA" d="M-294.78,216.313c-0.689,0-1.184-0.215-1.488-0.646c-0.303-0.432-0.455-1.057-0.455-1.881v-2.373
		c0-0.418,0.033-0.779,0.1-1.084c0.066-0.301,0.176-0.566,0.332-0.797c0.154-0.227,0.369-0.4,0.641-0.514
		c0.273-0.115,0.607-0.17,1.002-0.17c0.721,0,1.238,0.174,1.553,0.527c0.313,0.354,0.469,0.889,0.469,1.605v0.357h-1.27v-0.379
		c0-0.16-0.004-0.293-0.01-0.395c-0.008-0.104-0.025-0.207-0.053-0.311c-0.029-0.104-0.068-0.184-0.121-0.24
		c-0.053-0.055-0.125-0.1-0.217-0.135c-0.09-0.035-0.201-0.053-0.334-0.053c-0.1,0-0.188,0.014-0.266,0.037
		c-0.076,0.025-0.143,0.055-0.195,0.092s-0.098,0.09-0.133,0.156c-0.037,0.068-0.064,0.133-0.084,0.195s-0.033,0.145-0.045,0.246
		c-0.01,0.1-0.016,0.186-0.02,0.262c-0.002,0.076-0.004,0.174-0.004,0.295v2.939c0,0.439,0.055,0.762,0.162,0.965
		c0.109,0.203,0.314,0.305,0.619,0.305c0.158,0,0.291-0.029,0.398-0.09s0.191-0.15,0.25-0.271c0.061-0.123,0.104-0.262,0.129-0.418
		c0.023-0.156,0.037-0.346,0.037-0.57v-0.596h-0.787v-0.857h1.982v3.699h-0.861l-0.098-0.738
		C-293.765,216.034-294.177,216.313-294.78,216.313z"/>
</g>
<g>
	<path fill="#396CAA" d="M-154.026,205.659v-7.285h2.994v0.918h-1.666v2.117h1.332v0.938h-1.332v3.313H-154.026z"/>
	<path fill="#396CAA" d="M-150.294,205.659v-7.285h1.309v7.285H-150.294z"/>
	<path fill="#396CAA" d="M-147.864,205.659v-7.285h0.914l1.783,4.125v-4.125h1.1v7.285h-0.871l-1.801-4.338v4.338H-147.864z"/>
	<path fill="#396CAA" d="M-142.938,205.659v-7.285h1.311v7.285H-142.938z"/>
	<path fill="#396CAA" d="M-138.671,205.747c-1.283,0-1.957-0.742-2.021-2.225l1.156-0.24c0.029,0.963,0.305,1.445,0.826,1.445
		c0.201,0,0.352-0.063,0.449-0.186s0.148-0.287,0.148-0.496c0-0.201-0.037-0.387-0.111-0.557c-0.072-0.168-0.158-0.305-0.254-0.412
		c-0.098-0.107-0.234-0.24-0.414-0.396l-0.957-0.832c-0.281-0.246-0.49-0.5-0.629-0.768c-0.137-0.264-0.207-0.596-0.207-0.994
		c0-0.566,0.166-1.006,0.5-1.318c0.332-0.314,0.789-0.473,1.369-0.479c0.266-0.004,0.502,0.029,0.707,0.1
		c0.205,0.066,0.373,0.16,0.508,0.275c0.133,0.115,0.244,0.26,0.334,0.434c0.088,0.172,0.156,0.352,0.199,0.539
		c0.045,0.184,0.074,0.393,0.092,0.621l-1.133,0.223c-0.006-0.146-0.016-0.273-0.029-0.381c-0.014-0.109-0.035-0.219-0.068-0.33
		c-0.031-0.111-0.074-0.201-0.125-0.271c-0.051-0.066-0.119-0.123-0.207-0.164c-0.086-0.041-0.186-0.057-0.301-0.049
		c-0.195,0.012-0.346,0.078-0.449,0.195c-0.105,0.119-0.156,0.279-0.156,0.479c0,0.234,0.045,0.428,0.139,0.576
		c0.092,0.152,0.236,0.314,0.432,0.486l0.949,0.826c0.158,0.145,0.297,0.283,0.414,0.418s0.229,0.289,0.336,0.461
		c0.107,0.174,0.188,0.363,0.244,0.572c0.055,0.207,0.084,0.428,0.084,0.658c0,0.531-0.168,0.961-0.504,1.293
		C-137.687,205.581-138.126,205.747-138.671,205.747z"/>
	<path fill="#396CAA" d="M-136.056,205.659v-7.285h1.326v3.045h1.48v-3.045h1.328v7.285h-1.328v-3.297h-1.48v3.297H-136.056z"/>
	<path fill="#396CAA" d="M-130.817,205.659v-7.285h3.049v0.936h-1.723v2.092h1.363v0.936h-1.363v2.404h1.744v0.918H-130.817z"/>
	<path fill="#396CAA" d="M-126.981,205.659v-7.285h1.695c0.439,0,0.809,0.043,1.104,0.131c0.297,0.088,0.533,0.227,0.713,0.418
		c0.178,0.189,0.305,0.424,0.379,0.701c0.074,0.275,0.113,0.617,0.113,1.021v2.627c0,0.416-0.039,0.77-0.115,1.059
		c-0.076,0.291-0.201,0.537-0.375,0.738c-0.176,0.203-0.406,0.352-0.697,0.447c-0.289,0.094-0.646,0.143-1.068,0.143H-126.981z
		 M-125.655,204.728h0.379c0.131,0,0.248-0.012,0.348-0.035s0.182-0.051,0.25-0.084c0.066-0.031,0.123-0.084,0.168-0.158
		c0.047-0.072,0.08-0.141,0.104-0.201c0.023-0.063,0.041-0.156,0.053-0.279c0.012-0.125,0.02-0.23,0.023-0.318
		c0.002-0.088,0.004-0.219,0.004-0.393v-2.662c0-0.174-0.004-0.313-0.01-0.418s-0.02-0.211-0.041-0.318s-0.055-0.189-0.098-0.248
		c-0.041-0.059-0.098-0.113-0.168-0.16c-0.07-0.049-0.158-0.082-0.264-0.102s-0.232-0.029-0.383-0.029h-0.365V204.728z"/>
	<path fill="#396CAA" d="M-150.876,216.458v-7.285h1.67c0.383,0,0.713,0.031,0.988,0.094s0.514,0.17,0.719,0.316
		c0.203,0.148,0.355,0.35,0.457,0.604c0.102,0.252,0.15,0.563,0.15,0.928c0,0.457-0.066,0.83-0.203,1.121
		c-0.137,0.289-0.361,0.5-0.676,0.635l1.012,3.588h-1.332l-0.869-3.326h-0.59v3.326H-150.876z M-149.55,212.284h0.32
		c0.393,0,0.672-0.084,0.838-0.252c0.166-0.166,0.248-0.451,0.248-0.855c0-0.391-0.072-0.67-0.215-0.836
		c-0.145-0.17-0.408-0.254-0.791-0.254h-0.4V212.284z"/>
	<path fill="#396CAA" d="M-145.884,216.458v-7.285h3.049v0.936h-1.723v2.092h1.363v0.938h-1.363v2.402h1.744v0.918H-145.884z"/>
	<path fill="#396CAA" d="M-140.212,216.546c-1.283,0-1.957-0.74-2.021-2.223l1.156-0.242c0.029,0.965,0.305,1.447,0.826,1.447
		c0.203,0,0.352-0.063,0.451-0.186c0.098-0.123,0.146-0.287,0.146-0.496c0-0.203-0.037-0.389-0.109-0.557
		c-0.074-0.168-0.158-0.307-0.256-0.414c-0.096-0.105-0.234-0.238-0.412-0.396l-0.959-0.832c-0.281-0.244-0.49-0.5-0.627-0.766
		c-0.139-0.266-0.207-0.598-0.207-0.994c0-0.566,0.166-1.006,0.498-1.32c0.332-0.313,0.789-0.471,1.369-0.477
		c0.268-0.004,0.502,0.029,0.707,0.098s0.375,0.16,0.508,0.277c0.133,0.115,0.244,0.26,0.334,0.432
		c0.09,0.174,0.156,0.352,0.201,0.539c0.043,0.186,0.074,0.393,0.092,0.621l-1.135,0.225c-0.006-0.146-0.016-0.273-0.027-0.383
		c-0.014-0.107-0.037-0.217-0.068-0.33c-0.033-0.111-0.074-0.199-0.125-0.27c-0.053-0.068-0.121-0.123-0.207-0.166
		c-0.086-0.039-0.188-0.057-0.301-0.047c-0.197,0.012-0.348,0.076-0.451,0.195s-0.156,0.279-0.156,0.477
		c0,0.236,0.047,0.428,0.139,0.578s0.236,0.313,0.434,0.484l0.949,0.826c0.158,0.145,0.295,0.285,0.412,0.418
		c0.117,0.135,0.23,0.289,0.336,0.463c0.107,0.172,0.189,0.363,0.244,0.57c0.057,0.209,0.084,0.43,0.084,0.658
		c0,0.531-0.168,0.963-0.504,1.293C-139.226,216.382-139.667,216.546-140.212,216.546z"/>
	<path fill="#396CAA" d="M-135.614,216.546c-0.326,0-0.607-0.037-0.846-0.113c-0.24-0.076-0.436-0.184-0.59-0.322
		c-0.154-0.137-0.277-0.313-0.369-0.529c-0.092-0.215-0.156-0.447-0.193-0.697c-0.037-0.252-0.055-0.541-0.055-0.871v-4.84h1.287
		v4.975c0,0.17,0.006,0.314,0.014,0.434c0.01,0.121,0.027,0.246,0.057,0.379c0.029,0.131,0.072,0.236,0.125,0.318
		c0.055,0.076,0.129,0.143,0.225,0.195c0.096,0.055,0.211,0.08,0.346,0.08s0.25-0.025,0.344-0.08
		c0.096-0.053,0.17-0.119,0.221-0.195c0.051-0.082,0.092-0.188,0.123-0.318c0.031-0.133,0.049-0.258,0.057-0.375
		c0.008-0.119,0.012-0.266,0.012-0.438v-4.975h1.287v4.84c0,0.33-0.018,0.619-0.055,0.871c-0.037,0.25-0.102,0.482-0.193,0.697
		c-0.092,0.217-0.215,0.393-0.367,0.529c-0.152,0.139-0.348,0.246-0.586,0.322C-135.013,216.509-135.292,216.546-135.614,216.546z"
		/>
	<path fill="#396CAA" d="M-132.538,216.458v-7.285h1.326v6.367h1.746v0.918H-132.538z"/>
	<path fill="#396CAA" d="M-128.241,216.458v-6.305h-1.221v-0.98h3.73v0.98h-1.182v6.305H-128.241z"/>
</g>
<g>
	<polygon fill="#D4ECFF" points="117.499,179.591 106.786,173.407 96.075,179.591 106.786,185.776 	"/>
	<polygon fill="#D3008D" points="106.786,180.04 106.786,173.071 119.585,165.683 119.585,172.651 	"/>
	<polygon fill="#D3008D" points="106.786,173.071 93.989,165.683 93.989,172.651 106.786,180.04 	"/>
	<polygon fill="#FF2C9C" points="119.585,165.683 106.786,158.294 93.989,165.683 106.786,173.071 	"/>
</g>
<g>
	<polygon fill="#D4ECFF" points="-271.661,179.192 -282.825,172.747 -293.989,179.192 -282.825,185.64 	"/>
	<polygon fill="#D3008D" points="-282.825,179.659 -282.825,172.397 -269.485,164.696 -269.485,171.958 	"/>
	<polygon fill="#D3008D" points="-282.825,172.397 -296.163,164.696 -296.163,171.958 -282.825,179.659 	"/>
	<polygon fill="#FF2C9C" points="-269.485,164.696 -282.825,156.995 -296.163,164.696 -282.825,172.397 	"/>
</g>
<g>
	<polygon fill="#D4ECFF" points="-526.161,179.192 -537.325,172.747 -548.49,179.192 -537.325,185.64 	"/>
	<polygon fill="#396CAA" points="-537.325,178.497 -537.325,171.233 -523.987,163.532 -523.987,170.796 	"/>
	<polygon fill="#173D7A" points="-537.325,171.233 -550.664,163.532 -550.664,170.796 -537.325,178.497 	"/>
	<polygon fill="#5793CE" points="-523.987,163.532 -537.325,155.831 -550.664,163.532 -537.325,171.233 	"/>
</g>
</svg>
