<?xml version="1.0" encoding="utf-8"?>
<!-- Generator: Adobe Illustrator 21.0.0, SVG Export Plug-In . SVG Version: 6.00 Build 0)  -->
<svg version="1.1" id="Layer_1" xmlns="http://www.w3.org/2000/svg" xmlns:xlink="http://www.w3.org/1999/xlink" x="0px" y="0px"
	 viewBox="0 0 349 203" style="enable-background:new 0 0 349 203;" xml:space="preserve">
<style type="text/css">
	.st0{fill:#E2D8F9;}
	.st1{fill:url(#SVGID_1_);}
</style>
<path class="st0" d="M0,173.7c29.7,29.1,75.9,31.6,116.6,19.2c18.5-5.6,35.2-14.7,53.8-20c20-5.8,40.7-5.5,60,2.3
	c17.7,7.1,34.1,16.7,53.7,20.1c20.6,3.6,48.7,2.7,64.9-10.5V0H0L0,173.7z"/>
<linearGradient id="SVGID_1_" gradientUnits="userSpaceOnUse" x1="-1710.441" y1="100" x2="-1361.441" y2="100" gradientTransform="matrix(1 0 0 1 1774 0)">
	<stop  offset="0" style="stop-color:#7202BB"/>
	<stop  offset="0.6467" style="stop-color:#4940E0"/>
	<stop  offset="1" style="stop-color:#162e66;"/>
</linearGradient>
<path class="st1" d="M349,173.7c-29.7,29.1-75.9,31.6-116.6,19.2c-18.5-5.6-35.2-14.7-53.8-20c-20-5.8-40.7-5.5-60,2.3
	c-17.7,7.1-34.1,16.7-53.7,20.1c-20.6,3.6-48.7,2.7-64.9-10.5L0,0l349,0L349,173.7z"/>
</svg>
